<svg width="110" height="24" viewBox="0 0 110 24" fill="none" xmlns="http://www.w3.org/2000/svg">
<path d="M4.87715e-05 23.2134V5.56931e-07H8.10532C9.41997 5.56931e-07 10.5431 0.0517584 11.4748 0.155274C12.3546 0.25879 13.1414 0.450294 13.8349 0.729786C14.5285 0.998926 15.1496 1.38193 15.6982 1.87881C16.2468 2.36533 16.6712 3.00195 16.9714 3.78867C17.2716 4.56504 17.4217 5.46563 17.4217 6.49043C17.4217 7.87754 17.0698 9.06279 16.3659 10.0462C15.6723 11.0296 14.6889 11.7853 13.4157 12.3132C15.279 13.0792 16.3296 14.6112 16.5677 16.9093C16.7955 19.0624 17.0905 20.8377 17.4528 22.2352L18.0583 22.996V23.2134H13.4157C13.0844 21.6296 12.7998 19.8284 12.5617 17.8099C12.4064 16.4021 12.0182 15.4445 11.3971 14.9373C10.7864 14.4301 9.66841 14.1765 8.04321 14.1765H3.97505V23.2134H4.87715e-05ZM3.97505 10.6828H8.22954C9.88579 10.6828 11.159 10.424 12.0493 9.90645C12.9395 9.37852 13.3846 8.4417 13.3846 7.096C13.3846 5.8124 13.0016 4.89111 12.2356 4.33213C11.4696 3.77314 10.1963 3.49365 8.41587 3.49365H3.97505V10.6828ZM20.2477 14.9528C20.2477 12.1269 20.9206 9.94268 22.2663 8.40029C23.612 6.84756 25.6305 6.07119 28.3219 6.07119C29.6366 6.07119 30.7908 6.2834 31.7845 6.70781C32.7783 7.13223 33.5753 7.73262 34.1757 8.50898C34.7761 9.28535 35.2212 10.1808 35.5111 11.1952C35.8113 12.2097 35.9614 13.3432 35.9614 14.5957C35.9614 14.7717 35.9355 15.2893 35.8837 16.1484H24.2538C24.3883 17.6494 24.7869 18.726 25.4494 19.3781C26.1119 20.0303 27.0694 20.3563 28.3219 20.3563C30.2163 20.3563 31.3912 19.6576 31.8466 18.2602H35.6664C35.3455 19.9889 34.538 21.3242 33.2441 22.2662C31.9605 23.1979 30.2784 23.6637 28.1977 23.6637C25.5788 23.6637 23.5964 22.9287 22.2507 21.4588C20.9154 19.9889 20.2477 17.8202 20.2477 14.9528ZM24.2848 13.1361H31.9864C31.7276 10.6311 30.4543 9.37852 28.1667 9.37852C26.9969 9.37852 26.0912 9.66836 25.4494 10.248C24.8076 10.8277 24.4194 11.7904 24.2848 13.1361ZM39.3929 23.2134V6.52148H42.9176L43.0884 9.19219C43.3162 8.05352 43.8803 7.25127 44.7809 6.78545C45.6918 6.30928 46.8978 6.07119 48.3988 6.07119C50.1585 6.07119 51.5301 6.43867 52.5135 7.17363C53.5073 7.89824 54.1077 9.02656 54.3147 10.5586C54.3975 11.3143 54.4389 12.308 54.4389 13.5398V23.2134H50.5881V13.5398C50.5881 12.8773 50.5364 12.3132 50.4329 11.8474C50.3397 11.3712 50.1689 10.9468 49.9205 10.5741C49.6824 10.1911 49.3304 9.90645 48.8646 9.72012C48.3988 9.53379 47.8191 9.44063 47.1255 9.44063C47.0531 9.44063 46.9858 9.44063 46.9237 9.44063C45.8471 9.43027 44.9776 9.81846 44.3151 10.6052C43.6112 11.4333 43.2541 12.691 43.2437 14.3783V23.2134H39.3929ZM56.2711 6.52148H60.6343L65.4012 19.7197L70.1371 6.52148H74.2363L67.4353 23.2134H63.1032L56.2711 6.52148ZM75.2766 14.9528C75.2766 12.1269 75.9495 9.94268 77.2952 8.40029C78.6409 6.84756 80.6594 6.07119 83.3508 6.07119C84.6655 6.07119 85.8197 6.2834 86.8134 6.70781C87.8072 7.13223 88.6042 7.73262 89.2046 8.50898C89.805 9.28535 90.2501 10.1808 90.54 11.1952C90.8402 12.2097 90.9903 13.3432 90.9903 14.5957C90.9903 14.7717 90.9644 15.2893 90.9126 16.1484H79.2827C79.4172 17.6494 79.8158 18.726 80.4783 19.3781C81.1408 20.0303 82.0983 20.3563 83.3508 20.3563C85.2452 20.3563 86.4201 19.6576 86.8755 18.2602H90.6953C90.3744 19.9889 89.5669 21.3242 88.273 22.2662C86.9894 23.1979 85.3073 23.6637 83.2266 23.6637C80.6077 23.6637 78.6253 22.9287 77.2796 21.4588C75.9443 19.9889 75.2766 17.8202 75.2766 14.9528ZM79.3137 13.1361H87.0153C86.7565 10.6311 85.4833 9.37852 83.1956 9.37852C82.0258 9.37852 81.1201 9.66836 80.4783 10.248C79.8365 10.8277 79.4483 11.7904 79.3137 13.1361ZM92.838 23.2134L98.8471 14.9528L93.0554 6.52148H97.372L101.316 12.4685L105.291 6.52148H109.654L103.707 14.8752L109.623 23.2134H105.198L101.254 17.3285L96.9373 23.2134H92.838Z" fill="white"/>
</svg>
