<svg width="143" height="40" viewBox="0 0 143 40" fill="none" xmlns="http://www.w3.org/2000/svg">
<path d="M0 29.2356V4.30664H8.72513C10.1415 4.30664 11.3313 4.30663 12.3511 4.4766C13.3143 4.58992 14.1642 4.81656 14.9007 5.09985C15.6372 5.38313 16.3171 5.77973 16.8837 6.3463C17.4502 6.85621 17.9035 7.53608 18.2434 8.38593C18.5834 9.23578 18.7534 10.1989 18.7534 11.2754C18.7534 12.3519 18.3568 14.0516 17.6202 15.0714C16.8837 16.1479 15.8072 16.9411 14.4474 17.5076C16.4304 18.3575 17.5636 20.0005 17.8468 22.4368C18.0735 24.7597 18.4134 26.686 18.81 28.1591L19.4332 28.9523V29.1789H14.4474C14.1075 27.4792 13.7676 25.5529 13.5409 23.3999C13.371 21.8702 12.9744 20.8504 12.2945 20.3405C11.6146 19.7739 10.4248 19.5473 8.66847 19.5473H4.3059V29.2356H0.0566558H0ZM4.24925 15.7513H8.83844C10.5948 15.7513 12.0112 15.468 12.9177 14.9014C13.8809 14.3349 14.3341 13.3151 14.3341 11.8986C14.3341 10.4822 13.9375 9.51906 13.0877 8.95249C12.2378 8.32927 10.8781 8.046 9.00841 8.046H4.24925V15.7513Z" fill="#202020"/>
<path d="M21.1329 20.3406C21.1329 17.2811 21.8695 14.9582 23.2859 13.3152C24.759 11.6721 26.9119 10.8223 29.8014 10.8223C32.6909 10.8223 32.4643 11.0489 33.5408 11.5022C34.6172 11.9554 35.4671 12.5786 36.0903 13.4285C36.7135 14.2783 37.2234 15.2415 37.5067 16.318C37.8467 17.3944 38.0166 18.6409 38.0166 19.944C38.0166 21.2471 38.0166 20.6805 37.96 21.587H25.4389C25.6088 23.1734 26.0054 24.3632 26.742 25.0431C27.4785 25.723 28.4983 26.1196 29.8014 26.1196C31.8411 26.1196 33.0875 25.383 33.5974 23.8533H37.6767C37.3368 25.723 36.4869 27.1394 35.0705 28.1592C33.7107 29.179 31.8977 29.6889 29.6314 29.6889C27.3652 29.6889 24.7023 28.8958 23.2292 27.3094C21.8128 25.723 21.0763 23.4 21.0763 20.3406H21.1329ZM25.4389 18.3576H33.7107C33.4274 15.6381 32.0677 14.335 29.6314 14.335C27.1952 14.335 27.4218 14.6183 26.6853 15.2415C26.0054 15.8647 25.5522 16.8845 25.4389 18.3576Z" fill="#202020"/>
<path d="M41.0194 29.2347V11.2745H44.8154L44.9854 14.164C45.212 12.9176 45.8352 12.0677 46.7984 11.5578C47.7615 11.0479 49.0646 10.7646 50.7077 10.7646C52.3507 10.7646 54.0504 11.1612 55.1269 11.9544C56.2034 12.7476 56.8266 13.9374 57.0532 15.5805C57.1666 16.3737 57.1666 17.4501 57.1666 18.8099V29.1781H53.0306V18.8099C53.0306 18.0734 53.0306 17.5068 52.8606 16.9969C52.7473 16.487 52.5774 16.0337 52.2941 15.6371C52.0108 15.2405 51.6709 14.9006 51.1609 14.7306C50.651 14.504 50.0278 14.4473 49.2913 14.4473H49.0647C47.9315 14.4473 46.9684 14.8439 46.2885 15.6938C45.5519 16.6003 45.1553 17.96 45.1553 19.773V29.2914H41.0194V29.2347Z" fill="#202020"/>
<path d="M58.5264 11.2754H63.2289L68.328 25.4396L73.4271 11.2754H77.8463L70.5376 29.2356H65.8917L58.5264 11.2754Z" fill="#202020"/>
<path d="M78.2993 20.3406C78.2993 17.2811 79.0359 14.9582 80.4523 13.3152C81.9254 11.6721 84.0783 10.8223 86.9678 10.8223C89.8573 10.8223 89.6307 11.0489 90.7071 11.5022C91.7836 11.9554 92.6335 12.5786 93.2567 13.4285C93.8799 14.2783 94.3898 15.2415 94.6731 16.318C95.013 17.3944 95.183 18.6409 95.183 19.944C95.183 21.2471 95.183 20.6805 95.1264 21.587H82.6052C82.7752 23.1734 83.1718 24.3632 83.9083 25.0431C84.6449 25.723 85.6647 26.1196 86.9678 26.1196C89.0074 26.1196 90.2539 25.383 90.7638 23.8533H94.8431C94.5031 25.723 93.6533 27.1394 92.2369 28.1592C90.8771 29.179 89.0641 29.6889 86.7978 29.6889C84.5316 29.6889 81.8687 28.8958 80.3956 27.3094C78.9792 25.723 78.2427 23.4 78.2427 20.3406H78.2993ZM82.6619 18.3576H90.9338C90.6505 15.6381 89.2907 14.335 86.8545 14.335C84.4182 14.335 84.6449 14.6183 83.9083 15.2415C83.2285 15.8647 82.7752 16.8845 82.6619 18.3576Z" fill="#202020"/>
<path d="M128.667 30.4246L119.092 20.6797L142.095 0L123.511 20.2831L135.976 32.9742H122.095L116.033 27.0252L103.965 34.2773L116.259 23.1725C116.429 23.1159 116.486 23.1726 116.656 23.2859C117.222 23.6825 118.129 24.8156 118.695 25.3822C120.508 27.0819 122.378 28.7816 124.191 30.4813H128.667V30.4246Z" fill="url(#paint0_linear_265_12877)"/>
<path d="M109.744 7.42215L116.259 13.6544L128.271 6.45898L115.976 17.3937L108.441 9.9717H103.058L113.087 20.1133L90.9338 39.9997L109.121 19.9999L96.7695 7.42215H109.744Z" fill="url(#paint1_linear_265_12877)"/>
<defs>
<linearGradient id="paint0_linear_265_12877" x1="103.965" y1="17.1103" x2="142.095" y2="17.1103" gradientUnits="userSpaceOnUse">
<stop stop-color="#2841C1"/>
<stop offset="1" stop-color="#6885ED"/>
</linearGradient>
<linearGradient id="paint1_linear_265_12877" x1="90.9338" y1="23.2294" x2="128.271" y2="23.2294" gradientUnits="userSpaceOnUse">
<stop stop-color="#2841C1"/>
<stop offset="1" stop-color="#6885ED"/>
</linearGradient>
</defs>
</svg>
