<svg width="143" height="40" viewBox="0 0 143 40" fill="none" xmlns="http://www.w3.org/2000/svg">
<path d="M0 29.2356V4.30664H8.72513C10.1415 4.30664 11.3313 4.30663 12.3511 4.4766C13.3143 4.58992 14.1642 4.81656 14.9007 5.09985C15.6372 5.38313 16.3171 5.77973 16.8837 6.3463C17.4502 6.85621 17.9035 7.53608 18.2434 8.38593C18.5834 9.23578 18.7534 10.1989 18.7534 11.2754C18.7534 12.3519 18.3568 14.0516 17.6202 15.0714C16.8837 16.1479 15.8072 16.9411 14.4474 17.5076C16.4304 18.3575 17.5636 20.0005 17.8468 22.4368C18.0735 24.7597 18.4134 26.686 18.81 28.1591L19.4332 28.9523V29.1789H14.4474C14.1075 27.4792 13.7676 25.5529 13.5409 23.3999C13.371 21.8702 12.9744 20.8504 12.2945 20.3405C11.6146 19.7739 10.4248 19.5473 8.66847 19.5473H4.3059V29.2356H0.0566558H0ZM4.24925 15.7513H8.83844C10.5948 15.7513 12.0112 15.468 12.9177 14.9014C13.8809 14.3349 14.3341 13.3151 14.3341 11.8986C14.3341 10.4822 13.9375 9.51906 13.0877 8.95249C12.2378 8.32927 10.8781 8.046 9.00841 8.046H4.24925V15.7513Z" fill="white"/>
<path d="M21.1328 20.3406C21.1328 17.2811 21.8694 14.9582 23.2858 13.3152C24.7589 11.6721 26.9118 10.8223 29.8013 10.8223C32.6908 10.8223 32.4642 11.0489 33.5406 11.5022C34.6171 11.9554 35.467 12.5786 36.0902 13.4285C36.7134 14.2783 37.2233 15.2415 37.5066 16.318C37.8465 17.3944 38.0165 18.6409 38.0165 19.944C38.0165 21.2471 38.0165 20.6805 37.9599 21.587H25.4387C25.6087 23.1734 26.0053 24.3632 26.7418 25.0431C27.4784 25.723 28.4982 26.1196 29.8013 26.1196C31.8409 26.1196 33.0874 25.383 33.5973 23.8533H37.6766C37.3366 25.723 36.4868 27.1394 35.0704 28.1592C33.7106 29.179 31.8976 29.6889 29.6313 29.6889C27.3651 29.6889 24.7022 28.8958 23.2291 27.3094C21.8127 25.723 21.0762 23.4 21.0762 20.3406H21.1328ZM25.4387 18.3576H33.7106C33.4273 15.6381 32.0676 14.335 29.6313 14.335C27.1951 14.335 27.4217 14.6183 26.6852 15.2415C26.0053 15.8647 25.5521 16.8845 25.4387 18.3576Z" fill="white"/>
<path d="M41.0195 29.2347V11.2745H44.8155L44.9855 14.164C45.2121 12.9176 45.8353 12.0677 46.7985 11.5578C47.7617 11.0479 49.0648 10.7646 50.7078 10.7646C52.3509 10.7646 54.0506 11.1612 55.127 11.9544C56.2035 12.7476 56.8267 13.9374 57.0534 15.5805C57.1667 16.3737 57.1667 17.4501 57.1667 18.8099V29.1781H53.0307V18.8099C53.0307 18.0734 53.0307 17.5068 52.8608 16.9969C52.7475 16.487 52.5775 16.0337 52.2942 15.6371C52.0109 15.2405 51.671 14.9006 51.1611 14.7306C50.6512 14.504 50.0279 14.4473 49.2914 14.4473H49.0648C47.9316 14.4473 46.9685 14.8439 46.2886 15.6938C45.5521 16.6003 45.1555 17.96 45.1555 19.773V29.2914H41.0195V29.2347Z" fill="white"/>
<path d="M58.5264 11.2754H63.2289L68.328 25.4396L73.4271 11.2754H77.8463L70.5376 29.2356H65.8917L58.5264 11.2754Z" fill="white"/>
<path d="M78.2998 20.3406C78.2998 17.2811 79.0364 14.9582 80.4528 13.3152C81.9258 11.6721 84.0788 10.8223 86.9683 10.8223C89.8578 10.8223 89.6312 11.0489 90.7076 11.5022C91.7841 11.9554 92.634 12.5786 93.2572 13.4285C93.8804 14.2783 94.3903 15.2415 94.6736 16.318C95.0135 17.3944 95.1835 18.6409 95.1835 19.944C95.1835 21.2471 95.1835 20.6805 95.1268 21.587H82.6057C82.7757 23.1734 83.1723 24.3632 83.9088 25.0431C84.6454 25.723 85.6652 26.1196 86.9683 26.1196C89.0079 26.1196 90.2544 25.383 90.7643 23.8533H94.8436C94.5036 25.723 93.6538 27.1394 92.2374 28.1592C90.8776 29.179 89.0646 29.6889 86.7983 29.6889C84.5321 29.6889 81.8692 28.8958 80.3961 27.3094C78.9797 25.723 78.2432 23.4 78.2432 20.3406H78.2998ZM82.6624 18.3576H90.9342C90.651 15.6381 89.2912 14.335 86.855 14.335C84.4187 14.335 84.6454 14.6183 83.9088 15.2415C83.2289 15.8647 82.7757 16.8845 82.6624 18.3576Z" fill="white"/>
<path d="M128.667 30.4246L119.092 20.6797L142.095 0L123.511 20.2831L135.976 32.9742H122.095L116.033 27.0252L103.965 34.2773L116.259 23.1725C116.429 23.1159 116.486 23.1726 116.656 23.2859C117.222 23.6825 118.129 24.8156 118.696 25.3822C120.509 27.0819 122.378 28.7816 124.191 30.4813H128.667V30.4246Z" fill="url(#paint0_linear_307_350)"/>
<path d="M109.744 7.42215L116.259 13.6544L128.27 6.45898L115.976 17.3937L108.44 9.9717H103.058L113.086 20.1133L90.9336 39.9997L109.12 19.9999L96.7692 7.42215H109.744Z" fill="url(#paint1_linear_307_350)"/>
<defs>
<linearGradient id="paint0_linear_307_350" x1="103.965" y1="17.1103" x2="142.095" y2="17.1103" gradientUnits="userSpaceOnUse">
<stop stop-color="#2841C1"/>
<stop offset="1" stop-color="#6885ED"/>
</linearGradient>
<linearGradient id="paint1_linear_307_350" x1="90.9336" y1="23.2294" x2="128.27" y2="23.2294" gradientUnits="userSpaceOnUse">
<stop stop-color="#2841C1"/>
<stop offset="1" stop-color="#6885ED"/>
</linearGradient>
</defs>
</svg>
