<svg width="48" height="41" viewBox="0 0 48 41" fill="none" xmlns="http://www.w3.org/2000/svg">
<path d="M7.514 0.975147V39.9751H0V0.975147H7.514ZM31.7428 0.000146538H31.5445C26.2256 0.187749 21.1887 2.43907 17.5014 6.277C13.8141 10.1149 11.7661 15.2378 11.7915 20.56C11.8168 25.8821 13.9135 30.9853 17.6372 34.7879C21.361 38.5905 26.419 40.7937 31.7395 40.9306C37.5083 40.9306 43.4395 38.5874 47.2615 34.8109V17.4981H31.018V24.7001H39.9555V31.0506L39.858 31.1124C37.4395 32.6882 34.6195 33.5365 31.733 33.5564C29.9569 33.553 28.2 33.1887 26.569 32.4856C24.938 31.7825 23.4669 30.7553 22.245 29.4662C21.0232 28.1772 20.076 26.6533 19.4611 24.987C18.8462 23.3207 18.5764 21.5469 18.668 19.7731C18.8706 16.562 20.2362 13.5346 22.5093 11.2573C24.7823 8.98008 27.8072 7.60894 31.018 7.4004C34.6742 7.18915 38.168 8.7004 40.937 11.3524C41.0345 11.4499 41.145 11.5669 41.262 11.7131L46.462 6.51315L46.137 6.1524C44.2841 4.19948 42.0513 2.64625 39.5759 1.58823C37.1005 0.530215 34.4348 -0.0102265 31.7428 0.000146538Z" fill="black"/>
</svg>
