<svg width="192" height="35" viewBox="0 0 192 35" fill="none" xmlns="http://www.w3.org/2000/svg">
<path d="M56.4082 6.2404V20.9139C56.4082 21.9769 56.018 22.8967 55.2436 23.6611C54.4632 24.4255 53.5388 24.8077 52.4703 24.8077H50.0452C48.9526 24.8077 48.0222 24.4255 47.2538 23.6671C46.4855 22.9086 46.1013 21.9889 46.1013 20.9139V17.1157C46.1013 16.6737 46.2214 16.3273 46.4555 16.0765C46.6956 15.8257 47.0077 15.7003 47.4039 15.7003C47.8001 15.7003 48.1062 15.8316 48.3584 16.1004C48.6105 16.3691 48.7365 16.7036 48.7365 17.1157V20.9139C48.7365 21.2782 48.8626 21.5828 49.1207 21.8336C49.3788 22.0845 49.685 22.2099 50.0392 22.2099H52.4643C52.8065 22.2099 53.1186 22.0785 53.3887 21.8157C53.6589 21.5529 53.7969 21.2543 53.7969 20.9079V6.23446C53.7969 5.79252 53.917 5.44016 54.1511 5.17738C54.3912 4.91461 54.7034 4.7832 55.0995 4.7832C55.4717 4.7832 55.7839 4.92059 56.03 5.18934C56.2761 5.45809 56.4021 5.81043 56.4021 6.22848L56.4082 6.2404Z" fill="black"/>
<path d="M68.0176 10.2246H72.6398C73.6903 10.2246 74.5907 10.5889 75.3411 11.3115C76.0914 12.0342 76.4816 12.9479 76.5236 14.0587L76.8718 23.3334V23.3931C76.8718 23.7933 76.7457 24.1337 76.4996 24.4024C76.2535 24.6712 75.9534 24.8085 75.5992 24.8085C75.245 24.8085 74.9389 24.695 74.7048 24.4681C74.4707 24.2412 74.3266 23.9247 74.2666 23.5126L72.7479 24.4621C72.5858 24.5637 72.3937 24.6473 72.1776 24.713C71.9615 24.7787 71.7634 24.8085 71.5953 24.8085H67.8976C66.8231 24.8085 65.9106 24.4323 65.1543 23.6858C64.3979 22.9392 64.0197 22.0315 64.0197 20.9804V19.5351C64.0197 18.4781 64.4039 17.5703 65.1723 16.8118C65.9406 16.0534 66.8471 15.6712 67.9036 15.6712H72.8739C73.084 15.6712 73.2881 15.6891 73.4742 15.7249C73.6603 15.7607 73.8404 15.8145 74.0144 15.8862L73.9244 14.0587C73.9064 13.6884 73.7803 13.3898 73.5462 13.1629C73.3121 12.9359 73.018 12.8225 72.6518 12.8225H68.0296C67.5974 12.8225 67.2553 12.709 67.0092 12.4761C66.763 12.2432 66.637 11.9267 66.637 11.5265C66.637 11.1264 66.763 10.8338 67.0212 10.5889C67.2793 10.35 67.6154 10.2246 68.0296 10.2246H68.0176ZM67.8676 18.2631C67.5434 18.2631 67.2553 18.3885 67.0031 18.6393C66.751 18.8901 66.625 19.1887 66.625 19.5292V20.9744C66.625 21.3089 66.751 21.5955 66.9971 21.8404C67.2433 22.0853 67.5434 22.2107 67.8976 22.2107H71.3672L74.1705 20.64L74.1405 19.4933C74.1405 19.141 74.0145 18.8483 73.7623 18.6095C73.5102 18.3706 73.2101 18.2571 72.8679 18.2571H67.8676V18.2631Z" fill="black"/>
<path d="M96.0628 6.24048V23.3566C96.0628 23.7806 95.9368 24.127 95.6846 24.3958C95.4325 24.6645 95.1144 24.8019 94.7302 24.8019C94.346 24.8019 94.0219 24.6705 93.7818 24.4077C93.5417 24.1449 93.4276 23.7926 93.4276 23.3506V23.064L92.4551 23.906C92.131 24.1867 91.7528 24.4077 91.3086 24.563C90.8704 24.7183 90.4202 24.7959 89.97 24.7959H87.953C87.5088 24.7959 87.0766 24.7182 86.6564 24.5689C86.2362 24.4196 85.84 24.1987 85.4678 23.906L84.5734 23.2252C84.1472 22.8908 83.8111 22.4608 83.5589 21.9233C83.3068 21.3858 83.1808 20.8304 83.1808 20.2571V14.6313C83.1808 14.1297 83.3128 13.6041 83.583 13.0607C83.8531 12.5172 84.1832 12.0932 84.5734 11.7946L85.4678 11.1138C85.852 10.8152 86.2482 10.5882 86.6564 10.4329C87.0646 10.2836 87.4968 10.206 87.953 10.206H89.97C90.4262 10.206 90.8704 10.2896 91.3086 10.4449C91.7468 10.6061 92.131 10.8271 92.4551 11.1078L93.4276 11.9379V6.22259C93.4276 5.79857 93.5476 5.45219 93.7938 5.18344C94.0339 4.9147 94.352 4.77734 94.7362 4.77734C95.1204 4.77734 95.4385 4.90872 95.6907 5.17747C95.9428 5.44621 96.0688 5.79259 96.0688 6.22259L96.0628 6.24048ZM87.953 12.8158C87.6829 12.8158 87.3947 12.9293 87.1066 13.1622C87.0886 13.1741 87.0706 13.1801 87.0586 13.192L86.1942 13.8729C86.0801 13.9625 85.9901 14.0879 85.9241 14.2491C85.852 14.4104 85.816 14.5716 85.816 14.7329V20.269C85.816 20.4422 85.852 20.6094 85.9241 20.7826C85.9961 20.9558 86.0861 21.0812 86.1942 21.1589L87.0586 21.8397C87.0586 21.8397 87.0766 21.8576 87.0886 21.8696C87.3887 22.1025 87.6769 22.2159 87.953 22.2159H89.97C90.12 22.2159 90.2701 22.1861 90.4202 22.1264C90.5642 22.0666 90.7203 21.9711 90.8824 21.8397L93.0794 20.06C93.1815 19.9823 93.2655 19.8569 93.3316 19.6837C93.3976 19.5105 93.4276 19.3374 93.4276 19.1582V15.8556C93.4276 15.6765 93.3976 15.5033 93.3316 15.3361C93.2655 15.1688 93.1815 15.0494 93.0794 14.9658L90.8824 13.204C90.7323 13.0726 90.5822 12.9771 90.4442 12.9173C90.3001 12.8576 90.144 12.8278 89.976 12.8278H87.959L87.953 12.8158Z" fill="black"/>
<path d="M107.372 10.2246H110.254C110.686 10.2246 111.118 10.3022 111.55 10.4575C111.982 10.6128 112.379 10.8397 112.739 11.1264L113.861 12.0162C114.287 12.3686 114.624 12.8105 114.876 13.342C115.128 13.8736 115.254 14.423 115.254 14.9844V18.0779C115.254 18.4482 115.116 18.7588 114.846 19.0036C114.576 19.2485 114.221 19.3739 113.801 19.3739H105.007V20.0547C105.007 20.2339 105.049 20.413 105.133 20.5802C105.217 20.7534 105.331 20.8908 105.475 21.0043L106.58 21.9419C106.7 22.0315 106.826 22.1031 106.952 22.1449C107.078 22.1927 107.228 22.2107 107.402 22.2107H113.801C114.233 22.2107 114.588 22.3301 114.858 22.575C115.128 22.8138 115.26 23.1304 115.26 23.5126C115.26 23.8948 115.122 24.2054 114.852 24.4502C114.582 24.6891 114.227 24.8145 113.807 24.8145H107.378C106.946 24.8145 106.52 24.7369 106.106 24.5876C105.691 24.4383 105.295 24.2173 104.923 23.9247L103.8 22.987C103.368 22.6347 103.026 22.1987 102.78 21.6732C102.534 21.1476 102.408 20.6101 102.408 20.0607V14.9904C102.408 14.429 102.534 13.8795 102.78 13.348C103.026 12.8165 103.368 12.3746 103.8 12.0222L104.923 11.1323C105.295 10.8337 105.691 10.6068 106.106 10.4516C106.52 10.3022 106.946 10.2246 107.378 10.2246H107.372ZM107.402 12.7866C107.27 12.7866 107.138 12.8165 107 12.8703C106.862 12.924 106.724 13.0017 106.586 13.1032L105.481 14.0229C105.337 14.1363 105.223 14.2797 105.139 14.4528C105.055 14.626 105.013 14.8052 105.013 14.9904V16.7402H112.655V14.9904C112.655 14.8112 112.613 14.632 112.529 14.4528C112.445 14.2797 112.337 14.1363 112.204 14.0408L111.07 13.1032C110.938 13.0017 110.806 12.924 110.668 12.8703C110.53 12.8165 110.398 12.7866 110.266 12.7866H107.414H107.402Z" fill="black"/>
<path d="M121.593 4.79492H134.451V8.12738C134.451 8.55737 134.331 8.90973 134.085 9.17848C133.845 9.44722 133.526 9.5786 133.142 9.5786C132.758 9.5786 132.446 9.44124 132.2 9.1725C131.96 8.90375 131.834 8.5514 131.834 8.13335V7.39282H129.318V23.3623C129.318 23.7923 129.198 24.1446 128.952 24.4074C128.712 24.6761 128.394 24.8075 128.01 24.8075C127.626 24.8075 127.314 24.6702 127.067 24.4014C126.827 24.1327 126.701 23.7803 126.701 23.3623V7.39282H124.186V8.13335C124.186 8.56335 124.066 8.91571 123.82 9.18445C123.58 9.4532 123.262 9.58458 122.877 9.58458C122.493 9.58458 122.181 9.44722 121.935 9.17848C121.695 8.90973 121.569 8.55738 121.569 8.13933V4.80688L121.593 4.79492Z" fill="black"/>
<path d="M143.389 11.6579V13.0136L145.556 11.1264C145.88 10.8457 146.264 10.6247 146.715 10.4635C147.165 10.3022 147.609 10.2246 148.041 10.2246H149.752C150.815 10.2246 151.727 10.6008 152.489 11.3533C153.252 12.1058 153.636 13.0076 153.636 14.0527V14.638C153.636 15.068 153.516 15.4203 153.27 15.6831C153.03 15.9518 152.712 16.0833 152.327 16.0833C151.943 16.0833 151.631 15.9459 151.385 15.6772C151.145 15.4084 151.019 15.056 151.019 14.638V14.0527C151.019 13.7183 150.893 13.4257 150.641 13.1689C150.388 12.9121 150.088 12.7866 149.746 12.7866H148.035C147.891 12.7866 147.729 12.8225 147.543 12.9001C147.357 12.9777 147.213 13.0614 147.111 13.1629L143.383 16.4356V23.3573C143.383 23.7873 143.263 24.1396 143.017 24.4024C142.777 24.6712 142.459 24.8025 142.074 24.8025C141.69 24.8025 141.378 24.6652 141.132 24.3964C140.892 24.1277 140.766 23.7753 140.766 23.3573V11.6519C140.766 11.21 140.886 10.8576 141.12 10.6068C141.36 10.35 141.672 10.2246 142.069 10.2246C142.465 10.2246 142.765 10.356 143.011 10.6247C143.251 10.8935 143.377 11.2339 143.377 11.6579H143.389Z" fill="black"/>
<path d="M163.979 10.2246H168.601C169.651 10.2246 170.552 10.5889 171.302 11.3115C172.053 12.0342 172.443 12.9479 172.485 14.0587L172.833 23.3334V23.3931C172.833 23.7933 172.707 24.1337 172.461 24.4024C172.215 24.6712 171.915 24.8085 171.56 24.8085C171.206 24.8085 170.9 24.695 170.666 24.4681C170.432 24.2412 170.288 23.9247 170.228 23.5126L168.709 24.4621C168.547 24.5637 168.355 24.6473 168.139 24.713C167.923 24.7787 167.725 24.8085 167.556 24.8085H163.859C162.784 24.8085 161.872 24.4323 161.115 23.6858C160.359 22.9392 159.981 22.0315 159.981 20.9804V19.5351C159.981 18.4781 160.365 17.5703 161.133 16.8118C161.902 16.0534 162.808 15.6712 163.865 15.6712H168.835C169.045 15.6712 169.249 15.6891 169.435 15.7249C169.621 15.7607 169.802 15.8145 169.976 15.8862L169.886 14.0587C169.868 13.6884 169.742 13.3898 169.507 13.1629C169.273 12.9359 168.979 12.8225 168.613 12.8225H163.991C163.559 12.8225 163.216 12.709 162.97 12.4761C162.724 12.2432 162.598 11.9267 162.598 11.5265C162.598 11.1264 162.724 10.8338 162.982 10.5889C163.24 10.35 163.577 10.2246 163.991 10.2246H163.979ZM163.829 18.2631C163.505 18.2631 163.216 18.3885 162.964 18.6393C162.712 18.8901 162.586 19.1887 162.586 19.5292V20.9744C162.586 21.3089 162.712 21.5955 162.958 21.8404C163.204 22.0853 163.505 22.2107 163.859 22.2107H167.328L170.132 20.64L170.102 19.4933C170.102 19.141 169.976 18.8483 169.724 18.6095C169.471 18.3706 169.171 18.2571 168.829 18.2571H163.829V18.2631Z" fill="black"/>
<path d="M181.837 10.7859L185.625 15.3247L189.323 10.7859C189.467 10.6067 189.635 10.4693 189.833 10.3738C190.031 10.2782 190.229 10.2305 190.433 10.2305C190.787 10.2305 191.088 10.3558 191.334 10.6067C191.58 10.8575 191.706 11.1561 191.706 11.4966C191.706 11.6697 191.676 11.831 191.616 11.9863C191.556 12.1415 191.466 12.3028 191.346 12.464L187.3 17.3373L191.622 22.5987C191.754 22.742 191.85 22.8854 191.91 23.0287C191.97 23.1721 192 23.3393 192 23.5184C192 23.8708 191.874 24.1694 191.628 24.4143C191.382 24.6591 191.082 24.7845 190.727 24.7845C190.523 24.7845 190.325 24.7368 190.121 24.6352C189.917 24.5337 189.749 24.3963 189.605 24.2291L185.601 19.3857L181.567 24.2291C181.405 24.4202 181.231 24.5635 181.045 24.6531C180.859 24.7427 180.661 24.7905 180.445 24.7905C180.078 24.7905 179.778 24.671 179.532 24.4381C179.292 24.1993 179.166 23.9066 179.166 23.5543C179.166 23.3811 179.196 23.2138 179.262 23.0466C179.328 22.8794 179.418 22.7301 179.526 22.5987L183.908 17.3671L179.814 12.464C179.682 12.3028 179.586 12.1415 179.526 11.9743C179.466 11.8071 179.436 11.622 179.436 11.407C179.436 11.1143 179.562 10.8456 179.82 10.6007C180.078 10.3559 180.361 10.2305 180.679 10.2305C180.901 10.2305 181.111 10.2782 181.309 10.3738C181.507 10.4693 181.681 10.6067 181.831 10.7859H181.837Z" fill="black"/>
<path d="M16.5374 0.0471858C23.9329 -0.436556 32.8351 2.78841 35.5423 10.2177C36.5628 13.0127 36.4007 17.9397 36.2567 20.9854C35.4823 37.5939 7.40708 39.8156 1.16414 25.6378C-0.2045 22.5263 -0.078443 17.1036 0.125653 13.6696C0.611882 5.39821 8.95581 0.542872 16.5374 0.0471858ZM33.9096 13.6218C32.5109 3.36771 19.6108 0.39357 11.1288 3.59463C5.43816 5.74459 0.821982 11.1076 3.06704 17.4559C5.48618 24.306 15.3008 27.4712 21.8919 25.6736C24.6592 24.9211 28.381 22.6696 26.9703 19.3073C26.8742 19.2237 25.3916 20.2449 25.1394 20.3763C20.5653 22.7413 13.7941 22.4725 9.63413 19.3491C5.25807 16.0644 6.09246 11.2688 10.5105 8.56344C16.2252 5.06377 25.2235 6.46126 30.4759 10.2894C31.7786 11.239 32.8711 12.4035 33.9096 13.6218ZM30.608 13.4546C26.286 9.20246 17.3538 7.35109 11.9692 10.4208C10.1264 11.4719 8.16944 13.58 9.5741 15.7479C14.2803 12.2901 21.9879 12.1706 26.7002 15.6703C31.1182 18.949 30.3559 23.7565 25.8838 26.4977C21.4117 29.2389 15.1687 28.8926 10.3905 27.1308C7.28102 25.9841 4.53173 24.085 2.53279 21.4453C2.83893 26.3006 6.86082 29.8899 11.2069 31.4964C16.4293 33.4254 22.9124 33.1029 27.7567 30.296C34.2097 26.5575 36.2567 19.0147 30.614 13.4606L30.608 13.4546ZM17.0476 15.4792C14.9646 15.6404 12.8396 16.3033 11.1528 17.5276C15.1507 20.3285 21.2376 20.3285 25.2295 17.5276C22.9424 15.8614 19.8449 15.2582 17.0476 15.4792Z" fill="black"/>
</svg>
