<svg width="228" height="29" viewBox="0 0 228 29" fill="none" xmlns="http://www.w3.org/2000/svg">
<path d="M24.3114 4.6875V24.1564H20.0325V4.6875H24.3114Z" fill="black"/>
<path d="M44.0156 16.7749C43.5877 21.5244 40.6353 24.755 35.3295 24.755C29.6814 24.755 25.9587 20.69 25.9587 14.5285C25.9587 8.85896 29.553 4.34473 35.5006 4.34473C40.1646 4.34473 43.5663 7.29716 43.8873 11.3193H39.7153C39.2875 9.17987 37.7043 7.9176 35.4151 7.9176C31.6924 7.9176 30.2376 11.2765 30.2376 14.5285C30.2376 18.5506 32.2273 21.1179 35.3509 21.1179C37.9182 21.1179 39.4372 19.5775 39.8009 16.7321H44.0156V16.7749Z" fill="black"/>
<path d="M47.9731 24.0929V4.62402H54.0492L58.5634 17.9955L62.9706 4.62402H68.9183V24.0929H64.9175V10.2508L60.1466 24.0929H56.8518L52.0381 10.4005V24.0929H47.9731Z" fill="black"/>
<path d="M83.7445 24.1567V14.2297C83.7445 10.3359 80.514 9.65128 77.6899 9.62988H77.6044C73.5394 9.62988 71.3144 11.2345 71.1005 14.3794H74.7161C74.9942 12.7749 75.7216 12.2186 77.4974 12.2186C79.2731 12.2186 80.0219 12.8177 80.0219 14.1013C80.0219 15.2352 79.1234 15.4706 76.6844 15.7915L76.0854 15.8771C73.4324 16.2408 70.4586 16.8184 70.4586 20.3057C70.4586 22.9586 72.3627 24.5632 75.4649 24.5632C77.1551 24.5632 78.8238 23.9855 80.0219 22.7874V24.1567H83.7445ZM80.0219 17.2891V18.8723C80.0219 20.9047 78.6099 22.0172 76.5988 22.0172C75.2724 22.0172 74.4808 21.3112 74.4808 20.1345C74.4808 18.4016 75.9784 18.2518 77.3048 18.0379C78.2676 17.8667 79.1234 17.8025 80.0219 17.2891Z" fill="black"/>
<path d="M88.9006 24.1558V15.3413C88.9006 14.4213 89.628 13.6939 90.548 13.6939H94.1208V9.88574H90.548C87.5527 9.88574 85.1138 12.3247 85.1138 15.3413V24.1558H88.9006Z" fill="black"/>
<path d="M126.491 4.62402V9.88704H130.769V13.6953H126.491V18.6802C126.491 19.6001 127.218 20.3275 128.138 20.3275H130.769V24.1357H128.138C125.143 24.1357 122.704 21.6968 122.704 18.6802V4.62402H126.491Z" fill="black"/>
<path d="M108.284 9.97156L103 15.1918L108.905 24.0705H104.219L100.347 17.8019L98.7637 19.2781V24.0705H94.9769V4.60156H98.7851V15.0206L103.749 9.95017H108.284V9.97156Z" fill="black"/>
<path d="M121.399 19.7064H117.698C117.12 21.1184 116.264 21.7602 114.831 21.7602C112.755 21.7602 111.579 20.4552 111.536 18.0162H121.613V17.6311C121.613 12.689 118.917 9.56543 114.66 9.56543C110.402 9.56543 107.599 12.7318 107.599 17.1177C107.599 21.5035 110.466 24.4987 114.788 24.4987C117.997 24.4987 120.522 22.7658 121.399 19.7064ZM117.676 15.5559H111.515C111.728 13.5876 112.927 12.3895 114.638 12.3895C116.606 12.3681 117.526 13.8229 117.676 15.5559Z" fill="black"/>
<path d="M144.098 14.0797H140.504C140.29 12.6034 139.392 12.1328 137.83 12.1328C136.461 12.1328 135.648 12.6462 135.648 13.5234C135.648 14.5289 136.546 14.8071 138.215 15.1494L139.52 15.4275C141.938 15.941 144.526 16.6898 144.526 19.7064C144.526 22.723 142.109 24.4987 138.087 24.4987C134.578 24.4987 131.54 23.1081 131.497 19.4924H135.177C135.305 21.1826 136.396 21.8458 138.172 21.8458C139.755 21.8458 140.739 21.1612 140.739 20.0915C140.739 18.9362 139.67 18.6794 137.766 18.2516L137.423 18.166C134.942 17.6097 131.797 17.1818 131.797 13.8871C131.797 11.1272 134.022 9.56543 137.958 9.56543C141.21 9.56543 143.991 10.7849 144.098 14.0797Z" fill="black"/>
<path d="M4.8614 17.8232V24.2416H0.58252V17.8232H4.8614Z" fill="black"/>
<path d="M11.2797 10.335V24.2414H7.00085V10.335H11.2797Z" fill="black"/>
<path d="M17.6766 14.6143V24.2417H13.3977V14.6143H17.6766Z" fill="black"/>
<path d="M164.836 22.1471C163.268 24.171 161.219 24.9391 159.252 24.9391C152.956 24.9391 149.25 20.2387 149.25 14.3681C149.25 8.49749 152.956 3.62598 159.252 3.62598C163.411 3.62598 167.344 6.19118 167.829 10.8059H163.555C163.041 8.55526 161.362 7.38712 159.252 7.38712C155.235 7.38712 153.724 10.8059 153.724 14.3681C153.724 17.9303 155.235 21.1779 159.252 21.1779C162.158 21.1779 163.839 19.6119 164.096 16.7899H159.595V13.4567H168.142V24.4556H165.292L164.836 22.1471Z" fill="black"/>
<path d="M170.022 4.10938H174.068V24.4533H170.022V4.10938Z" fill="black"/>
<path d="M182.985 9.3252C187.629 9.3252 190.62 12.4017 190.62 17.1042C190.62 21.8067 187.629 24.8532 182.985 24.8532C178.34 24.8532 175.377 21.7767 175.377 17.1042C175.377 12.4317 178.368 9.3252 182.985 9.3252ZM182.985 21.8045C185.749 21.8045 186.575 19.4405 186.575 17.1042C186.575 14.7679 185.749 12.3739 182.985 12.3739C180.22 12.3739 179.422 14.738 179.422 17.1042C179.422 19.4704 180.248 21.8045 182.985 21.8045Z" fill="black"/>
<path d="M191.818 4.10938H195.864V11.5182H195.922C196.919 10.0078 198.742 9.32534 200.567 9.32534C203.502 9.32534 206.664 11.6894 206.664 17.0744C206.664 22.4594 203.502 24.8534 200.567 24.8534C198.401 24.8534 196.606 24.1987 195.723 22.5749H195.665V24.4554H191.818V4.10938ZM199.169 12.3719C196.775 12.3719 195.723 14.6226 195.723 17.1022C195.723 19.5818 196.778 21.8025 199.169 21.8025C201.561 21.8025 202.616 19.5519 202.616 17.1022C202.616 14.6525 201.561 12.3719 199.169 12.3719Z" fill="black"/>
<path d="M207.631 14.2545C207.86 10.4655 211.249 9.3252 214.554 9.3252C217.49 9.3252 221.022 9.97987 221.022 13.5142V21.1798C221.022 22.5191 221.165 23.8584 221.535 24.4575H217.432C217.289 24.0018 217.175 23.5161 217.147 23.0326C215.866 24.3719 213.985 24.8554 212.19 24.8554C209.398 24.8554 207.176 23.4583 207.176 20.4396C207.176 17.1063 209.683 16.3083 212.19 15.966C214.67 15.5959 216.976 15.6815 216.976 14.0277C216.976 12.2904 215.78 12.0337 214.356 12.0337C212.817 12.0337 211.82 12.6606 211.677 14.2566H207.631V14.2545ZM216.976 17.2454C216.292 17.8444 214.867 17.8723 213.615 18.1012C212.362 18.3579 211.221 18.7858 211.221 20.2663C211.221 21.7468 212.389 22.1469 213.701 22.1469C216.863 22.1469 216.978 19.6394 216.978 18.7558V17.2454H216.976Z" fill="black"/>
<path d="M222.847 4.10938H226.893V24.4533H222.847V4.10938Z" fill="black"/>
</svg>
