<svg width="191" height="44" viewBox="0 0 191 44" fill="none" xmlns="http://www.w3.org/2000/svg">
<g clip-path="url(#clip0_349_2762)">
<mask id="mask0_349_2762" style="mask-type:luminance" maskUnits="userSpaceOnUse" x="0" y="3" width="191" height="37">
<path d="M191 3H0V40H191V3Z" fill="white"/>
</mask>
<g mask="url(#mask0_349_2762)">
<path d="M49.6328 13.616H52.5763V15.1427C53.0497 14.5617 53.6565 14.1034 54.3451 13.8068C55.1078 13.4793 55.9313 13.3167 56.7614 13.3297C57.9393 13.3112 59.099 13.6219 60.1098 14.2266C61.0933 14.8172 61.9022 15.6582 62.4535 16.6637C63.0191 17.727 63.3148 18.9128 63.3148 20.1169C63.3148 21.3211 63.0191 22.5068 62.4535 23.5702C61.9014 24.5751 61.0928 25.4159 60.1098 26.0072C59.0912 26.6131 57.9238 26.9237 56.7384 26.9041C55.9786 26.911 55.2241 26.7771 54.5132 26.5091C53.8536 26.2611 53.2573 25.87 52.7673 25.364V31.3984H49.6328V13.616ZM58.2799 23.5396C58.8346 23.2013 59.2859 22.7175 59.5845 22.1408C59.9095 21.518 60.0736 20.8239 60.062 20.1217C60.0743 19.423 59.9101 18.7325 59.5845 18.114C59.2805 17.5416 58.8304 17.0597 58.2799 16.7171C57.8632 16.4574 57.3973 16.2865 56.9114 16.2152C56.4255 16.1439 55.93 16.1737 55.4562 16.3027C54.9824 16.4317 54.5403 16.6572 54.1578 16.9649C53.7753 17.2727 53.4606 17.6561 53.2334 18.0911C52.9266 18.7245 52.7673 19.419 52.7673 20.1226C52.7673 20.8262 52.9266 21.5208 53.2334 22.1541C53.529 22.7308 53.9804 23.2133 54.5364 23.5469C55.0925 23.8805 55.7309 24.0518 56.3793 24.0415C57.0478 24.0525 57.7061 23.8767 58.2799 23.5339V23.5396ZM67.5631 26.0014C66.5718 25.4096 65.7614 24.5583 65.2193 23.5396C64.657 22.4826 64.3693 21.3015 64.3827 20.1045C64.3591 18.8914 64.6521 17.6931 65.2327 16.6274C65.7789 15.6348 66.5791 14.805 67.5516 14.2228C68.5455 13.631 69.6839 13.3252 70.8408 13.3392C72.197 13.3392 73.3431 13.63 74.279 14.2114C75.1969 14.7653 75.9438 15.5618 76.4374 16.5129C76.9361 17.4958 77.1891 18.5847 77.1747 19.6866C77.1747 19.9258 77.1633 20.1605 77.1404 20.3908C77.1206 20.5988 77.0764 20.8038 77.0086 21.0015H67.6356C67.6963 21.7393 67.9905 22.4387 68.4758 22.9982C68.961 23.5578 69.612 23.9483 70.3344 24.1134C71.0568 24.2784 71.813 24.2092 72.4934 23.916C73.1738 23.6227 73.743 23.1206 74.1186 22.4824L76.6533 23.7247C76.217 24.6936 75.4803 25.4965 74.5522 26.0148C73.4804 26.6052 72.2761 26.9139 71.0523 26.9119C69.8285 26.9099 68.6252 26.5972 67.5554 26.0034L67.5631 26.0014ZM68.8199 16.6217C68.2279 17.135 67.8346 17.8393 67.7082 18.6121H73.8206C73.7815 17.8676 73.4508 17.1684 72.8999 16.6656C72.3335 16.1571 71.5923 15.887 70.8313 15.9118C70.0979 15.8978 69.3841 16.1477 68.8199 16.616V16.6217ZM78.5118 13.616H81.4534V15.1427C81.9271 14.5612 82.5346 14.1029 83.2241 13.8068C83.9868 13.4793 84.8103 13.3167 85.6404 13.3297C86.8183 13.3115 87.978 13.6221 88.9888 14.2266C89.9724 14.8172 90.7812 15.6582 91.3325 16.6637C91.8981 17.727 92.1939 18.9128 92.1939 20.1169C92.1939 21.3211 91.8981 22.5068 91.3325 23.5702C90.7805 24.5751 89.9718 25.4159 88.9888 26.0072C87.9695 26.6131 86.8015 26.9237 85.6155 26.9041C84.8564 26.9108 84.1025 26.7769 83.3922 26.5091C82.7326 26.2611 82.1363 25.87 81.6463 25.364V31.3984H78.5118V13.616ZM87.1589 23.5396C87.7131 23.2013 88.1638 22.7174 88.4616 22.1408C88.7872 21.5181 88.952 20.8241 88.941 20.1217C88.9527 19.4228 88.7878 18.7323 88.4616 18.114C88.1583 17.5418 87.7088 17.0598 87.1589 16.7171C86.7422 16.4574 86.2763 16.2865 85.7904 16.2152C85.3045 16.1439 84.8091 16.1737 84.3352 16.3027C83.8614 16.4317 83.4193 16.6572 83.0368 16.9649C82.6543 17.2727 82.3396 17.6561 82.1124 18.0911C81.8056 18.7245 81.6463 19.419 81.6463 20.1226C81.6463 20.8262 81.8056 21.5208 82.1124 22.1541C82.4079 22.7306 82.859 23.2128 83.4146 23.5464C83.9703 23.88 84.6083 24.0515 85.2564 24.0415C85.9236 24.0517 86.5804 23.8759 87.1532 23.5339L87.1589 23.5396ZM93.703 13.616H96.6445V15.1427C97.1183 14.5612 97.7258 14.1029 98.4152 13.8068C99.178 13.4793 100.001 13.3167 100.832 13.3297C102.009 13.3115 103.169 13.6221 104.18 14.2266C105.163 14.8179 105.972 15.6587 106.524 16.6637C107.089 17.727 107.385 18.9128 107.385 20.1169C107.385 21.3211 107.089 22.5068 106.524 23.5702C105.971 24.5748 105.163 25.4156 104.18 26.0072C103.161 26.6131 101.993 26.9237 100.807 26.9041C100.047 26.9108 99.2936 26.7769 98.5833 26.5091C97.9238 26.2611 97.3275 25.87 96.8375 25.364V31.3984H93.6972L93.703 13.616ZM102.35 23.5396C102.904 23.2013 103.355 22.7174 103.653 22.1408C103.978 21.5181 104.143 20.8241 104.132 20.1217C104.144 19.4228 103.979 18.7323 103.653 18.114C103.349 17.5418 102.9 17.0598 102.35 16.7171C101.933 16.4574 101.467 16.2865 100.982 16.2152C100.496 16.1439 100 16.1737 99.5264 16.3027C99.0525 16.4317 98.6105 16.6572 98.2279 16.9649C97.8454 17.2727 97.5307 17.6561 97.3035 18.0911C96.9968 18.7245 96.8374 19.419 96.8374 20.1226C96.8374 20.8262 96.9968 21.5208 97.3035 22.1541C97.599 22.7306 98.0501 23.2128 98.6058 23.5464C99.1614 23.88 99.7994 24.0515 100.448 24.0415C101.115 24.0517 101.772 23.8759 102.344 23.5339L102.35 23.5396ZM111.647 26.0014C110.655 25.4097 109.844 24.5585 109.301 23.5396C108.739 22.4826 108.451 21.3015 108.464 20.1045C108.441 18.8914 108.734 17.6931 109.314 16.6274C109.859 15.6356 110.657 14.8058 111.627 14.2228C112.621 13.631 113.76 13.3252 114.917 13.3392C116.273 13.3392 117.419 13.63 118.355 14.2114C119.273 14.7648 120.02 15.5614 120.513 16.5129C121.015 17.497 121.27 18.588 121.256 19.6923C121.256 19.9308 121.243 20.1656 121.22 20.3965C121.2 20.6045 121.156 20.8095 121.088 21.0072H111.712C111.772 21.745 112.066 22.4444 112.552 23.004C113.037 23.5635 113.688 23.9541 114.41 24.1191C115.133 24.2841 115.889 24.215 116.569 23.9217C117.25 23.6285 117.819 23.1263 118.194 22.4881L120.729 23.7305C120.293 24.6993 119.556 25.5022 118.628 26.0205C117.557 26.6109 116.353 26.9196 115.129 26.9176C113.906 26.9156 112.703 26.603 111.633 26.0091L111.647 26.0014ZM112.902 16.6217C112.31 17.1366 111.916 17.842 111.79 18.616H117.902C117.863 17.8715 117.532 17.1722 116.982 16.6694C116.415 16.1609 115.674 15.8908 114.913 15.9156C114.177 15.8987 113.461 16.1473 112.894 16.616L112.902 16.6217ZM122.576 13.6217H125.518V15.4614C125.783 14.789 126.285 14.2366 126.929 13.9079C127.589 13.6106 128.307 13.4639 129.031 13.4786H129.795V16.2457H128.67C128.275 16.2302 127.882 16.2954 127.514 16.4371C127.146 16.5789 126.81 16.7943 126.528 17.0702C125.978 17.6198 125.703 18.3882 125.703 19.3755V26.616H122.571L122.576 13.6217ZM131.959 25.906C130.968 25.2841 130.22 24.3409 129.842 23.2343L132.186 22.1121C132.499 22.7976 132.986 23.3896 133.598 23.8297C134.177 24.2409 134.872 24.4586 135.582 24.4518C136.061 24.4743 136.534 24.3447 136.935 24.0816C137.098 23.9688 137.231 23.8167 137.321 23.6394C137.411 23.462 137.455 23.265 137.448 23.0663C137.453 22.8955 137.416 22.7261 137.339 22.5735C137.261 22.4209 137.148 22.2899 137.007 22.1923C136.685 21.9657 136.324 21.8001 135.941 21.7037L133.808 21.0931C132.707 20.775 131.874 20.289 131.307 19.635C130.747 18.9938 130.445 18.1675 130.459 17.3163C130.441 16.5706 130.654 15.8376 131.069 15.2171C131.495 14.6125 132.08 14.1365 132.759 13.8411C133.682 13.4524 134.683 13.2856 135.683 13.3542C136.682 13.4228 137.651 13.7249 138.512 14.2362C139.439 14.8174 140.146 15.6902 140.522 16.7171L138.128 17.8392C137.928 17.2572 137.536 16.7601 137.017 16.4289C136.488 16.0812 135.868 15.8985 135.235 15.9041C134.791 15.8785 134.352 16.0051 133.991 16.2629C133.846 16.3706 133.73 16.5114 133.651 16.6734C133.572 16.8354 133.532 17.014 133.536 17.1942C133.53 17.3621 133.566 17.5289 133.641 17.6793C133.717 17.8297 133.828 17.9588 133.966 18.0549C134.302 18.2832 134.674 18.4529 135.066 18.5568L137.149 19.177C138.233 19.4811 139.061 19.9595 139.632 20.6121C140.203 21.2566 140.511 22.0927 140.493 22.9537C140.506 23.6907 140.288 24.4132 139.87 25.0205C139.436 25.6346 138.841 26.1183 138.151 26.4194C137.336 26.7701 136.454 26.9413 135.567 26.9213C134.288 26.944 133.031 26.5888 131.953 25.9003L131.959 25.906ZM144.65 25.5473C143.845 24.7343 143.442 23.6032 143.442 22.1541V16.2457H141.194V13.616H141.433C142.071 13.616 142.566 13.4499 142.917 13.114C143.269 12.7782 143.442 12.2934 143.442 11.656V9.73047H146.577V13.616H149.568V16.2457H146.579V21.9709C146.579 22.6236 146.753 23.1255 147.104 23.4766C147.455 23.8278 148.013 24.0015 148.779 24.0015C149.059 23.9996 149.339 23.976 149.616 23.9308V26.6026C149.392 26.635 149.136 26.6675 148.852 26.698C148.59 26.7292 148.327 26.7458 148.063 26.7476C146.59 26.7565 145.45 26.3545 144.644 25.5415L144.65 25.5473ZM153.488 26.0244C152.441 25.4345 151.57 24.5775 150.963 23.541C150.356 22.5045 150.036 21.3257 150.035 20.125C150.034 18.9243 150.352 17.7449 150.956 16.7072C151.561 15.6696 152.431 14.8109 153.476 14.219C154.544 13.6391 155.741 13.3353 156.956 13.3353C158.172 13.3353 159.368 13.6391 160.437 14.219C161.461 14.793 162.317 15.6254 162.92 16.6331C163.525 17.6991 163.843 18.9042 163.841 20.1299C163.839 21.3556 163.517 22.5596 162.908 23.6236C162.306 24.6313 161.45 25.4637 160.425 26.0377C159.361 26.6122 158.17 26.912 156.96 26.9096C155.751 26.9073 154.561 26.603 153.499 26.0244H153.488ZM158.823 23.5434C159.365 23.2012 159.803 22.7176 160.091 22.1446C160.408 21.5192 160.568 20.8263 160.557 20.1255C160.568 19.4283 160.408 18.7389 160.091 18.1179C159.798 17.5492 159.361 17.0674 158.823 16.7209C158.268 16.3725 157.624 16.194 156.97 16.2076C156.307 16.1961 155.655 16.3742 155.09 16.7209C154.542 17.062 154.096 17.5446 153.799 18.1179C153.481 18.7386 153.321 19.4282 153.333 20.1255C153.321 20.8264 153.481 21.5196 153.799 22.1446C154.09 22.7222 154.538 23.2067 155.09 23.5434C155.658 23.8822 156.309 24.056 156.97 24.0453C157.622 24.0542 158.263 23.8767 158.817 23.5339L158.823 23.5434ZM165.332 13.6198H168.276V15.2209C168.617 14.6085 169.138 14.116 169.769 13.8106C170.452 13.4839 171.202 13.3206 171.958 13.3335C172.847 13.3169 173.725 13.5313 174.507 13.9557C175.236 14.3584 175.837 14.9583 176.241 15.6866C176.667 16.4754 176.881 17.3611 176.862 18.2572V26.6198H173.729V18.9938C173.729 18.1338 173.486 17.4525 172.999 16.9499C172.751 16.6982 172.453 16.5013 172.124 16.3718C171.795 16.2423 171.443 16.1831 171.089 16.198C170.735 16.1829 170.381 16.2431 170.052 16.3747C169.723 16.5063 169.425 16.7062 169.179 16.9614C168.692 17.4728 168.45 18.1484 168.45 18.9938V26.616H165.327L165.332 13.6198ZM181.391 25.9995C180.398 25.4084 179.587 24.557 179.045 23.5377C178.483 22.4807 178.195 21.2996 178.208 20.1026C178.185 18.8895 178.478 17.6912 179.058 16.6255C179.603 15.6344 180.401 14.8053 181.371 14.2228C182.365 13.631 183.504 13.3252 184.661 13.3392C186.017 13.3392 187.163 13.63 188.099 14.2114C189.015 14.7659 189.761 15.5623 190.253 16.5129C190.755 17.497 191.01 18.588 190.997 19.6923C190.997 19.9308 190.983 20.1656 190.96 20.3965C190.94 20.6045 190.896 20.8095 190.828 21.0072H181.452C181.512 21.745 181.807 22.4444 182.292 23.004C182.777 23.5635 183.428 23.9541 184.15 24.1191C184.873 24.2841 185.629 24.215 186.309 23.9217C186.99 23.6285 187.559 23.1263 187.935 22.4881L190.469 23.7305C190.033 24.6993 189.296 25.5022 188.368 26.0205C187.297 26.6109 186.093 26.9196 184.869 26.9176C183.646 26.9156 182.443 26.603 181.373 26.0091L181.391 25.9995ZM182.646 16.6198C182.054 17.1347 181.66 17.8401 181.534 18.614H187.646C187.607 17.8696 187.276 17.1703 186.726 16.6675C186.159 16.159 185.418 15.8889 184.657 15.9137C183.922 15.8977 183.206 16.1471 182.64 16.616L182.646 16.6198Z" fill="black"/>
<path fill-rule="evenodd" clip-rule="evenodd" d="M36.0033 10.097C29.2836 6.23826 15.2862 3.20581 7.88455 3.00925C0.482853 2.81268 -0.353779 5.44436 0.0989179 11.4558C0.551615 17.4673 2.29746 26.8318 6.11769 32.8165C9.93792 38.8012 15.8593 41.4043 22.1187 39.2554C28.3782 37.1066 34.9986 30.2173 38.5896 24.4291C42.1807 18.6409 42.7231 13.9558 36.0033 10.097ZM22.8484 26.5875H18.1361V34.4119H13.3379V16.9997H18.1361V21.7936H22.8484V21.7802C23.8109 21.7802 24.734 21.3982 25.4146 20.7182C26.0952 20.0382 26.4776 19.116 26.4776 18.1543C26.4776 17.1926 26.0952 16.2704 25.4146 15.5904C24.734 14.9104 23.8109 14.5283 22.8484 14.5283H7.33826L9.09365 9.73444H22.8465C23.965 9.71763 25.0757 9.92321 26.1139 10.3392C27.1522 10.7553 28.0973 11.3734 28.8942 12.1577C29.6911 12.942 30.324 13.8769 30.756 14.9078C31.1879 15.9388 31.4104 17.0452 31.4104 18.1629C31.4104 19.2805 31.1879 20.387 30.756 21.4179C30.324 22.4489 29.6911 23.3837 28.8942 24.168C28.0973 24.9524 27.1522 25.5705 26.1139 25.9865C25.0757 26.4026 23.965 26.6081 22.8465 26.5913L22.8484 26.5875Z" fill="black"/>
</g>
</g>
<defs>
<clipPath id="clip0_349_2762">
<rect width="191" height="44" fill="white"/>
</clipPath>
</defs>
</svg>
