<svg width="169" height="39" viewBox="0 0 169 39" fill="none" xmlns="http://www.w3.org/2000/svg">
<g clip-path="url(#clip0_384_2803)">
<path d="M109.474 13.9074C106.629 11.3927 103.195 10.1634 99.2253 10.1634C95.3096 10.1634 91.8754 11.3942 89.0295 13.9074C86.1852 16.3675 84.7392 19.7917 84.7392 24.1784C84.7392 28.5652 86.1852 31.9862 89.0295 34.501C91.8738 36.9611 95.3096 38.1919 99.2253 38.1919C103.195 38.1919 106.629 36.9611 109.474 34.501C112.372 31.9862 113.818 28.5636 113.818 24.1784C113.818 19.7933 112.371 16.3675 109.474 13.9074ZM93.862 29.7929C92.3617 28.3499 91.606 26.4763 91.606 24.1769C91.606 21.8774 92.3553 20.0054 93.862 18.6139C94.5606 17.92 95.3962 17.3726 96.318 17.0049C97.2398 16.6372 98.2284 16.457 99.2237 16.4752C100.227 16.4568 101.224 16.6367 102.155 17.0042C103.086 17.3717 103.932 17.9192 104.641 18.6139C106.194 20.0054 106.95 21.8759 106.95 24.1769C106.95 26.4779 106.201 28.3483 104.641 29.7929C103.141 31.1828 101.315 31.8786 99.2237 31.8786C98.2336 31.894 97.2501 31.7177 96.3299 31.3597C95.4097 31.0018 94.571 30.4693 93.862 29.7929ZM123.965 37.4416V0.73788H117.205V37.4416H123.965ZM145.783 10.9122V25.5575C145.783 29.0862 143.87 31.4262 140.229 31.4262C136.525 31.4262 134.663 29.0893 134.663 25.5575V10.9122H127.89V26.6807C127.89 32.7896 131.753 38.1904 140.229 38.1904H140.281C148.704 38.1904 152.561 32.6695 152.561 26.6807V10.9122H145.783ZM77.5455 10.9122L70.7855 28.8834L64.0255 10.9122H56.8366L67.6239 37.4431H73.9566L84.7423 10.9122H77.5455ZM56.8685 23.4281C56.8685 19.578 55.6361 16.4221 53.2206 13.9074C50.8052 11.3927 47.6979 10.1634 43.8874 10.1634C39.9717 10.1634 36.6427 11.5019 33.9068 14.1211C31.222 16.7435 29.8843 20.0585 29.8843 24.1769C29.8843 28.2953 31.2251 31.6664 33.8542 34.2857C36.5391 36.908 39.758 38.1904 43.5669 38.1904C49.4182 38.1904 53.5475 35.6226 56.065 30.434L51.0236 27.5449C49.3639 30.8069 46.9453 32.4121 43.6737 32.4121C39.6512 32.4121 36.8069 29.8444 36.3765 25.7806H56.8669V23.4265L56.8685 23.4281ZM43.669 15.2974C47.4778 15.2974 50.0017 17.4361 50.6442 20.8603H36.3733C37.3952 17.7044 40.1821 15.2974 43.6706 15.2974H43.669ZM29.8827 37.4416L20.8125 21.6107C26.5505 19.525 29.3948 15.8886 29.3948 10.5924C29.4012 4.11996 24.2467 0 16.0391 0H0V37.4416H7.08206V22.2518H13.0927L21.7819 37.4431L29.8827 37.4416ZM16.0391 6.20412C20.2242 6.20412 22.3176 7.8624 22.3176 11.1244C22.3176 14.3863 20.2226 16.0446 16.0391 16.0446H7.08206V6.20412H16.0391ZM164.021 38.1904C159.67 38.1904 156.142 34.671 156.142 30.328V3.744H162.902V10.9216H168.699V16.3769H162.902V29.8943C162.902 31.1672 163.936 32.1984 165.215 32.1984H168.699V38.1904H164.021Z" fill="black"/>
</g>
<defs>
<clipPath id="clip0_384_2803">
<rect width="169" height="39" fill="white"/>
</clipPath>
</defs>
</svg>
