<svg width="163" height="36" viewBox="0 0 163 36" fill="none" xmlns="http://www.w3.org/2000/svg">
<g clip-path="url(#clip0_267_12925)">
<path fill-rule="evenodd" clip-rule="evenodd" d="M111.069 0H117.462V35.6976H111.069V0ZM162.844 15.0396V9.49997H156.233V2.27752H149.84V28.6085C149.84 31.028 150.448 32.8717 151.647 34.0889C152.846 35.307 154.714 35.9245 157.199 35.9245H162.844V30.385H158.714C157.815 30.385 157.171 30.1873 156.798 29.7971C156.455 29.4399 156.233 28.5377 156.233 27.4987V15.0396H162.844ZM67.6413 28.7494L74.2517 9.49922H80.9683L71.4256 35.6979H63.8571L54.3143 9.49922H61.0309L67.6413 28.7494ZM139.419 22.6236C139.419 24.2822 139.167 25.7252 138.673 26.9123C138.181 28.0929 137.478 28.9981 136.581 29.6019C135.683 30.2057 134.581 30.5119 133.303 30.5119C131.475 30.5119 130.095 29.9107 129.204 28.7256C128.302 27.528 127.845 25.7128 127.845 23.3308V9.49993H121.452V24.038C121.452 26.3017 121.734 28.2218 122.293 29.7441C122.851 31.2711 123.619 32.5132 124.574 33.4352C125.528 34.3563 126.642 35.0215 127.885 35.4131C129.122 35.8027 130.453 36 131.84 36C133.839 36 135.493 35.6372 136.756 34.9216C137.907 34.2669 138.873 33.5016 139.628 32.6433L140.2 35.6975H145.812V9.49993H139.419V22.6236ZM101.296 10.8815C99.2813 9.76357 96.8888 9.1972 94.186 9.1972C91.5163 9.1972 89.1327 9.76357 87.1012 10.8811C85.0674 12.0016 83.4694 13.5839 82.3513 15.5841C81.2349 17.5824 80.6689 19.951 80.6689 22.6236C80.6689 25.2636 81.2349 27.6156 82.3513 29.6139C83.4687 31.6134 85.0671 33.1954 87.1012 34.3157C89.1327 35.4333 91.5164 35.9997 94.186 35.9997C96.8887 35.9997 99.2812 35.4333 101.296 34.3153C103.313 33.1956 104.903 31.6137 106.02 29.6139C107.137 27.6145 107.703 25.2624 107.703 22.6236C107.703 19.952 107.137 17.5834 106.02 15.584C104.902 13.5836 103.313 12.0012 101.296 10.8815ZM97.9184 29.6004C96.8884 30.2716 95.6328 30.6122 94.1863 30.6122C92.7731 30.6122 91.5255 30.2717 90.4783 29.6002C89.4292 28.9279 88.6066 27.9791 88.0325 26.7796C87.456 25.579 87.1633 24.181 87.1633 22.6236C87.1633 21.0342 87.4557 19.6281 88.0325 18.4438C88.6062 17.2605 89.4296 16.3114 90.4796 15.6222C91.5265 14.9337 92.7738 14.5847 94.1862 14.5847C95.632 14.5847 96.887 14.9337 97.9172 15.6214C98.9504 16.311 99.7657 17.2605 100.341 18.4442C100.917 19.6313 101.209 21.0375 101.209 22.6238C101.209 24.1775 100.917 25.576 100.341 26.7796C99.7658 27.9793 98.9509 28.9283 97.9184 29.6004ZM6.64427 8.81004H0V35.6979H6.64427V8.81004ZM27.4804 10.3476C27.4804 4.64218 22.838 0.000386235 17.1313 0.000386235H0V5.74247H16.3167C18.8993 5.74247 21.0386 7.77296 21.0859 10.2685C21.1095 11.5181 20.6409 12.6974 19.7664 13.5892C18.8916 14.4812 17.7227 14.9729 16.4751 14.9729H10.1189C9.89322 14.9729 9.70955 15.1563 9.70955 15.3822V20.4856C9.70955 20.5724 9.73634 20.6553 9.78673 20.7252L20.571 35.6981H28.4653L17.6559 20.6842C23.0996 20.4108 27.4804 15.8335 27.4804 10.3476ZM47.9111 10.729C45.9971 9.71241 43.7246 9.1972 41.1565 9.1972C38.5851 9.1972 36.2862 9.76393 34.3232 10.8822C32.357 12.0016 30.8101 13.5843 29.7258 15.5854C28.6426 17.5821 28.0936 19.9672 28.0936 22.6748C28.0936 25.3137 28.651 27.665 29.7512 29.6637C30.8538 31.667 32.4441 33.2408 34.4772 34.3414C36.5065 35.4421 38.9407 36 41.7115 36C43.9096 36 45.8836 35.5879 47.5786 34.7744C49.2739 33.9589 50.6579 32.8484 51.6925 31.4736C52.6752 30.1669 53.3382 28.689 53.6625 27.0813L53.6975 26.9098H47.3395L47.3095 27.0128C46.9594 28.212 46.2802 29.1594 45.2901 29.8296C44.2273 30.5502 42.9219 30.9157 41.4096 30.9157C40.1279 30.9157 38.9703 30.6408 37.9692 30.0988C36.973 29.5599 36.1941 28.7893 35.6546 27.8075C35.113 26.8224 34.8048 25.6369 34.7389 24.2915V24.0811H53.9439L53.9654 23.9636C54.0324 23.5949 54.0754 23.2148 54.0941 22.8327C54.1099 22.4603 54.1191 22.0884 54.1191 21.7129C54.0849 19.1746 53.518 16.9419 52.4344 15.0762C51.3466 13.2084 49.8247 11.7457 47.9111 10.729ZM45.5814 15.6627C46.6738 16.5827 47.3533 17.8901 47.6025 19.5511H34.9597C35.1041 18.4734 35.4617 17.54 36.0234 16.7743C36.6127 15.9712 37.3676 15.3402 38.2675 14.8987C39.1683 14.4559 40.1575 14.2311 41.2068 14.2311C42.9808 14.231 44.4527 14.7128 45.5814 15.6627Z" fill="black"/>
</g>
<defs>
<clipPath id="clip0_267_12925">
<rect width="163" height="36" fill="white"/>
</clipPath>
</defs>
</svg>
