<svg width="201" height="50" viewBox="0 0 201 50" fill="none" xmlns="http://www.w3.org/2000/svg">
<g clip-path="url(#clip0_349_2696)">
<path d="M17.8128 0.69043C26.7846 0.69043 33.9213 7.81889 33.9213 16.7804C33.9213 25.7427 26.7846 32.8704 17.8128 32.8704C8.84015 32.8704 1.70427 25.7427 1.70427 16.7804C1.70427 7.81889 8.84015 0.69043 17.8128 0.69043ZM9.77584 10.0674V12.7312H25.8497V10.0674H9.77584ZM25.8497 23.4935V15.4304H9.77584V23.4927H12.4435V20.4474C12.4435 19.5827 12.6515 19.0981 12.9626 18.752C13.3091 18.3374 13.829 18.095 14.4528 18.095C15.0765 18.095 15.5956 18.3374 15.9422 18.752C16.2541 19.0981 16.462 19.5827 16.462 20.4474V23.4927H19.1643V20.4474C19.1643 19.5827 19.3722 19.0981 19.6841 18.752C20.0307 18.3374 20.5505 18.095 21.1735 18.095C21.7966 18.095 22.3164 18.3374 22.6629 18.752C22.9748 19.0981 23.1828 19.5827 23.1828 20.4474V23.4927L25.8497 23.4935Z" fill="black"/>
<path d="M43.7287 10.7253C43.7287 13.6314 47.8858 14.2199 51.0032 16.0191C52.9431 17.126 54.5365 18.926 54.5365 21.9706C54.5365 26.3299 50.9685 29.0645 47.0194 29.0645C43.0702 29.0645 40.2293 27.1606 39.1211 25.9499L40.6798 22.6622H40.8184C42.1345 23.9429 44.1438 25.1537 46.7421 25.1537C48.4402 25.1537 50.2754 24.1499 50.2754 22.1776C50.2754 19.2368 46.1183 18.6483 43.0009 16.8491C41.061 15.7422 39.4676 13.9429 39.4676 10.8976C39.4676 6.53756 43.0702 3.80371 47.0887 3.80371C50.8646 3.80371 53.4283 5.70756 54.5365 6.74525L52.9778 10.0322H52.8391C51.4884 8.82063 49.791 7.71294 47.4352 7.71294C45.5646 7.71448 43.7287 8.71833 43.7287 10.7253ZM55.1603 14.7045H59.248L61.6724 21.7291H61.811L65.2403 11.9368H68.0119L71.6145 21.8329H71.7532L75.2171 11.9368H79.097L73.1732 28.5453H70.4709L66.6604 18.096H66.5218L62.8499 28.5453H60.0782L55.1603 14.7045ZM80.7958 5.01602H84.9183V8.99525H80.7958V5.01602ZM80.8652 11.936H84.849V28.5445H80.8652V11.936ZM94.1327 29.0645C91.7769 29.0645 89.4904 28.1645 87.8971 26.6429L89.0053 23.666H89.1439C90.3907 24.7729 91.9841 25.6391 93.82 25.6391C95.2055 25.6391 96.1065 25.0506 96.1065 24.0122C96.1065 22.9391 94.9629 22.5237 93.5428 22.0737C91.2563 21.3476 88.2429 20.2399 88.2429 16.7799C88.2429 13.596 90.7373 11.416 94.3052 11.416C96.2451 11.416 98.2197 12.1076 99.8477 13.3883L98.7395 16.3983H98.6009C97.4226 15.4637 95.8986 14.8414 94.6171 14.8414C93.0584 14.8414 92.1573 15.4299 92.1573 16.4676C92.1573 17.5406 93.3002 17.956 94.7211 18.406C97.0075 19.1322 100.021 20.2399 100.021 23.6999C100.022 26.8845 97.5281 29.0645 94.1327 29.0645ZM108.371 29.0645C106.015 29.0645 103.728 28.1645 102.135 26.6429L103.243 23.666H103.382C104.629 24.7729 106.222 25.6391 108.059 25.6391C109.444 25.6391 110.345 25.0506 110.345 24.0122C110.345 22.9391 109.202 22.5237 107.781 22.0737C105.495 21.3476 102.482 20.2399 102.482 16.7799C102.482 13.596 104.976 11.416 108.544 11.416C110.484 11.416 112.458 12.1076 114.086 13.3883L112.978 16.3983H112.84C111.661 15.4637 110.137 14.8414 108.855 14.8414C107.296 14.8414 106.396 15.4299 106.396 16.4676C106.396 17.5406 107.539 17.956 108.959 18.406C111.246 19.1322 114.26 20.2399 114.26 23.6999C114.26 26.8845 111.766 29.0645 108.371 29.0645ZM132.585 11.936V35.8122H128.602V27.3337C127.459 28.4068 125.795 29.0645 124.202 29.0645C119.491 29.0645 116.477 25.4299 116.477 20.4129C116.477 15.7076 119.699 11.4168 124.618 11.4168C126.142 11.4168 127.631 12.0052 128.809 12.9391H128.948V11.9353L132.585 11.936ZM128.602 16.2614C127.77 15.4999 126.454 15.0506 125.241 15.0506C122.401 15.0506 120.565 17.2653 120.565 20.3791C120.565 23.1822 122.158 25.4306 124.999 25.4306C126.35 25.4306 127.632 24.9122 128.602 23.8745L128.602 16.2614ZM139.929 21.8668C139.929 23.3206 140.172 23.9429 140.588 24.4622C141.107 25.0852 141.938 25.4991 142.874 25.4991C143.809 25.4991 144.641 25.0845 145.161 24.4622C145.576 23.9429 145.818 23.3206 145.818 21.8668V11.936H149.802V21.4514C149.802 24.1506 149.075 25.846 147.828 27.0576C146.581 28.3029 144.814 29.0645 142.701 29.0645C140.761 29.0645 139.064 28.3376 137.851 27.126C136.638 25.9153 135.945 24.1845 135.945 21.4514V11.936H139.929V21.8668ZM152.539 20.4137C152.539 15.1199 156.142 11.4176 161.2 11.4176C166.257 11.4176 169.86 15.1199 169.86 20.0683C169.86 25.3622 166.257 29.0653 161.2 29.0653C156.142 29.0653 152.539 25.3614 152.539 20.4137ZM161.2 15.0506C158.532 15.0506 156.627 17.2999 156.627 20.2406C156.627 23.1814 158.533 25.4306 161.2 25.4306C163.867 25.4306 165.773 23.1822 165.773 20.2406C165.773 17.2991 163.867 15.0506 161.2 15.0506ZM183.371 25.2922V28.3714C182.296 28.8206 181.119 29.0637 179.802 29.0637C178.035 29.0637 176.719 28.5437 175.818 27.6437C174.848 26.676 174.363 25.2568 174.363 22.7314V15.3952H170.553V11.9353H174.363V6.39987H178.347V11.936H183.37V15.396H178.347V23.2506C178.347 24.116 178.52 24.6006 178.797 24.9114C179.282 25.4645 180.079 25.6045 180.945 25.6045C181.846 25.6045 182.919 25.396 183.231 25.2922H183.371ZM193.139 29.0645C188.29 29.0645 184.652 25.6391 184.652 20.4129C184.652 15.6383 187.562 11.4168 192.724 11.4168C197.123 11.4168 200.067 14.9114 200.067 19.7214V21.036H188.809C188.913 23.6314 190.714 25.5699 193.347 25.5699C195.045 25.5699 196.604 24.8768 198.024 23.7006H198.162L199.652 26.4683C198.094 28.1299 195.772 29.0645 193.139 29.0645ZM196.084 17.9222C196.05 16.3652 194.837 14.8076 192.794 14.8076C190.784 14.8076 189.434 16.1576 189.018 17.9222H196.084Z" fill="black"/>
<path d="M39.1226 43.0293H43.704V43.9624H41.9228V48.9624H40.9047V43.9624H39.1234L39.1226 43.0293Z" fill="black"/>
<path d="M48.5427 46.377H45.6154V48.9624H44.5974V43.0293H45.6154V45.4454H48.5427V43.0293H49.5607V48.9624H48.5427V46.377Z" fill="black"/>
<path d="M51.0055 43.0293H54.4841V43.9439H52.0236V45.4447H54.357V46.3339H52.0236V48.047H54.4841V48.9616H51.0055V43.0293Z" fill="black"/>
<path d="M58.4409 44.5981C58.4409 45.3105 59.459 45.4543 60.2222 45.8951C60.6974 46.1658 61.0878 46.6074 61.0878 47.3528C61.0878 48.4212 60.2137 49.0897 59.2465 49.0897C58.2792 49.0897 57.5838 48.6243 57.312 48.3281L57.6939 47.5228H57.7278C58.0497 47.8366 58.5426 48.1328 59.1787 48.1328C59.5946 48.1328 60.0443 47.8866 60.0443 47.4043C60.0443 46.6828 59.0262 46.5405 58.2623 46.0989C57.7871 45.8281 57.3967 45.3866 57.3967 44.6412C57.3967 43.5728 58.2792 42.9043 59.2634 42.9043C60.1883 42.9043 60.816 43.3697 61.0878 43.6243L60.7059 44.4297H60.672C60.3408 44.1335 59.9257 43.862 59.3481 43.862C58.8907 43.8604 58.4409 44.1066 58.4409 44.5981Z" fill="black"/>
<path d="M61.4467 43.0293H62.4902L63.975 47.0978H64.0089L65.392 43.0293H66.1128L67.5383 47.0978H67.5722L69.057 43.0293H70.0581L67.8949 48.9624H67.1733L65.7563 44.8516H65.7224L64.3308 48.9624H63.61L61.4467 43.0293Z" fill="black"/>
<path d="M70.7997 43.0293H71.8178V48.9624H70.7997V43.0293Z" fill="black"/>
<path d="M74.008 44.5981C74.008 45.3105 75.0261 45.4543 75.7893 45.8951C76.2645 46.1658 76.6549 46.6074 76.6549 47.3528C76.6549 48.4212 75.7809 49.0897 74.8136 49.0897C73.8463 49.0897 73.1509 48.6243 72.8791 48.3281L73.261 47.5228H73.2949C73.6168 47.8366 74.1097 48.1328 74.7458 48.1328C75.1617 48.1328 75.6114 47.8866 75.6114 47.4043C75.6114 46.6828 74.5933 46.5405 73.8294 46.0989C73.3542 45.8281 72.9638 45.3866 72.9638 44.6412C72.9638 43.5728 73.8463 42.9043 74.8305 42.9043C75.7554 42.9043 76.3831 43.3697 76.6549 43.6243L76.273 44.4297H76.2391C75.9079 44.1335 75.4928 43.862 74.9152 43.862C74.4578 43.8604 74.008 44.1066 74.008 44.5981Z" fill="black"/>
<path d="M78.5063 44.5981C78.5063 45.3105 79.5244 45.4543 80.2876 45.8951C80.7627 46.1658 81.1532 46.6074 81.1532 47.3528C81.1532 48.4212 80.2791 49.0897 79.3118 49.0897C78.3446 49.0897 77.6492 48.6243 77.3773 48.3281L77.7593 47.5228H77.7932C78.1151 47.8366 78.608 48.1328 79.2441 48.1328C79.6599 48.1328 80.1097 47.8866 80.1097 47.4043C80.1097 46.6828 79.0916 46.5405 78.3276 46.0989C77.8525 45.8281 77.462 45.3866 77.462 44.6412C77.462 43.5728 78.3446 42.9043 79.3288 42.9043C80.2537 42.9043 80.8813 43.3697 81.1532 43.6243L80.7712 44.4297H80.7373C80.4062 44.1335 79.9911 43.862 79.4135 43.862C78.956 43.8604 78.5063 44.1066 78.5063 44.5981Z" fill="black"/>
<path d="M84.2621 43.0293H85.2802V48.0293H87.7407V48.9624H84.2621V43.0293Z" fill="black"/>
<path d="M88.6418 43.0293H92.1204V43.9439H89.6599V45.4447H91.9933V46.3339H89.6599V48.047H92.1204V48.9616H88.6418V43.0293Z" fill="black"/>
<path d="M92.5463 48.9624L95.2101 43.0293H95.9317L98.604 48.9624H97.5266L96.8397 47.4362H94.2775L93.5898 48.9624H92.5463ZM95.5328 44.5562L94.6756 46.547H96.4323L95.5667 44.5562H95.5328Z" fill="black"/>
<path d="M99.2601 43.0293H101.169C102.17 43.0293 102.934 43.3524 103.469 43.8854C104.003 44.4116 104.309 45.1478 104.309 45.9531C104.309 46.8008 103.986 47.547 103.452 48.0893C102.917 48.6316 102.17 48.9624 101.169 48.9624H99.2601V43.0293ZM100.278 43.9616V48.0285H101.059C101.857 48.0285 102.383 47.7908 102.747 47.4024C103.069 47.0555 103.265 46.5808 103.265 46.0385C103.265 45.4539 103.078 44.9616 102.747 44.5978C102.382 44.1993 101.856 43.9624 101.059 43.9624L100.278 43.9616Z" fill="black"/>
<path d="M105.389 43.0293H108.867V43.9439H106.407V45.4447H108.74V46.3339H106.407V48.047H108.867V48.9616H105.389V43.0293Z" fill="black"/>
<path d="M112.398 46.4785L114.697 48.9624H113.366L111.126 46.4785H111.092V48.9624H110.074V43.0293H111.957C112.628 43.0293 113.086 43.2155 113.399 43.5293C113.714 43.8431 113.892 44.2747 113.892 44.7493C113.892 45.6901 113.247 46.3947 112.399 46.4439V46.4785H112.398ZM111.092 43.9439V45.6308H111.83C112.288 45.6308 112.525 45.5124 112.679 45.3262C112.789 45.1908 112.849 45.0285 112.849 44.8347C112.849 44.6047 112.781 44.4108 112.671 44.2578C112.518 44.0624 112.289 43.9439 111.831 43.9439H111.092Z" fill="black"/>
<path d="M117.153 43.0293H118.171V48.9624H117.153V43.0293Z" fill="black"/>
<path d="M125.002 48.9624H124.323L120.666 44.8431H120.632V48.9624H119.614V43.0293H120.293L123.95 47.1485H123.984V43.0293H125.002V48.9624Z" fill="black"/>
<path d="M131.106 42.9023C132.854 42.9023 134.118 44.2062 134.118 45.9523C134.118 47.7839 132.853 49.0877 131.106 49.0877C129.359 49.0877 128.094 47.7839 128.094 46.0377C128.094 44.207 129.359 42.9023 131.106 42.9023ZM131.106 43.8508C129.952 43.8508 129.138 44.7416 129.138 45.9962C129.138 47.2493 129.952 48.14 131.106 48.14C132.26 48.14 133.074 47.2493 133.074 45.9962C133.074 44.7416 132.26 43.8508 131.106 43.8508Z" fill="black"/>
<path d="M140.594 48.9624H139.914L136.258 44.8431H136.224V48.9624H135.206V43.0293H135.884L139.542 47.1485H139.576V43.0293H140.594V48.9624Z" fill="black"/>
<path d="M142.039 43.0293H143.057V48.0293H145.517V48.9624H142.038L142.039 43.0293Z" fill="black"/>
<path d="M146.419 43.0293H147.437V48.9624H146.419V43.0293Z" fill="black"/>
<path d="M154.268 48.9624H153.589L149.932 44.8431H149.898V48.9624H148.88V43.0293H149.559L153.216 47.1485H153.25V43.0293H154.268V48.9624Z" fill="black"/>
<path d="M155.713 43.0293H159.192V43.9439H156.732V45.4447H159.065V46.3339H156.732V48.047H159.192V48.9616H155.713V43.0293Z" fill="black"/>
<path d="M165.659 45.8085C166.118 46.0131 166.516 46.5624 166.516 47.2239C166.516 47.6985 166.312 48.1224 166.007 48.4362C165.685 48.767 165.244 48.9624 164.581 48.9624H162.401V43.0293H164.437C165.065 43.0293 165.481 43.2078 165.778 43.5039C166.075 43.8016 166.262 44.2162 166.262 44.6562C166.262 45.1401 166.016 45.5639 165.659 45.7755V45.8085ZM163.42 43.9439V45.4447H164.294C164.752 45.4447 164.989 45.317 165.117 45.1139C165.184 45.0039 165.218 44.8762 165.218 44.7416C165.218 44.5301 165.159 44.3601 165.057 44.2247C164.921 44.0462 164.718 43.9439 164.294 43.9439H163.42ZM163.42 46.3339V48.047H164.447C164.912 48.047 165.15 47.9193 165.303 47.7239C165.405 47.5885 165.473 47.4193 165.473 47.2324C165.473 47.037 165.422 46.8685 165.337 46.7247C165.192 46.4785 164.93 46.3339 164.447 46.3339H163.42Z" fill="black"/>
<path d="M166.757 48.9624L169.421 43.0293H170.142L172.815 48.9624H171.738L171.05 47.4362H168.488L167.801 48.9624H166.757ZM169.743 44.5562L168.887 46.547H170.643L169.777 44.5562H169.743Z" fill="black"/>
<path d="M178.858 48.9624H178.179L174.523 44.8431H174.489V48.9624H173.471V43.0293H174.149L177.806 47.1485H177.84V43.0293H178.858V48.9624Z" fill="black"/>
<path d="M181.355 45.9616L183.747 43.0293H184.926L182.44 46.0808L185.011 48.9624H183.705L181.354 46.3093H181.32V48.9624H180.302V43.0293H181.32V45.9616H181.355Z" fill="black"/>
<path d="M185.668 43.0293H186.686V48.9624H185.668V43.0293Z" fill="black"/>
<path d="M193.517 48.9624H192.838L189.181 44.8431H189.147V48.9624H188.129V43.0293H188.808L192.465 47.1485H192.499V43.0293H193.517V48.9624Z" fill="black"/>
<path d="M199.052 47.691V45.8264H200.028V48.0218C199.646 48.4964 198.857 49.0887 197.686 49.0887C195.829 49.0887 194.598 47.7849 194.598 46.0387C194.598 44.1995 195.896 42.9033 197.652 42.9033C198.815 42.9033 199.544 43.4364 199.943 43.8602L199.46 44.6141H199.426C199.018 44.2156 198.433 43.851 197.686 43.851C196.439 43.851 195.642 44.8002 195.642 45.9964C195.642 47.2164 196.389 48.1572 197.686 48.1572C198.262 48.1572 198.755 47.9541 199.052 47.691Z" fill="black"/>
</g>
<defs>
<clipPath id="clip0_349_2696">
<rect width="201" height="50" fill="white"/>
</clipPath>
</defs>
</svg>
