<svg width="201" height="50" viewBox="0 0 201 50" fill="none" xmlns="http://www.w3.org/2000/svg">
<path d="M17.8127 0.689941C26.7846 0.689941 33.9212 7.8184 33.9212 16.7799C33.9212 25.7422 26.7846 32.8699 17.8127 32.8699C8.84014 32.8699 1.70425 25.7422 1.70425 16.7799C1.70425 7.8184 8.84014 0.689941 17.8127 0.689941ZM9.77583 10.0669V12.7307H25.8497V10.0669H9.77583ZM25.8497 23.493V15.4299H9.77583V23.4923H12.4435V20.4469C12.4435 19.5822 12.6514 19.0976 12.9626 18.7515C13.3091 18.3369 13.8289 18.0946 14.4527 18.0946C15.0765 18.0946 15.5956 18.3369 15.9421 18.7515C16.254 19.0976 16.462 19.5822 16.462 20.4469V23.4923H19.1643V20.4469C19.1643 19.5822 19.3722 19.0976 19.6841 18.7515C20.0307 18.3369 20.5505 18.0946 21.1735 18.0946C21.7966 18.0946 22.3164 18.3369 22.6629 18.7515C22.9748 19.0976 23.1828 19.5822 23.1828 20.4469V23.4923L25.8497 23.493Z" fill="#FA5B35"/>
<path d="M43.7287 10.7245C43.7287 13.6307 47.8857 14.2191 51.0032 16.0184C52.9431 17.1253 54.5365 18.9253 54.5365 21.9699C54.5365 26.3291 50.9685 29.0637 47.0194 29.0637C43.0702 29.0637 40.2293 27.1599 39.1211 25.9491L40.6798 22.6614H40.8184C42.1345 23.9422 44.1438 25.153 46.7421 25.153C48.4402 25.153 50.2754 24.1491 50.2754 22.1768C50.2754 19.2361 46.1183 18.6476 43.0009 16.8484C41.061 15.7414 39.4676 13.9422 39.4676 10.8968C39.4676 6.53682 43.0702 3.80298 47.0887 3.80298C50.8645 3.80298 53.4283 5.70682 54.5365 6.74452L52.9777 10.0314H52.8391C51.4883 8.8199 49.791 7.71221 47.4352 7.71221C45.5646 7.71375 43.7287 8.71759 43.7287 10.7245ZM55.1602 14.7037H59.248L61.6723 21.7284H61.811L65.2403 11.9361H68.0119L71.6145 21.8322H71.7531L75.2171 11.9361H79.097L73.1732 28.5445H70.4709L66.6604 18.0953H66.5217L62.8498 28.5445H60.0782L55.1602 14.7037ZM80.7958 5.01529H84.9183V8.99452H80.7958V5.01529ZM80.8651 11.9353H84.8489V28.5437H80.8651V11.9353ZM94.1327 29.0637C91.7769 29.0637 89.4904 28.1637 87.8971 26.6422L89.0053 23.6653H89.1439C90.3907 24.7722 91.9841 25.6384 93.82 25.6384C95.2054 25.6384 96.1065 25.0499 96.1065 24.0114C96.1065 22.9384 94.9629 22.523 93.5428 22.073C91.2563 21.3468 88.2428 20.2391 88.2428 16.7791C88.2428 13.5953 90.7372 11.4153 94.3052 11.4153C96.2451 11.4153 98.2197 12.1068 99.8477 13.3876L98.7395 16.3976H98.6009C97.4226 15.463 95.8986 14.8407 94.6171 14.8407C93.0584 14.8407 92.1573 15.4291 92.1573 16.4668C92.1573 17.5399 93.3002 17.9553 94.7211 18.4053C97.0075 19.1314 100.021 20.2391 100.021 23.6991C100.022 26.8837 97.5281 29.0637 94.1327 29.0637ZM108.371 29.0637C106.015 29.0637 103.728 28.1637 102.135 26.6422L103.243 23.6653H103.382C104.629 24.7722 106.222 25.6384 108.059 25.6384C109.444 25.6384 110.345 25.0499 110.345 24.0114C110.345 22.9384 109.202 22.523 107.781 22.073C105.495 21.3468 102.481 20.2391 102.481 16.7791C102.481 13.5953 104.976 11.4153 108.544 11.4153C110.484 11.4153 112.458 12.1068 114.086 13.3876L112.978 16.3976H112.84C111.661 15.463 110.137 14.8407 108.855 14.8407C107.296 14.8407 106.396 15.4291 106.396 16.4668C106.396 17.5399 107.539 17.9553 108.959 18.4053C111.246 19.1314 114.26 20.2391 114.26 23.6991C114.26 26.8837 111.766 29.0637 108.371 29.0637ZM132.585 11.9353V35.8114H128.601V27.333C127.459 28.4061 125.795 29.0637 124.202 29.0637C119.491 29.0637 116.477 25.4291 116.477 20.4122C116.477 15.7068 119.699 11.4161 124.618 11.4161C126.142 11.4161 127.631 12.0045 128.809 12.9384H128.948V11.9345L132.585 11.9353ZM128.601 16.2607C127.77 15.4991 126.454 15.0499 125.241 15.0499C122.401 15.0499 120.565 17.2645 120.565 20.3784C120.565 23.1814 122.158 25.4299 124.999 25.4299C126.35 25.4299 127.632 24.9114 128.602 23.8737L128.601 16.2607ZM139.929 21.8661C139.929 23.3199 140.172 23.9422 140.588 24.4614C141.107 25.0845 141.938 25.4984 142.874 25.4984C143.809 25.4984 144.641 25.0837 145.16 24.4614C145.576 23.9422 145.818 23.3199 145.818 21.8661V11.9353H149.802V21.4507C149.802 24.1499 149.075 25.8453 147.828 27.0568C146.581 28.3022 144.814 29.0637 142.701 29.0637C140.761 29.0637 139.063 28.3368 137.851 27.1253C136.638 25.9145 135.945 24.1837 135.945 21.4507V11.9353H139.929V21.8661ZM152.539 20.413C152.539 15.1191 156.142 11.4168 161.2 11.4168C166.257 11.4168 169.86 15.1191 169.86 20.0676C169.86 25.3614 166.257 29.0645 161.2 29.0645C156.142 29.0645 152.539 25.3607 152.539 20.413ZM161.2 15.0499C158.532 15.0499 156.627 17.2991 156.627 20.2399C156.627 23.1807 158.533 25.4299 161.2 25.4299C163.867 25.4299 165.773 23.1814 165.773 20.2399C165.773 17.2984 163.867 15.0499 161.2 15.0499ZM183.371 25.2914V28.3707C182.296 28.8199 181.119 29.063 179.802 29.063C178.035 29.063 176.719 28.543 175.818 27.643C174.848 26.6753 174.362 25.2561 174.362 22.7307V15.3945H170.553V11.9345H174.362V6.39913H178.347V11.9353H183.37V15.3953H178.347V23.2499C178.347 24.1153 178.52 24.5999 178.797 24.9107C179.282 25.4637 180.079 25.6037 180.945 25.6037C181.846 25.6037 182.919 25.3953 183.231 25.2914H183.371ZM193.139 29.0637C188.29 29.0637 184.652 25.6384 184.652 20.4122C184.652 15.6376 187.561 11.4161 192.724 11.4161C197.123 11.4161 200.067 14.9107 200.067 19.7207V21.0353H188.809C188.913 23.6307 190.714 25.5691 193.347 25.5691C195.045 25.5691 196.604 24.8761 198.023 23.6999H198.162L199.652 26.4676C198.094 28.1291 195.772 29.0637 193.139 29.0637ZM196.084 17.9214C196.05 16.3645 194.837 14.8068 192.794 14.8068C190.784 14.8068 189.434 16.1568 189.018 17.9214H196.084Z" fill="#323232"/>
<path d="M39.1226 43.0291H43.704V43.9621H41.9227V48.9621H40.9046V43.9621H39.1234L39.1226 43.0291Z" fill="#323232"/>
<path d="M48.5427 46.376H45.6154V48.9614H44.5974V43.0283H45.6154V45.4445H48.5427V43.0283H49.5607V48.9614H48.5427V46.376Z" fill="#323232"/>
<path d="M51.0055 43.0291H54.4841V43.9437H52.0236V45.4444H54.357V46.3337H52.0236V48.0467H54.4841V48.9614H51.0055V43.0291Z" fill="#323232"/>
<path d="M58.4409 44.5977C58.4409 45.31 59.459 45.4538 60.2222 45.8946C60.6974 46.1653 61.0878 46.6069 61.0878 47.3523C61.0878 48.4207 60.2137 49.0892 59.2465 49.0892C58.2792 49.0892 57.5838 48.6238 57.312 48.3277L57.6939 47.5223H57.7278C58.0497 47.8361 58.5426 48.1323 59.1787 48.1323C59.5946 48.1323 60.0443 47.8861 60.0443 47.4038C60.0443 46.6823 59.0262 46.54 58.2623 46.0984C57.7871 45.8277 57.3967 45.3861 57.3967 44.6407C57.3967 43.5723 58.2792 42.9038 59.2634 42.9038C60.1883 42.9038 60.816 43.3692 61.0878 43.6238L60.7059 44.4292H60.672C60.3408 44.133 59.9257 43.8615 59.3481 43.8615C58.8907 43.86 58.4409 44.1061 58.4409 44.5977Z" fill="#323232"/>
<path d="M61.4467 43.0291H62.4902L63.975 47.0975H64.0089L65.392 43.0291H66.1128L67.5383 47.0975H67.5722L69.057 43.0291H70.0581L67.8949 48.9621H67.1733L65.7562 44.8514H65.7224L64.3308 48.9621H63.6099L61.4467 43.0291Z" fill="#323232"/>
<path d="M70.7997 43.0291H71.8178V48.9621H70.7997V43.0291Z" fill="#323232"/>
<path d="M74.008 44.5977C74.008 45.31 75.0261 45.4538 75.7893 45.8946C76.2645 46.1653 76.6549 46.6069 76.6549 47.3523C76.6549 48.4207 75.7809 49.0892 74.8136 49.0892C73.8463 49.0892 73.1509 48.6238 72.8791 48.3277L73.261 47.5223H73.2949C73.6168 47.8361 74.1097 48.1323 74.7458 48.1323C75.1617 48.1323 75.6114 47.8861 75.6114 47.4038C75.6114 46.6823 74.5933 46.54 73.8294 46.0984C73.3542 45.8277 72.9638 45.3861 72.9638 44.6407C72.9638 43.5723 73.8463 42.9038 74.8305 42.9038C75.7554 42.9038 76.3831 43.3692 76.6549 43.6238L76.273 44.4292H76.2391C75.9079 44.133 75.4928 43.8615 74.9152 43.8615C74.4578 43.86 74.008 44.1061 74.008 44.5977Z" fill="#323232"/>
<path d="M78.5063 44.5977C78.5063 45.31 79.5244 45.4538 80.2876 45.8946C80.7627 46.1653 81.1532 46.6069 81.1532 47.3523C81.1532 48.4207 80.2791 49.0892 79.3118 49.0892C78.3446 49.0892 77.6491 48.6238 77.3773 48.3277L77.7593 47.5223H77.7932C78.1151 47.8361 78.6079 48.1323 79.2441 48.1323C79.6599 48.1323 80.1097 47.8861 80.1097 47.4038C80.1097 46.6823 79.0916 46.54 78.3276 46.0984C77.8525 45.8277 77.462 45.3861 77.462 44.6407C77.462 43.5723 78.3446 42.9038 79.3288 42.9038C80.2537 42.9038 80.8813 43.3692 81.1532 43.6238L80.7712 44.4292H80.7373C80.4062 44.133 79.9911 43.8615 79.4135 43.8615C78.956 43.86 78.5063 44.1061 78.5063 44.5977Z" fill="#323232"/>
<path d="M84.2621 43.0291H85.2802V48.0291H87.7407V48.9621H84.2621V43.0291Z" fill="#323232"/>
<path d="M88.6418 43.0291H92.1204V43.9437H89.6599V45.4444H91.9933V46.3337H89.6599V48.0467H92.1204V48.9614H88.6418V43.0291Z" fill="#323232"/>
<path d="M92.5462 48.9614L95.2101 43.0283H95.9317L98.604 48.9614H97.5266L96.8396 47.4352H94.2775L93.5897 48.9614H92.5462ZM95.5327 44.5552L94.6756 46.546H96.4322L95.5666 44.5552H95.5327Z" fill="#323232"/>
<path d="M99.2601 43.0291H101.169C102.17 43.0291 102.934 43.3521 103.469 43.8852C104.003 44.4114 104.309 45.1475 104.309 45.9529C104.309 46.8006 103.986 47.5467 103.452 48.0891C102.917 48.6314 102.17 48.9621 101.169 48.9621H99.2601V43.0291ZM100.278 43.9614V48.0283H101.059C101.857 48.0283 102.383 47.7906 102.747 47.4021C103.069 47.0552 103.265 46.5806 103.265 46.0383C103.265 45.4537 103.078 44.9614 102.747 44.5975C102.382 44.1991 101.856 43.9621 101.059 43.9621L100.278 43.9614Z" fill="#323232"/>
<path d="M105.389 43.0291H108.867V43.9437H106.407V45.4444H108.74V46.3337H106.407V48.0467H108.867V48.9614H105.389V43.0291Z" fill="#323232"/>
<path d="M112.398 46.4783L114.697 48.9621H113.366L111.126 46.4783H111.092V48.9621H110.074V43.0291H111.957C112.628 43.0291 113.086 43.2152 113.399 43.5291C113.714 43.8429 113.892 44.2744 113.892 44.7491C113.892 45.6898 113.247 46.3944 112.399 46.4437V46.4783H112.398ZM111.092 43.9437V45.6306H111.83C112.288 45.6306 112.525 45.5121 112.679 45.326C112.789 45.1906 112.849 45.0283 112.849 44.8344C112.849 44.6044 112.781 44.4106 112.671 44.2575C112.518 44.0621 112.289 43.9437 111.831 43.9437H111.092Z" fill="#323232"/>
<path d="M117.153 43.0291H118.171V48.9621H117.153V43.0291Z" fill="#323232"/>
<path d="M125.002 48.9614H124.323L120.666 44.8422H120.632V48.9614H119.614V43.0283H120.293L123.95 47.1476H123.984V43.0283H125.002V48.9614Z" fill="#323232"/>
<path d="M131.106 42.9023C132.854 42.9023 134.118 44.2062 134.118 45.9523C134.118 47.7839 132.853 49.0877 131.106 49.0877C129.359 49.0877 128.094 47.7839 128.094 46.0377C128.094 44.207 129.359 42.9023 131.106 42.9023ZM131.106 43.8508C129.952 43.8508 129.137 44.7416 129.137 45.9962C129.137 47.2493 129.952 48.14 131.106 48.14C132.26 48.14 133.074 47.2493 133.074 45.9962C133.074 44.7416 132.26 43.8508 131.106 43.8508Z" fill="#323232"/>
<path d="M140.594 48.9614H139.914L136.258 44.8422H136.224V48.9614H135.206V43.0283H135.884L139.542 47.1476H139.576V43.0283H140.594V48.9614Z" fill="#323232"/>
<path d="M142.039 43.0291H143.057V48.0291H145.517V48.9621H142.038L142.039 43.0291Z" fill="#323232"/>
<path d="M146.419 43.0291H147.437V48.9621H146.419V43.0291Z" fill="#323232"/>
<path d="M154.268 48.9614H153.589L149.932 44.8422H149.898V48.9614H148.88V43.0283H149.559L153.216 47.1476H153.25V43.0283H154.268V48.9614Z" fill="#323232"/>
<path d="M155.713 43.0291H159.192V43.9437H156.732V45.4444H159.065V46.3337H156.732V48.0467H159.192V48.9614H155.713V43.0291Z" fill="#323232"/>
<path d="M165.659 45.8083C166.118 46.0129 166.516 46.5621 166.516 47.2237C166.516 47.6983 166.312 48.1221 166.007 48.436C165.685 48.7667 165.244 48.9621 164.581 48.9621H162.401V43.0291H164.437C165.065 43.0291 165.481 43.2075 165.778 43.5037C166.075 43.8014 166.262 44.216 166.262 44.656C166.262 45.1398 166.016 45.5637 165.659 45.7752V45.8083ZM163.42 43.9437V45.4444H164.294C164.752 45.4444 164.989 45.3167 165.116 45.1137C165.184 45.0037 165.218 44.876 165.218 44.7414C165.218 44.5298 165.159 44.3598 165.057 44.2244C164.921 44.046 164.718 43.9437 164.294 43.9437H163.42ZM163.42 46.3337V48.0467H164.446C164.912 48.0467 165.15 47.9191 165.303 47.7237C165.405 47.5883 165.473 47.4191 165.473 47.2321C165.473 47.0367 165.422 46.8683 165.337 46.7244C165.192 46.4783 164.93 46.3337 164.446 46.3337H163.42Z" fill="#323232"/>
<path d="M166.757 48.9614L169.421 43.0283H170.142L172.815 48.9614H171.738L171.05 47.4352H168.488L167.801 48.9614H166.757ZM169.743 44.5552L168.887 46.546H170.643L169.777 44.5552H169.743Z" fill="#323232"/>
<path d="M178.858 48.9614H178.179L174.523 44.8422H174.489V48.9614H173.471V43.0283H174.149L177.806 47.1476H177.84V43.0283H178.858V48.9614Z" fill="#323232"/>
<path d="M181.355 45.9614L183.747 43.0291H184.926L182.44 46.0806L185.011 48.9621H183.705L181.354 46.3091H181.32V48.9621H180.302V43.0291H181.32V45.9614H181.355Z" fill="#323232"/>
<path d="M185.668 43.0291H186.686V48.9621H185.668V43.0291Z" fill="#323232"/>
<path d="M193.517 48.9614H192.838L189.181 44.8422H189.147V48.9614H188.129V43.0283H188.808L192.465 47.1476H192.499V43.0283H193.517V48.9614Z" fill="#323232"/>
<path d="M199.052 47.6908V45.8262H200.028V48.0215C199.646 48.4962 198.857 49.0885 197.686 49.0885C195.829 49.0885 194.598 47.7846 194.598 46.0385C194.598 44.1992 195.896 42.9031 197.652 42.9031C198.815 42.9031 199.544 43.4362 199.943 43.86L199.46 44.6138H199.426C199.018 44.2154 198.433 43.8508 197.686 43.8508C196.439 43.8508 195.642 44.8 195.642 45.9962C195.642 47.2162 196.389 48.1569 197.686 48.1569C198.262 48.1569 198.755 47.9538 199.052 47.6908Z" fill="#323232"/>
</svg>
