<svg width="121" height="50" viewBox="0 0 121 50" fill="none" xmlns="http://www.w3.org/2000/svg">
<g clip-path="url(#clip0_267_12921)">
<path d="M102.726 45.7111C102.34 44.5377 102.21 43.5945 102.21 41.0162C102.21 38.4379 102.338 37.4929 102.726 36.3196C103.654 33.4863 105.924 32.0314 109.096 32.0314C112.19 32.0314 114.41 33.4863 115.388 35.9862C115.466 36.1664 115.439 36.2697 115.26 36.3447L111.83 37.8246C111.649 37.9015 111.546 37.8498 111.468 37.6716C110.979 36.6516 110.36 36.0382 109.172 36.0382C108.065 36.0382 107.368 36.5749 107.057 37.5449C106.877 38.0797 106.799 38.6165 106.799 41.0164C106.799 43.4164 106.877 43.9497 107.057 44.4864C107.366 45.4564 108.063 45.993 109.172 45.993C110.36 45.993 110.977 45.3795 111.468 44.3597C111.545 44.1796 111.651 44.1298 111.83 44.2067L115.26 45.6866C115.441 45.7635 115.466 45.8649 115.388 46.0451C114.407 48.545 112.191 50 109.096 50C105.924 50 103.654 48.5443 102.726 45.7111ZM94.9535 49.4377V32.593C94.9535 32.4399 95.0565 32.3366 95.2113 32.3366H99.2363C99.3893 32.3366 99.4925 32.4399 99.4925 32.593V49.436C99.4925 49.589 99.3894 49.693 99.2347 49.693H95.2096C95.0549 49.693 94.9535 49.5926 94.9535 49.4377ZM80.3684 49.4377V32.593C80.3684 32.4399 80.4714 32.3366 80.6262 32.3366H84.6513C84.806 32.3366 84.909 32.4399 84.909 32.593V45.5578C84.909 45.6592 84.9588 45.7108 85.0638 45.7108H92.4919C92.6466 45.7108 92.7497 45.8122 92.7497 45.9659V49.4358C92.7497 49.5889 92.6466 49.6928 92.4919 49.6928H80.6262C80.4715 49.6928 80.3684 49.5926 80.3684 49.4377ZM68.7788 46.1444C68.7788 46.2477 68.8286 46.2975 68.9335 46.2975H70.996C72.4148 46.2975 73.1366 45.6091 73.1366 44.3325C73.1366 43.1325 72.4148 42.3925 70.996 42.3925H68.9335C68.8288 42.3925 68.7788 42.4429 68.7788 42.5456V46.1444ZM68.9335 39.3045H70.7631C72.132 39.3045 72.8538 38.7162 72.8538 37.5179C72.8538 36.2929 72.1569 35.7312 70.7648 35.7312H68.9335C68.8288 35.7312 68.7788 35.7817 68.7788 35.8843V39.151C68.7788 39.2542 68.8286 39.3045 68.9335 39.3045ZM64.2382 49.4377V32.593C64.2382 32.4399 64.3412 32.3366 64.496 32.3366H71.6413C75.5616 32.3366 77.3662 34.1999 77.3662 36.9565C77.3662 38.7431 76.5396 39.9948 75.2256 40.6831V40.7335C76.5163 41.2204 77.6756 42.6734 77.6756 44.6901C77.6756 48.085 75.2506 49.6933 71.5615 49.6933H64.4943C64.3413 49.6933 64.2381 49.5926 64.2382 49.4377ZM54.1938 49.9995C49.9392 49.9995 47.2048 47.5996 47.2048 42.983V32.595C47.2048 32.4419 47.3078 32.3379 47.4626 32.3379H51.4877C51.6407 32.3379 51.7438 32.4412 51.7438 32.595V43.2614C51.7438 44.998 52.7252 45.9947 54.1938 45.9947C55.7157 45.9947 56.6188 44.998 56.6188 43.2614V32.595C56.6188 32.4419 56.7236 32.3379 56.8783 32.3379H60.9017C61.0564 32.3379 61.1595 32.4412 61.1595 32.595V42.9814C61.1595 47.603 58.3735 49.9995 54.1938 49.9995ZM38.1933 40.0981C39.612 40.0981 40.4121 39.3064 40.4121 38.1065C40.4121 36.9065 39.612 36.1415 38.1933 36.1415H35.8731C35.7683 36.1415 35.7184 36.1919 35.7184 36.2946V39.9445C35.7184 40.0459 35.768 40.0976 35.8731 40.0976L38.1933 40.0981ZM35.4589 49.6946H31.4355C31.2825 49.6946 31.1793 49.5913 31.1793 49.4382V32.5935C31.1793 32.4404 31.2824 32.3371 31.4371 32.3371H38.4527C42.7339 32.3371 44.9527 34.7371 44.9527 38.1053C44.9527 41.4219 42.7073 43.8985 38.4511 43.8985H35.8731C35.7683 43.8985 35.7184 43.9489 35.7184 44.0516V49.4365C35.7184 49.5914 35.6153 49.6935 35.4605 49.6935L35.4589 49.6946ZM16.5178 49.4394V32.5931C16.5178 32.44 16.6209 32.3367 16.7756 32.3367H28.2537C28.4084 32.3367 28.5115 32.44 28.5115 32.5931V35.8847C28.5115 36.0384 28.4084 36.1398 28.2537 36.1398H21.2131C21.1084 36.1398 21.0584 36.1902 21.0584 36.2929V38.9211C21.0584 39.0244 21.1081 39.0742 21.2131 39.0742H26.9896C27.1443 39.0742 27.2491 39.1774 27.2491 39.3305V42.5455C27.2491 42.6973 27.1443 42.8006 26.9896 42.8006H21.2131C21.1084 42.8006 21.0584 42.851 21.0584 42.9537V45.7369C21.0584 45.8371 21.1081 45.8887 21.2131 45.8887H28.2537C28.4084 45.8887 28.5115 45.992 28.5115 46.1438V49.4354C28.5115 49.5885 28.4084 49.6924 28.2537 49.6924H16.7756C16.6209 49.6924 16.5178 49.5922 16.5178 49.4373L16.5178 49.4394ZM7.11874 39.8163C8.40777 39.8163 9.18117 39.0996 9.18117 37.978C9.18117 36.8547 8.40777 36.1397 7.11874 36.1397H4.69373C4.59063 36.1397 4.53902 36.1901 4.53902 36.2928V39.6594C4.53902 39.7626 4.58869 39.8143 4.69373 39.8143H7.11874V39.8163ZM13.8765 49.6928H9.41403C9.18119 49.6928 9.10468 49.6159 9.02648 49.4358L6.37028 43.5159H4.69371C4.59061 43.5159 4.53901 43.5663 4.53901 43.669V49.4355C4.53901 49.5886 4.43591 49.6925 4.2812 49.6925H0.257798C0.103091 49.6925 0 49.5893 0 49.4355V32.5926C0 32.4395 0.103091 32.3362 0.257798 32.3362H7.40313C11.4282 32.3362 13.7235 34.6594 13.7235 37.926C13.7235 40.096 12.6906 41.856 10.8328 42.776L14.0578 49.3858C14.1327 49.5389 14.0562 49.6928 13.8765 49.6928ZM66.7946 28.6066V11.7619C66.7946 11.6088 66.8976 11.5055 67.0524 11.5055H78.5305C78.6852 11.5055 78.7883 11.6088 78.7883 11.7619V15.0535C78.7883 15.2066 78.6852 15.3086 78.5305 15.3086H71.4899C71.3851 15.3086 71.3352 15.3591 71.3352 15.4617V18.09C71.3352 18.1933 71.3849 18.2431 71.4899 18.2431H77.2664C77.4211 18.2431 77.5259 18.3463 77.5259 18.5V21.7166C77.5259 21.8685 77.4212 21.9717 77.2664 21.9717H71.4899C71.3851 21.9717 71.3352 22.0222 71.3352 22.1248V24.9081C71.3352 25.0083 71.3849 25.058 71.4899 25.058H78.5305C78.6852 25.058 78.7883 25.1632 78.7883 25.315V28.6065C78.7883 28.7596 78.6852 28.8636 78.5305 28.8636H67.0524C66.8977 28.862 66.7946 28.7603 66.7946 28.6066ZM54.7643 24.7283C54.7643 24.8297 54.8158 24.8801 54.919 24.8801H56.2862C57.8862 24.8801 58.7628 24.4468 59.1752 23.2218C59.33 22.7103 59.4331 22.1251 59.4331 20.1852C59.4331 18.2452 59.33 17.657 59.1752 17.1469C58.7627 15.9203 57.8862 15.4886 56.2862 15.4886H54.919C54.8159 15.4886 54.7643 15.539 54.7643 15.6404V24.7283ZM50.2253 28.6066V11.7619C50.2253 11.6088 50.33 11.5055 50.4847 11.5055H57.2674C60.3611 11.5055 62.6314 12.7821 63.5096 15.4621C63.8706 16.5854 64.0252 17.5554 64.0252 20.1836C64.0252 22.7853 63.8705 23.7836 63.5096 24.9035C62.6314 27.5835 60.3611 28.8601 57.2674 28.8601H50.4847C50.33 28.8601 50.2253 28.7596 50.2253 28.6066ZM38.1218 22.2H41.5248L39.8998 16.7885H39.8216L38.1218 22.2ZM31.3889 28.6066L37.4498 11.7636C37.4995 11.6105 37.6045 11.5066 37.7858 11.5066H41.9905C42.1718 11.5066 42.2749 11.6098 42.3265 11.7636L48.2577 28.6066C48.3092 28.7596 48.2325 28.8629 48.078 28.8629H43.8201C43.6405 28.8629 43.5373 28.7597 43.4858 28.6066L42.6608 25.9266H36.9575L36.1325 28.6066C36.081 28.7596 35.9778 28.8629 35.7965 28.8629H31.5669C31.4122 28.8614 31.334 28.7597 31.3872 28.6066H31.3889ZM23.1508 18.9851C24.4399 18.9851 25.2133 18.2684 25.2133 17.1468C25.2133 16.0235 24.4399 15.3085 23.1508 15.3085H20.7241C20.6194 15.3085 20.5694 15.3589 20.5694 15.4616V18.8282C20.5694 18.9314 20.6191 18.9831 20.7241 18.9831H23.1492L23.1508 18.9851ZM29.9086 28.8615H25.4461C25.2133 28.8615 25.1368 28.7847 25.0603 28.6045L22.4024 22.6847H20.7275C20.6227 22.6847 20.5728 22.7351 20.5728 22.8377V28.6042C20.5728 28.7573 20.468 28.8612 20.3133 28.8612H16.2882C16.1335 28.8612 16.0304 28.758 16.0304 28.6042V11.7612C16.0304 11.6082 16.1335 11.5049 16.2882 11.5049H23.4335C27.4586 11.5049 29.7522 13.8282 29.7522 17.0964C29.7522 19.2663 28.721 21.0263 26.8632 21.9463L30.0882 28.5562C30.1647 28.7062 30.0882 28.861 29.9053 28.861L29.9086 28.8615ZM9.03149 28.8615H5.00641C4.8534 28.8615 4.74861 28.7583 4.74861 28.6045V15.6398C4.74861 15.5384 4.69895 15.488 4.59391 15.488H0.284443C0.131435 15.488 0.0282733 15.3847 0.0282733 15.2316V11.7616C0.0282733 11.6086 0.131366 11.5053 0.286071 11.5053H13.7501C13.9048 11.5053 14.0079 11.6085 14.0079 11.7616V15.2316C14.0079 15.3847 13.9048 15.488 13.7501 15.488H9.44227C9.33918 15.488 9.28757 15.5384 9.28757 15.6398V28.6062C9.28757 28.7593 9.18448 28.8614 9.02977 28.8614L9.03149 28.8615ZM120.346 10.1569C120.532 10.1137 120.697 10.0091 120.816 9.86C120.934 9.71087 120.999 9.526 121 9.33529H120.997V0.845436C120.996 0.717029 120.966 0.590557 120.909 0.475423C120.852 0.36029 120.77 0.259466 120.669 0.180485C120.568 0.101504 120.451 0.0463977 120.325 0.0192643C120.2 -0.00786912 120.07 -0.00632002 119.946 0.023786L107.729 2.92205C107.354 3.01164 106.961 2.99637 106.593 2.87791L101.081 1.08628C100.713 0.966937 100.318 0.951663 99.9418 1.04213L87.4209 4.03204C87.2356 4.07488 87.0702 4.17919 86.9516 4.32803C86.8329 4.47687 86.768 4.6615 86.7672 4.85199V13.3402C86.7686 13.4688 86.7989 13.5955 86.8559 13.7108C86.913 13.8261 86.9953 13.927 87.0966 14.006C87.198 14.0849 87.3158 14.14 87.4414 14.167C87.5669 14.194 87.6969 14.1922 87.8217 14.1619L99.9418 11.2686C100.318 11.1784 100.714 11.1936 101.081 11.3127L106.593 13.106C106.959 13.2225 107.353 13.2395 107.729 13.1501L120.345 10.1585L120.346 10.1569ZM120.346 22.8233C120.532 22.7804 120.697 22.6759 120.816 22.5267C120.935 22.3775 121 22.1925 121 22.0017H120.997V13.5135C120.996 13.3851 120.966 13.2586 120.909 13.1435C120.852 13.0284 120.77 12.9276 120.669 12.8486C120.568 12.7696 120.451 12.7145 120.325 12.6874C120.2 12.6602 120.07 12.6618 119.946 12.6919L107.729 15.5868C107.354 15.6764 106.961 15.6611 106.593 15.5426L101.081 13.75C100.713 13.6307 100.318 13.6154 99.9418 13.7058L87.4225 16.6958C87.237 16.7387 87.0714 16.8432 86.9527 16.9924C86.834 17.1416 86.7692 17.3266 86.7689 17.5174V26.0039C86.7702 26.1326 86.8006 26.2592 86.8576 26.3745C86.9147 26.4898 86.9969 26.5907 87.0983 26.6697C87.1996 26.7486 87.3175 26.8037 87.443 26.8307C87.5686 26.8577 87.6986 26.8559 87.8234 26.8256L99.9435 23.9323C100.319 23.8422 100.715 23.8573 101.083 23.9765L106.595 25.7698C106.961 25.8881 107.355 25.9033 107.731 25.8139L120.346 22.8233Z" fill="black"/>
</g>
<defs>
<clipPath id="clip0_267_12921">
<rect width="121" height="50" fill="white"/>
</clipPath>
</defs>
</svg>
