<svg width="148" height="57" viewBox="0 0 148 57" fill="none" xmlns="http://www.w3.org/2000/svg">
<g clip-path="url(#clip0_250_3654)">
<path fill-rule="evenodd" clip-rule="evenodd" d="M83.7455 41.8706L79.6821 34.6727L75.7112 41.8706H65.9161L74.9877 28.2549L66.2762 15.7427H76.2068L79.7284 22.0238L83.3392 15.7427H93.1772L84.4657 28.2549L93.5835 41.8706H83.7455Z" fill="black"/>
<path fill-rule="evenodd" clip-rule="evenodd" d="M137.168 42.6041C133.864 42.6041 131.433 41.2705 129.54 38.4333V41.9173H121.145V7.73462H129.5V19.0433C131.215 16.3761 133.877 14.9659 137.263 14.9659C143.355 14.9659 148.007 20.4635 148.007 28.945C148.007 37.1965 143.494 42.6141 137.174 42.6141M134.455 21.6704C131.297 21.6704 129.401 24.1442 129.401 28.5449C129.401 33.3124 131.115 35.7862 134.274 35.7862C137.432 35.7862 139.285 33.2658 139.285 28.5449C139.288 24.2242 137.392 21.6704 134.455 21.6704Z" fill="black"/>
<path fill-rule="evenodd" clip-rule="evenodd" d="M114.333 22.1807V15.7429H110.009V7.74146H101.605V15.7429H98.1722V22.1807H101.605V33.6727C101.605 35.643 100.438 45.1213 114.241 41.9241V36.4632C113.881 36.4976 113.519 36.512 113.157 36.5065C110.495 36.5065 109.999 35.3596 109.999 32.2458V22.1807H114.333Z" fill="black"/>
<path fill-rule="evenodd" clip-rule="evenodd" d="M1.4272 57.01H54.7006C54.8881 57.0104 55.0739 56.9735 55.2473 56.9013C55.4206 56.829 55.5781 56.723 55.7107 56.5891C55.8433 56.4553 55.9484 56.2964 56.02 56.1214C56.0916 55.9465 56.1282 55.759 56.1277 55.5698V1.44026C56.1282 1.251 56.0916 1.06351 56.02 0.888576C55.9484 0.713638 55.8433 0.554691 55.7107 0.420864C55.5781 0.287036 55.4206 0.180965 55.2473 0.108741C55.0739 0.0365174 54.8881 -0.000435753 54.7006 3.87701e-06H1.4272C1.23967 -0.000435753 1.05389 0.0365174 0.880545 0.108741C0.7072 0.180965 0.5497 0.287036 0.41709 0.420864C0.284481 0.554691 0.179375 0.713638 0.107809 0.888576C0.0362425 1.06351 -0.000374266 1.251 6.13625e-05 1.44026V55.5597C-0.00168744 55.7498 0.0339599 55.9384 0.104938 56.1145C0.175916 56.2906 0.280814 56.4507 0.413555 56.5856C0.546296 56.7205 0.70424 56.8275 0.878238 56.9003C1.05224 56.9732 1.23883 57.0105 1.4272 57.01ZM38.1431 40.4204C37.9085 40.1971 37.6707 39.9737 37.4328 39.7536C34.8306 37.3673 32.0508 35.1861 29.1177 33.2292C26.4037 34.896 23.5989 36.4075 20.7168 37.7566L3.20783 34.216C6.63242 33.3265 9.99597 32.2128 13.2771 30.8821C15.4795 29.993 17.6191 29.004 19.696 27.9149C18.3745 27.2903 17.0421 26.7025 15.6986 26.1513C12.4183 24.8215 9.05587 23.7079 5.63265 22.8173L23.1251 19.2467C25.1072 20.1735 27.0332 21.1659 28.903 22.2239C31.0358 20.6889 33.0776 19.0291 35.0179 17.253C35.2591 17.0363 35.4936 16.8163 35.7315 16.5862L50.5018 13.7557C46.6919 18.9386 42.2135 23.5849 37.1851 27.5715C43.1898 31.9536 48.494 37.238 52.9134 43.2409L38.1431 40.4104V40.4204Z" fill="#FF0000"/>
</g>
<defs>
<clipPath id="clip0_250_3654">
<rect width="148" height="57" fill="white"/>
</clipPath>
</defs>
</svg>
