<svg width="300" height="85" viewBox="0 0 300 85" fill="none" xmlns="http://www.w3.org/2000/svg">
<rect width="300" height="85" rx="40" fill="white"/>
<path d="M110.408 31.2404V45.9139C110.408 46.9769 110.018 47.8967 109.244 48.6611C108.463 49.4255 107.539 49.8077 106.47 49.8077H104.045C102.953 49.8077 102.022 49.4255 101.254 48.6671C100.485 47.9086 100.101 46.9889 100.101 45.9139V42.1157C100.101 41.6737 100.221 41.3273 100.455 41.0765C100.696 40.8257 101.008 40.7003 101.404 40.7003C101.8 40.7003 102.106 40.8316 102.358 41.1004C102.61 41.3691 102.737 41.7036 102.737 42.1157V45.9139C102.737 46.2782 102.863 46.5828 103.121 46.8336C103.379 47.0845 103.685 47.2099 104.039 47.2099H106.464C106.806 47.2099 107.119 47.0785 107.389 46.8157C107.659 46.5529 107.797 46.2543 107.797 45.9079V31.2345C107.797 30.7925 107.917 30.4402 108.151 30.1774C108.391 29.9146 108.703 29.7832 109.1 29.7832C109.472 29.7832 109.784 29.9206 110.03 30.1893C110.276 30.4581 110.402 30.8104 110.402 31.2285L110.408 31.2404Z" fill="black"/>
<path d="M122.018 35.2246H126.64C127.69 35.2246 128.591 35.5889 129.341 36.3115C130.091 37.0342 130.482 37.9479 130.524 39.0587L130.872 48.3334V48.3931C130.872 48.7933 130.746 49.1337 130.5 49.4024C130.254 49.6712 129.953 49.8085 129.599 49.8085C129.245 49.8085 128.939 49.695 128.705 49.4681C128.471 49.2412 128.327 48.9247 128.267 48.5126L126.748 49.4621C126.586 49.5637 126.394 49.6473 126.178 49.713C125.961 49.7787 125.763 49.8085 125.595 49.8085H121.898C120.823 49.8085 119.911 49.4323 119.154 48.6858C118.398 47.9392 118.02 47.0315 118.02 45.9804V44.5351C118.02 43.4781 118.404 42.5703 119.172 41.8118C119.941 41.0534 120.847 40.6712 121.904 40.6712H126.874C127.084 40.6712 127.288 40.6891 127.474 40.7249C127.66 40.7607 127.84 40.8145 128.014 40.8862L127.924 39.0587C127.906 38.6884 127.78 38.3898 127.546 38.1629C127.312 37.9359 127.018 37.8225 126.652 37.8225H122.03C121.597 37.8225 121.255 37.709 121.009 37.4761C120.763 37.2432 120.637 36.9267 120.637 36.5265C120.637 36.1264 120.763 35.8338 121.021 35.5889C121.279 35.35 121.615 35.2246 122.03 35.2246H122.018ZM121.868 43.2631C121.543 43.2631 121.255 43.3885 121.003 43.6393C120.751 43.8901 120.625 44.1887 120.625 44.5292V45.9744C120.625 46.3089 120.751 46.5955 120.997 46.8404C121.243 47.0853 121.543 47.2107 121.898 47.2107H125.367L128.171 45.64L128.141 44.4933C128.141 44.141 128.014 43.8483 127.762 43.6095C127.51 43.3706 127.21 43.2571 126.868 43.2571H121.868V43.2631Z" fill="black"/>
<path d="M150.063 31.2405V48.3566C150.063 48.7806 149.937 49.127 149.685 49.3958C149.433 49.6645 149.114 49.8019 148.73 49.8019C148.346 49.8019 148.022 49.6705 147.782 49.4077C147.542 49.1449 147.428 48.7926 147.428 48.3506V48.064L146.455 48.906C146.131 49.1867 145.753 49.4077 145.309 49.563C144.87 49.7183 144.42 49.7959 143.97 49.7959H141.953C141.509 49.7959 141.077 49.7182 140.656 49.5689C140.236 49.4196 139.84 49.1987 139.468 48.906L138.573 48.2252C138.147 47.8908 137.811 47.4608 137.559 46.9233C137.307 46.3858 137.181 45.8304 137.181 45.2571V39.6313C137.181 39.1297 137.313 38.6041 137.583 38.0607C137.853 37.5172 138.183 37.0932 138.573 36.7946L139.468 36.1138C139.852 35.8152 140.248 35.5882 140.656 35.4329C141.065 35.2836 141.497 35.206 141.953 35.206H143.97C144.426 35.206 144.87 35.2896 145.309 35.4449C145.747 35.6061 146.131 35.8271 146.455 36.1078L147.428 36.9379V31.2226C147.428 30.7986 147.548 30.4522 147.794 30.1834C148.034 29.9147 148.352 29.7773 148.736 29.7773C149.12 29.7773 149.439 29.9087 149.691 30.1775C149.943 30.4462 150.069 30.7926 150.069 31.2226L150.063 31.2405ZM141.953 37.8158C141.683 37.8158 141.395 37.9293 141.107 38.1622C141.089 38.1741 141.071 38.1801 141.059 38.192L140.194 38.8729C140.08 38.9625 139.99 39.0879 139.924 39.2491C139.852 39.4104 139.816 39.5716 139.816 39.7329V45.269C139.816 45.4422 139.852 45.6094 139.924 45.7826C139.996 45.9558 140.086 46.0812 140.194 46.1589L141.059 46.8397C141.059 46.8397 141.077 46.8576 141.089 46.8696C141.389 47.1025 141.677 47.2159 141.953 47.2159H143.97C144.12 47.2159 144.27 47.1861 144.42 47.1264C144.564 47.0666 144.72 46.9711 144.882 46.8397L147.079 45.06C147.181 44.9823 147.266 44.8569 147.332 44.6837C147.398 44.5105 147.428 44.3374 147.428 44.1582V40.8556C147.428 40.6765 147.398 40.5033 147.332 40.3361C147.266 40.1688 147.181 40.0494 147.079 39.9658L144.882 38.204C144.732 38.0726 144.582 37.9771 144.444 37.9173C144.3 37.8576 144.144 37.8278 143.976 37.8278H141.959L141.953 37.8158Z" fill="black"/>
<path d="M161.372 35.2246H164.254C164.686 35.2246 165.118 35.3022 165.55 35.4575C165.982 35.6128 166.379 35.8397 166.739 36.1264L167.861 37.0162C168.287 37.3686 168.624 37.8105 168.876 38.342C169.128 38.8736 169.254 39.423 169.254 39.9844V43.0779C169.254 43.4482 169.116 43.7588 168.846 44.0036C168.576 44.2485 168.221 44.3739 167.801 44.3739H159.007V45.0547C159.007 45.2339 159.049 45.413 159.133 45.5802C159.217 45.7534 159.331 45.8908 159.475 46.0043L160.58 46.9419C160.7 47.0315 160.826 47.1031 160.952 47.1449C161.078 47.1927 161.228 47.2107 161.402 47.2107H167.801C168.233 47.2107 168.588 47.3301 168.858 47.575C169.128 47.8138 169.26 48.1304 169.26 48.5126C169.26 48.8948 169.122 49.2054 168.852 49.4502C168.582 49.6891 168.227 49.8145 167.807 49.8145H161.378C160.946 49.8145 160.52 49.7369 160.106 49.5876C159.691 49.4383 159.295 49.2173 158.923 48.9247L157.8 47.987C157.368 47.6347 157.026 47.1987 156.78 46.6732C156.534 46.1476 156.408 45.6101 156.408 45.0607V39.9904C156.408 39.429 156.534 38.8795 156.78 38.348C157.026 37.8165 157.368 37.3746 157.8 37.0222L158.923 36.1323C159.295 35.8337 159.691 35.6068 160.106 35.4516C160.52 35.3022 160.946 35.2246 161.378 35.2246H161.372ZM161.402 37.7866C161.27 37.7866 161.138 37.8165 161 37.8703C160.862 37.924 160.724 38.0017 160.586 38.1032L159.481 39.0229C159.337 39.1363 159.223 39.2797 159.139 39.4528C159.055 39.626 159.013 39.8052 159.013 39.9904V41.7402H166.655V39.9904C166.655 39.8112 166.613 39.632 166.529 39.4528C166.445 39.2797 166.337 39.1363 166.204 39.0408L165.07 38.1032C164.938 38.0017 164.806 37.924 164.668 37.8703C164.53 37.8165 164.398 37.7866 164.266 37.7866H161.414H161.402Z" fill="black"/>
<path d="M175.593 29.7949H188.451V33.1274C188.451 33.5574 188.331 33.9097 188.085 34.1785C187.845 34.4472 187.526 34.5786 187.142 34.5786C186.758 34.5786 186.446 34.4412 186.2 34.1725C185.96 33.9038 185.834 33.5514 185.834 33.1334V32.3928H183.318V48.3623C183.318 48.7923 183.198 49.1446 182.952 49.4074C182.712 49.6761 182.394 49.8075 182.01 49.8075C181.626 49.8075 181.314 49.6702 181.067 49.4014C180.827 49.1327 180.701 48.7803 180.701 48.3623V32.3928H178.186V33.1334C178.186 33.5633 178.066 33.9157 177.82 34.1845C177.58 34.4532 177.262 34.5846 176.877 34.5846C176.493 34.5846 176.181 34.4472 175.935 34.1785C175.695 33.9097 175.569 33.5574 175.569 33.1393V29.8069L175.593 29.7949Z" fill="black"/>
<path d="M197.389 36.6579V38.0136L199.556 36.1264C199.88 35.8457 200.264 35.6247 200.715 35.4635C201.165 35.3022 201.609 35.2246 202.041 35.2246H203.752C204.815 35.2246 205.727 35.6008 206.489 36.3533C207.252 37.1058 207.636 38.0076 207.636 39.0527V39.638C207.636 40.068 207.516 40.4203 207.27 40.6831C207.03 40.9518 206.712 41.0833 206.327 41.0833C205.943 41.0833 205.631 40.9459 205.385 40.6772C205.145 40.4084 205.019 40.056 205.019 39.638V39.0527C205.019 38.7183 204.893 38.4257 204.641 38.1689C204.388 37.9121 204.088 37.7866 203.746 37.7866H202.035C201.891 37.7866 201.729 37.8225 201.543 37.9001C201.357 37.9777 201.213 38.0614 201.111 38.1629L197.383 41.4356V48.3573C197.383 48.7873 197.263 49.1396 197.017 49.4024C196.777 49.6712 196.459 49.8025 196.074 49.8025C195.69 49.8025 195.378 49.6652 195.132 49.3964C194.892 49.1277 194.766 48.7753 194.766 48.3573V36.6519C194.766 36.21 194.886 35.8576 195.12 35.6068C195.36 35.35 195.672 35.2246 196.069 35.2246C196.465 35.2246 196.765 35.356 197.011 35.6247C197.251 35.8935 197.377 36.2339 197.377 36.6579H197.389Z" fill="black"/>
<path d="M217.979 35.2246H222.601C223.651 35.2246 224.552 35.5889 225.302 36.3115C226.053 37.0342 226.443 37.9479 226.485 39.0587L226.833 48.3334V48.3931C226.833 48.7933 226.707 49.1337 226.461 49.4024C226.215 49.6712 225.915 49.8085 225.56 49.8085C225.206 49.8085 224.9 49.695 224.666 49.4681C224.432 49.2412 224.288 48.9247 224.228 48.5126L222.709 49.4621C222.547 49.5637 222.355 49.6473 222.139 49.713C221.923 49.7787 221.725 49.8085 221.556 49.8085H217.859C216.784 49.8085 215.872 49.4323 215.115 48.6858C214.359 47.9392 213.981 47.0315 213.981 45.9804V44.5351C213.981 43.4781 214.365 42.5703 215.133 41.8118C215.902 41.0534 216.808 40.6712 217.865 40.6712H222.835C223.045 40.6712 223.249 40.6891 223.435 40.7249C223.621 40.7607 223.802 40.8145 223.976 40.8862L223.886 39.0587C223.868 38.6884 223.742 38.3898 223.507 38.1629C223.273 37.9359 222.979 37.8225 222.613 37.8225H217.991C217.559 37.8225 217.216 37.709 216.97 37.4761C216.724 37.2432 216.598 36.9267 216.598 36.5265C216.598 36.1264 216.724 35.8338 216.982 35.5889C217.24 35.35 217.577 35.2246 217.991 35.2246H217.979ZM217.829 43.2631C217.505 43.2631 217.216 43.3885 216.964 43.6393C216.712 43.8901 216.586 44.1887 216.586 44.5292V45.9744C216.586 46.3089 216.712 46.5955 216.958 46.8404C217.204 47.0853 217.505 47.2107 217.859 47.2107H221.328L224.132 45.64L224.102 44.4933C224.102 44.141 223.976 43.8483 223.724 43.6095C223.471 43.3706 223.171 43.2571 222.829 43.2571H217.829V43.2631Z" fill="black"/>
<path d="M235.837 35.7859L239.625 40.3247L243.323 35.7859C243.467 35.6067 243.635 35.4693 243.833 35.3738C244.031 35.2782 244.229 35.2305 244.433 35.2305C244.787 35.2305 245.088 35.3558 245.334 35.6067C245.58 35.8575 245.706 36.1561 245.706 36.4966C245.706 36.6697 245.676 36.831 245.616 36.9863C245.556 37.1415 245.466 37.3028 245.346 37.464L241.3 42.3373L245.622 47.5987C245.754 47.742 245.85 47.8854 245.91 48.0287C245.97 48.1721 246 48.3393 246 48.5184C246 48.8708 245.874 49.1694 245.628 49.4143C245.382 49.6591 245.082 49.7845 244.727 49.7845C244.523 49.7845 244.325 49.7368 244.121 49.6352C243.917 49.5337 243.749 49.3963 243.605 49.2291L239.601 44.3857L235.567 49.2291C235.405 49.4202 235.231 49.5635 235.045 49.6531C234.859 49.7427 234.661 49.7905 234.445 49.7905C234.078 49.7905 233.778 49.671 233.532 49.4381C233.292 49.1993 233.166 48.9066 233.166 48.5543C233.166 48.3811 233.196 48.2138 233.262 48.0466C233.328 47.8794 233.418 47.7301 233.526 47.5987L237.908 42.3671L233.814 37.464C233.682 37.3028 233.586 37.1415 233.526 36.9743C233.466 36.8071 233.436 36.622 233.436 36.407C233.436 36.1143 233.562 35.8456 233.82 35.6007C234.078 35.3559 234.361 35.2305 234.679 35.2305C234.901 35.2305 235.111 35.2782 235.309 35.3738C235.507 35.4693 235.681 35.6067 235.831 35.7859H235.837Z" fill="black"/>
<path d="M70.5374 25.0472C77.9329 24.5634 86.8351 27.7884 89.5423 35.2177C90.5628 38.0127 90.4007 42.9397 90.2567 45.9854C89.4823 62.5939 61.4071 64.8156 55.1641 50.6378C53.7955 47.5263 53.9216 42.1036 54.1257 38.6696C54.6119 30.3982 62.9558 25.5429 70.5374 25.0472ZM87.9096 38.6218C86.5109 28.3677 73.6108 25.3936 65.1288 28.5946C59.4382 30.7446 54.822 36.1076 57.067 42.4559C59.4862 49.306 69.3008 52.4712 75.8919 50.6736C78.6592 49.9211 82.381 47.6696 80.9703 44.3073C80.8742 44.2237 79.3916 45.2449 79.1394 45.3763C74.5653 47.7413 67.7941 47.4725 63.6341 44.3491C59.2581 41.0644 60.0925 36.2688 64.5105 33.5634C70.2252 30.0638 79.2235 31.4613 84.4759 35.2894C85.7786 36.239 86.8711 37.4035 87.9096 38.6218ZM84.608 38.4546C80.286 34.2025 71.3538 32.3511 65.9692 35.4208C64.1264 36.4719 62.1694 38.58 63.5741 40.7479C68.2803 37.2901 75.9879 37.1706 80.7002 40.6703C85.1182 43.949 84.3559 48.7565 79.8838 51.4977C75.4117 54.2389 69.1687 53.8926 64.3905 52.1308C61.281 50.9841 58.5317 49.085 56.5328 46.4453C56.8389 51.3006 60.8608 54.8899 65.2069 56.4964C70.4293 58.4254 76.9124 58.1029 81.7567 55.296C88.2097 51.5575 90.2567 44.0147 84.614 38.4606L84.608 38.4546ZM71.0476 40.4792C68.9646 40.6404 66.8396 41.3033 65.1528 42.5276C69.1507 45.3285 75.2376 45.3285 79.2295 42.5276C76.9424 40.8614 73.8449 40.2582 71.0476 40.4792Z" fill="black"/>
</svg>
