<svg width="300" height="85" viewBox="0 0 300 85" fill="none" xmlns="http://www.w3.org/2000/svg">
<rect width="300" height="85" rx="40" fill="white"/>
<g clip-path="url(#clip0_379_3575)">
<mask id="mask0_379_3575" style="mask-type:luminance" maskUnits="userSpaceOnUse" x="54" y="23" width="192" height="38">
<path d="M245.5 23.5H54.5V60.5H245.5V23.5Z" fill="white"/>
</mask>
<g mask="url(#mask0_379_3575)">
<path d="M104.133 34.118H107.076V35.6447C107.55 35.0637 108.157 34.6054 108.845 34.3088C109.608 33.9813 110.431 33.8187 111.261 33.8317C112.439 33.8132 113.599 34.1239 114.61 34.7286C115.593 35.3192 116.402 36.1602 116.954 37.1657C117.519 38.229 117.815 39.4148 117.815 40.6189C117.815 41.8231 117.519 43.0088 116.954 44.0722C116.401 45.0771 115.593 45.9179 114.61 46.5092C113.591 47.1151 112.424 47.4257 111.238 47.4061C110.479 47.413 109.724 47.2791 109.013 47.0111C108.354 46.7631 107.757 46.372 107.267 45.866V51.9004H104.133V34.118ZM112.78 44.0416C113.335 43.7033 113.786 43.2195 114.085 42.6428C114.41 42.02 114.574 41.3259 114.562 40.6237C114.574 39.925 114.41 39.2345 114.085 38.616C113.781 38.0436 113.33 37.5617 112.78 37.2191C112.363 36.9594 111.897 36.7885 111.411 36.7172C110.926 36.6459 110.43 36.6757 109.956 36.8047C109.482 36.9337 109.04 37.1592 108.658 37.4669C108.275 37.7747 107.961 38.1581 107.733 38.5931C107.427 39.2265 107.267 39.921 107.267 40.6246C107.267 41.3282 107.427 42.0228 107.733 42.6561C108.029 43.2328 108.48 43.7153 109.036 44.0489C109.593 44.3825 110.231 44.5538 110.879 44.5435C111.548 44.5545 112.206 44.3787 112.78 44.0359V44.0416ZM122.063 46.5034C121.072 45.9116 120.261 45.0603 119.719 44.0416C119.157 42.9846 118.869 41.8035 118.883 40.6065C118.859 39.3934 119.152 38.1951 119.733 37.1294C120.279 36.1368 121.079 35.307 122.052 34.7248C123.046 34.133 124.184 33.8272 125.341 33.8412C126.697 33.8412 127.843 34.132 128.779 34.7134C129.697 35.2673 130.444 36.0638 130.937 37.0149C131.436 37.9978 131.689 39.0867 131.675 40.1886C131.675 40.4278 131.663 40.6625 131.64 40.8928C131.621 41.1008 131.576 41.3058 131.509 41.5035H122.136C122.196 42.2413 122.491 42.9407 122.976 43.5002C123.461 44.0598 124.112 44.4503 124.834 44.6154C125.557 44.7804 126.313 44.7112 126.993 44.418C127.674 44.1247 128.243 43.6226 128.619 42.9844L131.153 44.2267C130.717 45.1956 129.98 45.9985 129.052 46.5168C127.98 47.1072 126.776 47.4159 125.552 47.4139C124.329 47.4119 123.125 47.0992 122.055 46.5054L122.063 46.5034ZM123.32 37.1237C122.728 37.637 122.335 38.3413 122.208 39.1141H128.321C128.282 38.3696 127.951 37.6704 127.4 37.1676C126.834 36.6591 126.092 36.389 125.331 36.4138C124.598 36.3998 123.884 36.6497 123.32 37.118V37.1237ZM133.012 34.118H135.953V35.6447C136.427 35.0632 137.035 34.6049 137.724 34.3088C138.487 33.9813 139.31 33.8187 140.14 33.8317C141.318 33.8135 142.478 34.1241 143.489 34.7286C144.472 35.3192 145.281 36.1602 145.833 37.1657C146.398 38.229 146.694 39.4148 146.694 40.6189C146.694 41.8231 146.398 43.0088 145.833 44.0722C145.281 45.0771 144.472 45.9179 143.489 46.5092C142.47 47.1151 141.302 47.4257 140.116 47.4061C139.356 47.4128 138.603 47.2789 137.892 47.0111C137.233 46.7631 136.636 46.372 136.146 45.866V51.9004H133.012V34.118ZM141.659 44.0416C142.213 43.7033 142.664 43.2194 142.962 42.6428C143.287 42.0201 143.452 41.3261 143.441 40.6237C143.453 39.9248 143.288 39.2343 142.962 38.616C142.658 38.0438 142.209 37.5618 141.659 37.2191C141.242 36.9594 140.776 36.7885 140.29 36.7172C139.805 36.6459 139.309 36.6757 138.835 36.8047C138.361 36.9337 137.919 37.1592 137.537 37.4669C137.154 37.7747 136.84 38.1581 136.612 38.5931C136.306 39.2265 136.146 39.921 136.146 40.6246C136.146 41.3282 136.306 42.0228 136.612 42.6561C136.908 43.2326 137.359 43.7148 137.915 44.0484C138.47 44.382 139.108 44.5535 139.756 44.5435C140.424 44.5537 141.08 44.3779 141.653 44.0359L141.659 44.0416ZM148.203 34.118H151.145V35.6447C151.618 35.0632 152.226 34.6049 152.915 34.3088C153.678 33.9813 154.501 33.8187 155.332 33.8317C156.509 33.8135 157.669 34.1241 158.68 34.7286C159.663 35.3199 160.472 36.1607 161.024 37.1657C161.589 38.229 161.885 39.4148 161.885 40.6189C161.885 41.8231 161.589 43.0088 161.024 44.0722C160.471 45.0768 159.663 45.9176 158.68 46.5092C157.661 47.1151 156.493 47.4257 155.307 47.4061C154.547 47.4128 153.794 47.2789 153.083 47.0111C152.424 46.7631 151.828 46.372 151.338 45.866V51.9004H148.197L148.203 34.118ZM156.85 44.0416C157.404 43.7033 157.855 43.2194 158.153 42.6428C158.478 42.0201 158.643 41.3261 158.632 40.6237C158.644 39.9248 158.479 39.2343 158.153 38.616C157.849 38.0438 157.4 37.5618 156.85 37.2191C156.433 36.9594 155.967 36.7885 155.482 36.7172C154.996 36.6459 154.5 36.6757 154.026 36.8047C153.553 36.9337 153.111 37.1592 152.728 37.4669C152.345 37.7747 152.031 38.1581 151.804 38.5931C151.497 39.2265 151.337 39.921 151.337 40.6246C151.337 41.3282 151.497 42.0228 151.804 42.6561C152.099 43.2326 152.55 43.7148 153.106 44.0484C153.661 44.382 154.299 44.5535 154.948 44.5435C155.615 44.5537 156.272 44.3779 156.844 44.0359L156.85 44.0416ZM166.147 46.5034C165.155 45.9117 164.344 45.0605 163.801 44.0416C163.239 42.9846 162.951 41.8035 162.964 40.6065C162.941 39.3934 163.234 38.1951 163.814 37.1294C164.359 36.1376 165.157 35.3078 166.127 34.7248C167.121 34.133 168.26 33.8272 169.417 33.8412C170.773 33.8412 171.919 34.132 172.855 34.7134C173.773 35.2668 174.52 36.0634 175.013 37.0149C175.515 37.999 175.77 39.09 175.756 40.1943C175.756 40.4328 175.743 40.6676 175.72 40.8985C175.7 41.1065 175.656 41.3115 175.588 41.5092H166.212C166.272 42.247 166.566 42.9464 167.052 43.506C167.537 44.0655 168.188 44.4561 168.91 44.6211C169.633 44.7861 170.389 44.717 171.069 44.4237C171.75 44.1305 172.319 43.6283 172.694 42.9901L175.229 44.2325C174.793 45.2013 174.056 46.0042 173.128 46.5225C172.057 47.1129 170.853 47.4216 169.629 47.4196C168.406 47.4176 167.203 47.105 166.133 46.5111L166.147 46.5034ZM167.402 37.1237C166.81 37.6386 166.416 38.344 166.29 39.118H172.402C172.363 38.3735 172.032 37.6742 171.482 37.1714C170.915 36.6629 170.174 36.3928 169.413 36.4176C168.677 36.4007 167.961 36.6493 167.394 37.118L167.402 37.1237ZM177.076 34.1237H180.018V35.9634C180.283 35.291 180.785 34.7386 181.429 34.4099C182.089 34.1126 182.807 33.9659 183.531 33.9806H184.295V36.7477H183.17C182.775 36.7322 182.382 36.7974 182.014 36.9391C181.646 37.0809 181.31 37.2963 181.028 37.5722C180.478 38.1218 180.203 38.8902 180.203 39.8775V47.118H177.071L177.076 34.1237ZM186.459 46.408C185.468 45.7861 184.72 44.8429 184.342 43.7363L186.686 42.6141C186.999 43.2996 187.486 43.8916 188.098 44.3317C188.677 44.7429 189.372 44.9606 190.082 44.9538C190.561 44.9763 191.034 44.8467 191.435 44.5836C191.598 44.4708 191.731 44.3187 191.821 44.1414C191.911 43.964 191.955 43.767 191.948 43.5683C191.953 43.3975 191.916 43.2281 191.839 43.0755C191.761 42.9229 191.648 42.7919 191.507 42.6943C191.185 42.4677 190.824 42.3021 190.441 42.2057L188.308 41.5951C187.207 41.277 186.374 40.791 185.807 40.137C185.247 39.4958 184.945 38.6695 184.959 37.8183C184.941 37.0726 185.154 36.3396 185.569 35.7191C185.995 35.1145 186.58 34.6385 187.259 34.3431C188.182 33.9544 189.183 33.7876 190.183 33.8562C191.182 33.9248 192.151 34.2269 193.012 34.7382C193.939 35.3194 194.646 36.1922 195.022 37.2191L192.628 38.3412C192.428 37.7592 192.036 37.2621 191.517 36.9309C190.988 36.5832 190.368 36.4005 189.735 36.4061C189.291 36.3805 188.852 36.5071 188.491 36.7649C188.346 36.8726 188.23 37.0134 188.151 37.1754C188.072 37.3374 188.032 37.516 188.036 37.6962C188.03 37.8641 188.066 38.0309 188.141 38.1813C188.217 38.3317 188.328 38.4608 188.466 38.5569C188.802 38.7852 189.174 38.9549 189.566 39.0588L191.649 39.679C192.733 39.9831 193.561 40.4615 194.132 41.1141C194.703 41.7586 195.011 42.5947 194.993 43.4557C195.006 44.1927 194.788 44.9152 194.37 45.5225C193.936 46.1366 193.341 46.6203 192.651 46.9214C191.836 47.2721 190.954 47.4433 190.067 47.4233C188.788 47.446 187.531 47.0908 186.453 46.4023L186.459 46.408ZM199.15 46.0493C198.345 45.2363 197.942 44.1052 197.942 42.6561V36.7477H195.694V34.118H195.933C196.571 34.118 197.066 33.9519 197.417 33.616C197.769 33.2802 197.942 32.7954 197.942 32.158V30.2324H201.077V34.118H204.068V36.7477H201.079V42.4729C201.079 43.1256 201.253 43.6275 201.604 43.9786C201.955 44.3298 202.513 44.5035 203.279 44.5035C203.559 44.5016 203.839 44.478 204.116 44.4328V47.1046C203.892 47.137 203.636 47.1695 203.352 47.2C203.09 47.2312 202.827 47.2478 202.563 47.2496C201.09 47.2585 199.95 46.8565 199.144 46.0435L199.15 46.0493ZM207.988 46.5264C206.941 45.9365 206.07 45.0795 205.463 44.043C204.856 43.0065 204.536 41.8277 204.535 40.627C204.534 39.4263 204.852 38.2469 205.456 37.2092C206.061 36.1716 206.931 35.3129 207.976 34.721C209.044 34.1411 210.241 33.8373 211.456 33.8373C212.672 33.8373 213.868 34.1411 214.937 34.721C215.961 35.295 216.817 36.1274 217.42 37.1351C218.025 38.2011 218.343 39.4062 218.341 40.6319C218.339 41.8576 218.017 43.0616 217.408 44.1256C216.806 45.1333 215.95 45.9657 214.925 46.5397C213.861 47.1142 212.67 47.414 211.46 47.4116C210.251 47.4093 209.061 47.105 207.999 46.5264H207.988ZM213.323 44.0454C213.865 43.7032 214.303 43.2196 214.591 42.6466C214.908 42.0212 215.068 41.3283 215.057 40.6275C215.068 39.9303 214.908 39.2409 214.591 38.6199C214.298 38.0512 213.861 37.5694 213.323 37.2229C212.768 36.8745 212.124 36.696 211.47 36.7096C210.807 36.6981 210.155 36.8762 209.59 37.2229C209.042 37.564 208.596 38.0466 208.299 38.6199C207.981 39.2406 207.821 39.9302 207.833 40.6275C207.821 41.3284 207.981 42.0216 208.299 42.6466C208.59 43.2242 209.038 43.7087 209.59 44.0454C210.158 44.3842 210.809 44.558 211.47 44.5473C212.122 44.5562 212.763 44.3787 213.317 44.0359L213.323 44.0454ZM219.832 34.1218H222.776V35.7229C223.117 35.1105 223.638 34.618 224.269 34.3126C224.952 33.9859 225.702 33.8226 226.458 33.8355C227.347 33.8189 228.225 34.0333 229.007 34.4577C229.736 34.8604 230.337 35.4603 230.741 36.1886C231.167 36.9774 231.381 37.8631 231.362 38.7592V47.1218H228.229V39.4958C228.229 38.6358 227.986 37.9545 227.499 37.4519C227.251 37.2002 226.953 37.0033 226.624 36.8738C226.295 36.7443 225.943 36.6851 225.589 36.7C225.235 36.6849 224.881 36.7451 224.552 36.8767C224.223 37.0083 223.925 37.2082 223.679 37.4634C223.192 37.9748 222.95 38.6504 222.95 39.4958V47.118H219.827L219.832 34.1218ZM235.891 46.5015C234.898 45.9104 234.087 45.059 233.545 44.0397C232.983 42.9827 232.695 41.8016 232.708 40.6046C232.685 39.3915 232.978 38.1932 233.558 37.1275C234.103 36.1364 234.901 35.3073 235.871 34.7248C236.865 34.133 238.004 33.8272 239.161 33.8412C240.517 33.8412 241.663 34.132 242.599 34.7134C243.515 35.2679 244.261 36.0643 244.753 37.0149C245.255 37.999 245.51 39.09 245.497 40.1943C245.497 40.4328 245.483 40.6676 245.46 40.8985C245.44 41.1065 245.396 41.3115 245.328 41.5092H235.952C236.012 42.247 236.307 42.9464 236.792 43.506C237.277 44.0655 237.928 44.4561 238.65 44.6211C239.373 44.7861 240.129 44.717 240.809 44.4237C241.49 44.1305 242.059 43.6283 242.435 42.9901L244.969 44.2325C244.533 45.2013 243.796 46.0042 242.868 46.5225C241.797 47.1129 240.593 47.4216 239.369 47.4196C238.146 47.4176 236.943 47.105 235.873 46.5111L235.891 46.5015ZM237.146 37.1218C236.554 37.6367 236.16 38.3421 236.034 39.116H242.146C242.107 38.3716 241.776 37.6723 241.226 37.1695C240.659 36.661 239.918 36.3909 239.157 36.4157C238.422 36.3997 237.706 36.6491 237.14 37.118L237.146 37.1218Z" fill="black"/>
<path fill-rule="evenodd" clip-rule="evenodd" d="M90.5033 30.598C83.7836 26.7392 69.7862 23.7068 62.3846 23.5102C54.9829 23.3137 54.1462 25.9453 54.5989 31.9568C55.0516 37.9683 56.7975 47.3328 60.6177 53.3175C64.4379 59.3022 70.3593 61.9053 76.6187 59.7564C82.8782 57.6076 89.4986 50.7183 93.0896 44.9301C96.6807 39.1419 97.2231 34.4568 90.5033 30.598ZM77.3484 47.0885H72.6361V54.9129H67.8379V37.5007H72.6361V42.2946H77.3484V42.2812C78.3109 42.2812 79.234 41.8992 79.9146 41.2192C80.5952 40.5392 80.9776 39.617 80.9776 38.6553C80.9776 37.6936 80.5952 36.7714 79.9146 36.0914C79.234 35.4114 78.3109 35.0293 77.3484 35.0293H61.8383L63.5936 30.2354H77.3465C78.465 30.2186 79.5757 30.4242 80.6139 30.8402C81.6522 31.2563 82.5973 31.8744 83.3942 32.6587C84.1911 33.443 84.824 34.3779 85.256 35.4088C85.6879 36.4398 85.9104 37.5462 85.9104 38.6639C85.9104 39.7815 85.6879 40.888 85.256 41.9189C84.824 42.9499 84.1911 43.8847 83.3942 44.669C82.5973 45.4534 81.6522 46.0715 80.6139 46.4875C79.5757 46.9036 78.465 47.1091 77.3465 47.0923L77.3484 47.0885Z" fill="black"/>
</g>
</g>
<defs>
<clipPath id="clip0_379_3575">
<rect width="191" height="44" fill="white" transform="translate(54.5 20.5)"/>
</clipPath>
</defs>
</svg>
