<svg width="300" height="85" viewBox="0 0 300 85" fill="none" xmlns="http://www.w3.org/2000/svg">
<rect width="300" height="85" rx="40" fill="white"/>
<g clip-path="url(#clip0_250_3506)">
<mask id="mask0_250_3506" style="mask-type:luminance" maskUnits="userSpaceOnUse" x="54" y="23" width="192" height="38">
<path d="M245.5 23.5H54.5V60.5H245.5V23.5Z" fill="white"/>
</mask>
<g mask="url(#mask0_250_3506)">
<path d="M104.133 34.1165H107.076V35.6432C107.55 35.0622 108.157 34.6039 108.845 34.3073C109.608 33.9798 110.431 33.8172 111.261 33.8302C112.439 33.8117 113.599 34.1224 114.61 34.7271C115.593 35.3177 116.402 36.1587 116.954 37.1642C117.519 38.2275 117.815 39.4133 117.815 40.6174C117.815 41.8216 117.519 43.0073 116.954 44.0707C116.401 45.0756 115.593 45.9164 114.61 46.5077C113.591 47.1136 112.424 47.4242 111.238 47.4046C110.479 47.4115 109.724 47.2776 109.013 47.0096C108.354 46.7616 107.757 46.3705 107.267 45.8645V51.8989H104.133V34.1165ZM112.78 44.0401C113.335 43.7018 113.786 43.218 114.085 42.6413C114.41 42.0185 114.574 41.3244 114.562 40.6222C114.574 39.9235 114.41 39.233 114.085 38.6145C113.781 38.0421 113.33 37.5602 112.78 37.2176C112.363 36.9579 111.897 36.787 111.411 36.7157C110.926 36.6444 110.43 36.6742 109.956 36.8032C109.482 36.9322 109.04 37.1577 108.658 37.4654C108.275 37.7732 107.961 38.1566 107.733 38.5916C107.427 39.225 107.267 39.9195 107.267 40.6231C107.267 41.3267 107.427 42.0213 107.733 42.6546C108.029 43.2313 108.48 43.7138 109.036 44.0474C109.593 44.381 110.231 44.5523 110.879 44.542C111.548 44.553 112.206 44.3772 112.78 44.0344V44.0401ZM122.063 46.5019C121.072 45.9101 120.261 45.0588 119.719 44.0401C119.157 42.9831 118.869 41.802 118.883 40.605C118.859 39.3919 119.152 38.1936 119.733 37.1279C120.279 36.1353 121.079 35.3055 122.052 34.7233C123.046 34.1315 124.184 33.8257 125.341 33.8397C126.697 33.8397 127.843 34.1305 128.779 34.7119C129.697 35.2658 130.444 36.0623 130.937 37.0134C131.436 37.9963 131.689 39.0852 131.675 40.1871C131.675 40.4263 131.663 40.661 131.64 40.8913C131.621 41.0993 131.576 41.3043 131.509 41.502H122.136C122.196 42.2398 122.491 42.9392 122.976 43.4987C123.461 44.0583 124.112 44.4488 124.834 44.6139C125.557 44.7789 126.313 44.7097 126.993 44.4165C127.674 44.1232 128.243 43.6211 128.619 42.9829L131.153 44.2252C130.717 45.1941 129.98 45.997 129.052 46.5153C127.98 47.1057 126.776 47.4144 125.552 47.4124C124.329 47.4104 123.125 47.0977 122.055 46.5039L122.063 46.5019ZM123.32 37.1222C122.728 37.6355 122.335 38.3398 122.208 39.1126H128.321C128.282 38.3681 127.951 37.6689 127.4 37.1661C126.834 36.6576 126.092 36.3875 125.331 36.4123C124.598 36.3983 123.884 36.6482 123.32 37.1165V37.1222ZM133.012 34.1165H135.953V35.6432C136.427 35.0617 137.035 34.6034 137.724 34.3073C138.487 33.9798 139.31 33.8172 140.14 33.8302C141.318 33.812 142.478 34.1226 143.489 34.7271C144.472 35.3177 145.281 36.1587 145.833 37.1642C146.398 38.2275 146.694 39.4133 146.694 40.6174C146.694 41.8216 146.398 43.0073 145.833 44.0707C145.281 45.0756 144.472 45.9164 143.489 46.5077C142.47 47.1136 141.302 47.4242 140.116 47.4046C139.356 47.4113 138.603 47.2774 137.892 47.0096C137.233 46.7616 136.636 46.3705 136.146 45.8645V51.8989H133.012V34.1165ZM141.659 44.0401C142.213 43.7018 142.664 43.2179 142.962 42.6413C143.287 42.0186 143.452 41.3246 143.441 40.6222C143.453 39.9233 143.288 39.2328 142.962 38.6145C142.658 38.0423 142.209 37.5603 141.659 37.2176C141.242 36.9579 140.776 36.787 140.29 36.7157C139.805 36.6444 139.309 36.6742 138.835 36.8032C138.361 36.9322 137.919 37.1577 137.537 37.4654C137.154 37.7732 136.84 38.1566 136.612 38.5916C136.306 39.225 136.146 39.9195 136.146 40.6231C136.146 41.3267 136.306 42.0213 136.612 42.6546C136.908 43.2311 137.359 43.7133 137.915 44.0469C138.47 44.3805 139.108 44.552 139.756 44.542C140.424 44.5522 141.08 44.3764 141.653 44.0344L141.659 44.0401ZM148.203 34.1165H151.145V35.6432C151.618 35.0617 152.226 34.6034 152.915 34.3073C153.678 33.9798 154.501 33.8172 155.332 33.8302C156.509 33.812 157.669 34.1226 158.68 34.7271C159.663 35.3184 160.472 36.1592 161.024 37.1642C161.589 38.2275 161.885 39.4133 161.885 40.6174C161.885 41.8216 161.589 43.0073 161.024 44.0707C160.471 45.0753 159.663 45.9161 158.68 46.5077C157.661 47.1136 156.493 47.4242 155.307 47.4046C154.547 47.4113 153.794 47.2774 153.083 47.0096C152.424 46.7616 151.828 46.3705 151.338 45.8645V51.8989H148.197L148.203 34.1165ZM156.85 44.0401C157.404 43.7018 157.855 43.2179 158.153 42.6413C158.478 42.0186 158.643 41.3246 158.632 40.6222C158.644 39.9233 158.479 39.2328 158.153 38.6145C157.849 38.0423 157.4 37.5603 156.85 37.2176C156.433 36.9579 155.967 36.787 155.482 36.7157C154.996 36.6444 154.5 36.6742 154.026 36.8032C153.553 36.9322 153.111 37.1577 152.728 37.4654C152.345 37.7732 152.031 38.1566 151.804 38.5916C151.497 39.225 151.337 39.9195 151.337 40.6231C151.337 41.3267 151.497 42.0213 151.804 42.6546C152.099 43.2311 152.55 43.7133 153.106 44.0469C153.661 44.3805 154.299 44.552 154.948 44.542C155.615 44.5522 156.272 44.3764 156.844 44.0344L156.85 44.0401ZM166.147 46.5019C165.155 45.9102 164.344 45.059 163.801 44.0401C163.239 42.9831 162.951 41.802 162.964 40.605C162.941 39.3919 163.234 38.1936 163.814 37.1279C164.359 36.1361 165.157 35.3063 166.127 34.7233C167.121 34.1315 168.26 33.8257 169.417 33.8397C170.773 33.8397 171.919 34.1305 172.855 34.7119C173.773 35.2653 174.52 36.0619 175.013 37.0134C175.515 37.9975 175.77 39.0885 175.756 40.1928C175.756 40.4313 175.743 40.6661 175.72 40.897C175.7 41.105 175.656 41.31 175.588 41.5077H166.212C166.272 42.2455 166.566 42.9449 167.052 43.5045C167.537 44.064 168.188 44.4546 168.91 44.6196C169.633 44.7846 170.389 44.7155 171.069 44.4222C171.75 44.129 172.319 43.6268 172.694 42.9886L175.229 44.231C174.793 45.1998 174.056 46.0027 173.128 46.521C172.057 47.1114 170.853 47.4201 169.629 47.4181C168.406 47.4161 167.203 47.1035 166.133 46.5096L166.147 46.5019ZM167.402 37.1222C166.81 37.6371 166.416 38.3425 166.29 39.1165H172.402C172.363 38.372 172.032 37.6727 171.482 37.1699C170.915 36.6614 170.174 36.3913 169.413 36.4161C168.677 36.3992 167.961 36.6478 167.394 37.1165L167.402 37.1222ZM177.076 34.1222H180.018V35.9619C180.283 35.2895 180.785 34.7371 181.429 34.4084C182.089 34.1111 182.807 33.9644 183.531 33.9791H184.295V36.7462H183.17C182.775 36.7307 182.382 36.7959 182.014 36.9376C181.646 37.0794 181.31 37.2948 181.028 37.5707C180.478 38.1203 180.203 38.8887 180.203 39.876V47.1165H177.071L177.076 34.1222ZM186.459 46.4065C185.468 45.7846 184.72 44.8414 184.342 43.7348L186.686 42.6126C186.999 43.2981 187.486 43.8901 188.098 44.3302C188.677 44.7414 189.372 44.9591 190.082 44.9523C190.561 44.9748 191.034 44.8452 191.435 44.5821C191.598 44.4693 191.731 44.3172 191.821 44.1399C191.911 43.9625 191.955 43.7655 191.948 43.5668C191.953 43.396 191.916 43.2266 191.839 43.074C191.761 42.9214 191.648 42.7904 191.507 42.6928C191.185 42.4662 190.824 42.3006 190.441 42.2042L188.308 41.5936C187.207 41.2755 186.374 40.7895 185.807 40.1355C185.247 39.4943 184.945 38.668 184.959 37.8168C184.941 37.0711 185.154 36.3381 185.569 35.7176C185.995 35.113 186.58 34.637 187.259 34.3416C188.182 33.9529 189.183 33.7861 190.183 33.8547C191.182 33.9233 192.151 34.2254 193.012 34.7367C193.939 35.3179 194.646 36.1907 195.022 37.2176L192.628 38.3397C192.428 37.7577 192.036 37.2606 191.517 36.9294C190.988 36.5817 190.368 36.399 189.735 36.4046C189.291 36.379 188.852 36.5056 188.491 36.7634C188.346 36.8711 188.23 37.0119 188.151 37.1739C188.072 37.3359 188.032 37.5145 188.036 37.6947C188.03 37.8626 188.066 38.0294 188.141 38.1798C188.217 38.3302 188.328 38.4593 188.466 38.5554C188.802 38.7837 189.174 38.9534 189.566 39.0573L191.649 39.6775C192.733 39.9816 193.561 40.46 194.132 41.1126C194.703 41.7571 195.011 42.5932 194.993 43.4542C195.006 44.1912 194.788 44.9137 194.37 45.521C193.936 46.1351 193.341 46.6188 192.651 46.9199C191.836 47.2706 190.954 47.4418 190.067 47.4218C188.788 47.4445 187.531 47.0893 186.453 46.4008L186.459 46.4065ZM199.15 46.0478C198.345 45.2348 197.942 44.1037 197.942 42.6546V36.7462H195.694V34.1165H195.933C196.571 34.1165 197.066 33.9504 197.417 33.6145C197.769 33.2787 197.942 32.7939 197.942 32.1565V30.231H201.077V34.1165H204.068V36.7462H201.079V42.4714C201.079 43.1241 201.253 43.626 201.604 43.9771C201.955 44.3283 202.513 44.502 203.279 44.502C203.559 44.5001 203.839 44.4765 204.116 44.4313V47.1031C203.892 47.1355 203.636 47.168 203.352 47.1985C203.09 47.2297 202.827 47.2463 202.563 47.2481C201.09 47.257 199.95 46.855 199.144 46.042L199.15 46.0478ZM207.988 46.5249C206.941 45.935 206.07 45.078 205.463 44.0415C204.856 43.005 204.536 41.8262 204.535 40.6255C204.534 39.4248 204.852 38.2454 205.456 37.2077C206.061 36.1701 206.931 35.3114 207.976 34.7195C209.044 34.1396 210.241 33.8358 211.456 33.8358C212.672 33.8358 213.868 34.1396 214.937 34.7195C215.961 35.2935 216.817 36.1259 217.42 37.1336C218.025 38.1996 218.343 39.4047 218.341 40.6304C218.339 41.8561 218.017 43.0601 217.408 44.1241C216.806 45.1318 215.95 45.9642 214.925 46.5382C213.861 47.1127 212.67 47.4125 211.46 47.4101C210.251 47.4078 209.061 47.1035 207.999 46.5249H207.988ZM213.323 44.0439C213.865 43.7017 214.303 43.2181 214.591 42.6451C214.908 42.0197 215.068 41.3268 215.057 40.626C215.068 39.9288 214.908 39.2394 214.591 38.6184C214.298 38.0497 213.861 37.5679 213.323 37.2214C212.768 36.873 212.124 36.6945 211.47 36.7081C210.807 36.6966 210.155 36.8747 209.59 37.2214C209.042 37.5625 208.596 38.0451 208.299 38.6184C207.981 39.2391 207.821 39.9287 207.833 40.626C207.821 41.3269 207.981 42.0201 208.299 42.6451C208.59 43.2227 209.038 43.7072 209.59 44.0439C210.158 44.3827 210.809 44.5565 211.47 44.5458C212.122 44.5547 212.763 44.3772 213.317 44.0344L213.323 44.0439ZM219.832 34.1203H222.776V35.7214C223.117 35.109 223.638 34.6165 224.269 34.3111C224.952 33.9844 225.702 33.8211 226.458 33.834C227.347 33.8174 228.225 34.0318 229.007 34.4562C229.736 34.8589 230.337 35.4588 230.741 36.1871C231.167 36.9759 231.381 37.8616 231.362 38.7577V47.1203H228.229V39.4943C228.229 38.6343 227.986 37.953 227.499 37.4504C227.251 37.1987 226.953 37.0018 226.624 36.8723C226.295 36.7428 225.943 36.6836 225.589 36.6985C225.235 36.6834 224.881 36.7436 224.552 36.8752C224.223 37.0068 223.925 37.2067 223.679 37.4619C223.192 37.9733 222.95 38.6489 222.95 39.4943V47.1165H219.827L219.832 34.1203ZM235.891 46.5C234.898 45.9089 234.087 45.0575 233.545 44.0382C232.983 42.9812 232.695 41.8001 232.708 40.6031C232.685 39.39 232.978 38.1917 233.558 37.126C234.103 36.1349 234.901 35.3058 235.871 34.7233C236.865 34.1315 238.004 33.8257 239.161 33.8397C240.517 33.8397 241.663 34.1305 242.599 34.7119C243.515 35.2664 244.261 36.0628 244.753 37.0134C245.255 37.9975 245.51 39.0885 245.497 40.1928C245.497 40.4313 245.483 40.6661 245.46 40.897C245.44 41.105 245.396 41.31 245.328 41.5077H235.952C236.012 42.2455 236.307 42.9449 236.792 43.5045C237.277 44.064 237.928 44.4546 238.65 44.6196C239.373 44.7846 240.129 44.7155 240.809 44.4222C241.49 44.129 242.059 43.6268 242.435 42.9886L244.969 44.231C244.533 45.1998 243.796 46.0027 242.868 46.521C241.797 47.1114 240.593 47.4201 239.369 47.4181C238.146 47.4161 236.943 47.1035 235.873 46.5096L235.891 46.5ZM237.146 37.1203C236.554 37.6352 236.16 38.3406 236.034 39.1145H242.146C242.107 38.3701 241.776 37.6708 241.226 37.168C240.659 36.6595 239.918 36.3894 239.157 36.4142C238.422 36.3982 237.706 36.6476 237.14 37.1165L237.146 37.1203Z" fill="black"/>
<path fill-rule="evenodd" clip-rule="evenodd" d="M90.5033 30.597C83.7836 26.7383 69.7862 23.7058 62.3846 23.5092C54.9829 23.3127 54.1462 25.9444 54.5989 31.9558C55.0516 37.9673 56.7975 47.3318 60.6177 53.3165C64.4379 59.3012 70.3593 61.9043 76.6187 59.7554C82.8782 57.6066 89.4986 50.7173 93.0896 44.9291C96.6807 39.1409 97.2231 34.4558 90.5033 30.597ZM77.3484 47.0875H72.6361V54.9119H67.8379V37.4997H72.6361V42.2936H77.3484V42.2802C78.3109 42.2802 79.234 41.8982 79.9146 41.2182C80.5952 40.5382 80.9776 39.616 80.9776 38.6543C80.9776 37.6926 80.5952 36.7704 79.9146 36.0904C79.234 35.4104 78.3109 35.0283 77.3484 35.0283H61.8383L63.5936 30.2344H77.3465C78.465 30.2176 79.5757 30.4232 80.6139 30.8392C81.6522 31.2553 82.5973 31.8734 83.3942 32.6577C84.1911 33.442 84.824 34.3769 85.256 35.4078C85.6879 36.4388 85.9104 37.5452 85.9104 38.6629C85.9104 39.7805 85.6879 40.887 85.256 41.9179C84.824 42.9489 84.1911 43.8837 83.3942 44.668C82.5973 45.4524 81.6522 46.0705 80.6139 46.4865C79.5757 46.9026 78.465 47.1081 77.3465 47.0913L77.3484 47.0875Z" fill="black"/>
</g>
</g>
<defs>
<clipPath id="clip0_250_3506">
<rect width="191" height="44" fill="white" transform="translate(54.5 20.5)"/>
</clipPath>
</defs>
</svg>
