<svg width="300" height="85" viewBox="0 0 300 85" fill="none" xmlns="http://www.w3.org/2000/svg">
<rect width="300" height="85" rx="40" fill="white"/>
<g clip-path="url(#clip0_250_3664)">
<path d="M192.226 63.2111C191.84 62.0377 191.71 61.0945 191.71 58.5162C191.71 55.9379 191.838 54.9929 192.226 53.8196C193.154 50.9863 195.424 49.5314 198.596 49.5314C201.69 49.5314 203.91 50.9863 204.888 53.4862C204.966 53.6664 204.939 53.7697 204.76 53.8447L201.33 55.3246C201.149 55.4015 201.046 55.3498 200.968 55.1716C200.479 54.1516 199.86 53.5382 198.672 53.5382C197.565 53.5382 196.868 54.0749 196.557 55.0449C196.377 55.5797 196.299 56.1165 196.299 58.5164C196.299 60.9164 196.377 61.4497 196.557 61.9864C196.866 62.9564 197.563 63.493 198.672 63.493C199.86 63.493 200.477 62.8795 200.968 61.8597C201.045 61.6796 201.151 61.6298 201.33 61.7067L204.76 63.1866C204.941 63.2635 204.966 63.3649 204.888 63.5451C203.907 66.045 201.691 67.5 198.596 67.5C195.424 67.5 193.154 66.0443 192.226 63.2111ZM184.453 66.9377V50.093C184.453 49.9399 184.557 49.8366 184.711 49.8366H188.736C188.889 49.8366 188.993 49.9399 188.993 50.093V66.936C188.993 67.089 188.889 67.193 188.735 67.193H184.71C184.555 67.193 184.453 67.0926 184.453 66.9377ZM169.868 66.9377V50.093C169.868 49.9399 169.971 49.8366 170.126 49.8366H174.151C174.306 49.8366 174.409 49.9399 174.409 50.093V63.0578C174.409 63.1592 174.459 63.2108 174.564 63.2108H181.992C182.147 63.2108 182.25 63.3122 182.25 63.4659V66.9358C182.25 67.0889 182.147 67.1928 181.992 67.1928H170.126C169.971 67.1928 169.868 67.0926 169.868 66.9377ZM158.279 63.6444C158.279 63.7477 158.329 63.7975 158.434 63.7975H160.496C161.915 63.7975 162.637 63.1091 162.637 61.8325C162.637 60.6325 161.915 59.8925 160.496 59.8925H158.434C158.329 59.8925 158.279 59.9429 158.279 60.0456V63.6444ZM158.434 56.8045H160.263C161.632 56.8045 162.354 56.2162 162.354 55.0179C162.354 53.7929 161.657 53.2312 160.265 53.2312H158.434C158.329 53.2312 158.279 53.2817 158.279 53.3843V56.651C158.279 56.7542 158.329 56.8045 158.434 56.8045ZM153.738 66.9377V50.093C153.738 49.9399 153.841 49.8366 153.996 49.8366H161.141C165.062 49.8366 166.866 51.6999 166.866 54.4565C166.866 56.2431 166.04 57.4948 164.726 58.1831V58.2335C166.016 58.7204 167.176 60.1734 167.176 62.1901C167.176 65.585 164.751 67.1933 161.061 67.1933H153.994C153.841 67.1933 153.738 67.0926 153.738 66.9377ZM143.694 67.4995C139.439 67.4995 136.705 65.0996 136.705 60.483V50.095C136.705 49.9419 136.808 49.8379 136.963 49.8379H140.988C141.141 49.8379 141.244 49.9412 141.244 50.095V60.7614C141.244 62.498 142.225 63.4947 143.694 63.4947C145.216 63.4947 146.119 62.498 146.119 60.7614V50.095C146.119 49.9419 146.224 49.8379 146.378 49.8379H150.402C150.556 49.8379 150.659 49.9412 150.659 50.095V60.4814C150.659 65.103 147.874 67.4995 143.694 67.4995ZM127.693 57.5981C129.112 57.5981 129.912 56.8064 129.912 55.6065C129.912 54.4065 129.112 53.6415 127.693 53.6415H125.373C125.268 53.6415 125.218 53.6919 125.218 53.7946V57.4445C125.218 57.5459 125.268 57.5976 125.373 57.5976L127.693 57.5981ZM124.959 67.1946H120.935C120.782 67.1946 120.679 67.0913 120.679 66.9382V50.0935C120.679 49.9404 120.782 49.8371 120.937 49.8371H127.953C132.234 49.8371 134.453 52.2371 134.453 55.6053C134.453 58.9219 132.207 61.3985 127.951 61.3985H125.373C125.268 61.3985 125.218 61.4489 125.218 61.5516V66.9365C125.218 67.0914 125.115 67.1935 124.961 67.1935L124.959 67.1946ZM106.018 66.9394V50.0931C106.018 49.94 106.121 49.8367 106.276 49.8367H117.754C117.908 49.8367 118.011 49.94 118.011 50.0931V53.3847C118.011 53.5384 117.908 53.6398 117.754 53.6398H110.713C110.608 53.6398 110.558 53.6902 110.558 53.7929V56.4211C110.558 56.5244 110.608 56.5742 110.713 56.5742H116.49C116.644 56.5742 116.749 56.6774 116.749 56.8305V60.0455C116.749 60.1973 116.644 60.3006 116.49 60.3006H110.713C110.608 60.3006 110.558 60.351 110.558 60.4537V63.2369C110.558 63.3371 110.608 63.3887 110.713 63.3887H117.754C117.908 63.3887 118.011 63.492 118.011 63.6438V66.9354C118.011 67.0885 117.908 67.1924 117.754 67.1924H106.276C106.121 67.1924 106.018 67.0922 106.018 66.9373L106.018 66.9394ZM96.6187 57.3163C97.9078 57.3163 98.6812 56.5996 98.6812 55.478C98.6812 54.3547 97.9078 53.6397 96.6187 53.6397H94.1937C94.0906 53.6397 94.039 53.6901 94.039 53.7928V57.1594C94.039 57.2626 94.0887 57.3143 94.1937 57.3143H96.6187V57.3163ZM103.377 67.1928H98.914C98.6812 67.1928 98.6047 67.1159 98.5265 66.9358L95.8703 61.0159H94.1937C94.0906 61.0159 94.039 61.0663 94.039 61.169V66.9355C94.039 67.0886 93.9359 67.1925 93.7812 67.1925H89.7578C89.6031 67.1925 89.5 67.0893 89.5 66.9355V50.0926C89.5 49.9395 89.6031 49.8362 89.7578 49.8362H96.9031C100.928 49.8362 103.223 52.1594 103.223 55.426C103.223 57.596 102.191 59.356 100.333 60.276L103.558 66.8858C103.633 67.0389 103.556 67.1928 103.377 67.1928ZM156.295 46.1066V29.2619C156.295 29.1088 156.398 29.0055 156.552 29.0055H168.03C168.185 29.0055 168.288 29.1088 168.288 29.2619V32.5535C168.288 32.7066 168.185 32.8086 168.03 32.8086H160.99C160.885 32.8086 160.835 32.8591 160.835 32.9617V35.59C160.835 35.6933 160.885 35.7431 160.99 35.7431H166.766C166.921 35.7431 167.026 35.8463 167.026 36V39.2166C167.026 39.3685 166.921 39.4717 166.766 39.4717H160.99C160.885 39.4717 160.835 39.5222 160.835 39.6248V42.4081C160.835 42.5083 160.885 42.558 160.99 42.558H168.03C168.185 42.558 168.288 42.6632 168.288 42.815V46.1065C168.288 46.2596 168.185 46.3636 168.03 46.3636H156.552C156.398 46.362 156.295 46.2603 156.295 46.1066ZM144.264 42.2283C144.264 42.3297 144.316 42.3801 144.419 42.3801H145.786C147.386 42.3801 148.263 41.9468 148.675 40.7218C148.83 40.2103 148.933 39.6251 148.933 37.6852C148.933 35.7452 148.83 35.157 148.675 34.6469C148.263 33.4203 147.386 32.9886 145.786 32.9886H144.419C144.316 32.9886 144.264 33.039 144.264 33.1404V42.2283ZM139.725 46.1066V29.2619C139.725 29.1088 139.83 29.0055 139.985 29.0055H146.767C149.861 29.0055 152.131 30.2821 153.01 32.9621C153.371 34.0854 153.525 35.0554 153.525 37.6836C153.525 40.2853 153.371 41.2836 153.01 42.4035C152.131 45.0835 149.861 46.3601 146.767 46.3601H139.985C139.83 46.3601 139.725 46.2596 139.725 46.1066ZM127.622 39.7H131.025L129.4 34.2885H129.322L127.622 39.7ZM120.889 46.1066L126.95 29.2636C127 29.1105 127.105 29.0066 127.286 29.0066H131.491C131.672 29.0066 131.775 29.1098 131.827 29.2636L137.758 46.1066C137.809 46.2596 137.733 46.3629 137.578 46.3629H133.32C133.14 46.3629 133.037 46.2597 132.986 46.1066L132.161 43.4266H126.458L125.633 46.1066C125.581 46.2596 125.478 46.3629 125.297 46.3629H121.067C120.912 46.3614 120.834 46.2597 120.887 46.1066H120.889ZM112.651 36.4851C113.94 36.4851 114.713 35.7684 114.713 34.6468C114.713 33.5235 113.94 32.8085 112.651 32.8085H110.224C110.119 32.8085 110.069 32.8589 110.069 32.9616V36.3282C110.069 36.4314 110.119 36.4831 110.224 36.4831H112.649L112.651 36.4851ZM119.409 46.3615H114.946C114.713 46.3615 114.637 46.2847 114.56 46.1045L111.902 40.1847H110.227C110.123 40.1847 110.073 40.2351 110.073 40.3377V46.1042C110.073 46.2573 109.968 46.3612 109.813 46.3612H105.788C105.634 46.3612 105.53 46.258 105.53 46.1042V29.2612C105.53 29.1082 105.634 29.0049 105.788 29.0049H112.934C116.959 29.0049 119.252 31.3282 119.252 34.5964C119.252 36.7663 118.221 38.5263 116.363 39.4463L119.588 46.0562C119.665 46.2062 119.588 46.361 119.405 46.361L119.409 46.3615ZM98.5315 46.3615H94.5064C94.3534 46.3615 94.2486 46.2583 94.2486 46.1045V33.1398C94.2486 33.0384 94.1989 32.988 94.0939 32.988H89.7844C89.6314 32.988 89.5283 32.8847 89.5283 32.7316V29.2616C89.5283 29.1086 89.6314 29.0053 89.7861 29.0053H103.25C103.405 29.0053 103.508 29.1085 103.508 29.2616V32.7316C103.508 32.8847 103.405 32.988 103.25 32.988H98.9423C98.8392 32.988 98.7876 33.0384 98.7876 33.1398V46.1062C98.7876 46.2593 98.6845 46.3614 98.5298 46.3614L98.5315 46.3615ZM209.846 27.6569C210.032 27.6137 210.197 27.5091 210.316 27.36C210.434 27.2109 210.499 27.026 210.5 26.8353H210.497V18.3454C210.496 18.217 210.466 18.0906 210.409 17.9754C210.352 17.8603 210.27 17.7595 210.169 17.6805C210.068 17.6015 209.951 17.5464 209.825 17.5193C209.7 17.4921 209.57 17.4937 209.446 17.5238L197.229 20.4221C196.854 20.5116 196.461 20.4964 196.093 20.3779L190.581 18.5863C190.213 18.4669 189.818 18.4517 189.442 18.5421L176.921 21.532C176.736 21.5749 176.57 21.6792 176.452 21.828C176.333 21.9769 176.268 22.1615 176.267 22.352V30.8402C176.269 30.9688 176.299 31.0955 176.356 31.2108C176.413 31.3261 176.495 31.427 176.597 31.506C176.698 31.5849 176.816 31.64 176.941 31.667C177.067 31.694 177.197 31.6922 177.322 31.6619L189.442 28.7686C189.818 28.6784 190.214 28.6936 190.581 28.8127L196.093 30.606C196.459 30.7225 196.853 30.7395 197.229 30.6501L209.845 27.6585L209.846 27.6569ZM209.846 40.3233C210.032 40.2804 210.197 40.1759 210.316 40.0267C210.435 39.8775 210.5 39.6925 210.5 39.5017H210.497V31.0135C210.496 30.8851 210.466 30.7586 210.409 30.6435C210.352 30.5284 210.27 30.4276 210.169 30.3486C210.068 30.2696 209.951 30.2145 209.825 30.1874C209.7 30.1602 209.57 30.1618 209.446 30.1919L197.229 33.0868C196.854 33.1764 196.461 33.1611 196.093 33.0426L190.581 31.25C190.213 31.1307 189.818 31.1154 189.442 31.2058L176.923 34.1958C176.737 34.2387 176.571 34.3432 176.453 34.4924C176.334 34.6416 176.269 34.8266 176.269 35.0174V43.5039C176.27 43.6326 176.301 43.7592 176.358 43.8745C176.415 43.9898 176.497 44.0907 176.598 44.1697C176.7 44.2486 176.817 44.3037 176.943 44.3307C177.069 44.3577 177.199 44.3559 177.323 44.3256L189.443 41.4323C189.819 41.3422 190.215 41.3573 190.583 41.4765L196.095 43.2698C196.461 43.3881 196.855 43.4033 197.231 43.3139L209.846 40.3233Z" fill="black"/>
</g>
<defs>
<clipPath id="clip0_250_3664">
<rect width="121" height="50" fill="white" transform="translate(89.5 17.5)"/>
</clipPath>
</defs>
</svg>
