<svg width="300" height="85" viewBox="0 0 300 85" fill="none" xmlns="http://www.w3.org/2000/svg">
<rect width="300" height="85" rx="40" fill="white"/>
<path d="M60.3114 32.6875V52.1564H56.0325V32.6875H60.3114Z" fill="#34E834"/>
<path d="M80.0156 44.7754C79.5877 49.5249 76.6353 52.7555 71.3295 52.7555C65.6814 52.7555 61.9587 48.6905 61.9587 42.529C61.9587 36.8594 65.553 32.3452 71.5006 32.3452C76.1646 32.3452 79.5663 35.2976 79.8873 39.3198H75.7153C75.2875 37.1804 73.7043 35.9181 71.4151 35.9181C67.6924 35.9181 66.2376 39.277 66.2376 42.529C66.2376 46.5511 68.2273 49.1184 71.3509 49.1184C73.9182 49.1184 75.4372 47.578 75.8009 44.7326H80.0156V44.7754Z" fill="#34E834"/>
<path d="M83.9731 52.0924V32.6235H90.0492L94.5634 45.995L98.9706 32.6235H104.918V52.0924H100.918V38.2503L96.1466 52.0924H92.8518L88.0381 38.4V52.0924H83.9731Z" fill="black"/>
<path d="M119.744 52.1567V42.2297C119.744 38.3359 116.514 37.6513 113.69 37.6299H113.604C109.539 37.6299 107.314 39.2345 107.101 42.3794H110.716C110.994 40.7749 111.722 40.2186 113.497 40.2186C115.273 40.2186 116.022 40.8177 116.022 42.1013C116.022 43.2352 115.123 43.4706 112.684 43.7915L112.085 43.8771C109.432 44.2408 106.459 44.8184 106.459 48.3057C106.459 50.9586 108.363 52.5632 111.465 52.5632C113.155 52.5632 114.824 51.9855 116.022 50.7874V52.1567H119.744ZM116.022 45.2891V46.8723C116.022 48.9047 114.61 50.0172 112.599 50.0172C111.272 50.0172 110.481 49.3112 110.481 48.1345C110.481 46.4016 111.978 46.2518 113.305 46.0379C114.268 45.8667 115.123 45.8025 116.022 45.2891Z" fill="black"/>
<path d="M124.901 52.1563V43.3418C124.901 42.4218 125.628 41.6944 126.548 41.6944H130.121V37.8862H126.548C123.553 37.8862 121.114 40.3252 121.114 43.3418V52.1563H124.901Z" fill="black"/>
<path d="M162.491 32.6235V37.8866H166.769V41.6948H162.491V46.6797C162.491 47.5996 163.218 48.327 164.138 48.327H166.769V52.1352H164.138C161.143 52.1352 158.704 49.6963 158.704 46.6797V32.6235H162.491Z" fill="black"/>
<path d="M144.284 37.9716L139 43.1918L144.905 52.0705H140.219L136.347 45.8019L134.764 47.2781V52.0705H130.977V32.6016H134.785V43.0206L139.749 37.9502H144.284V37.9716Z" fill="black"/>
<path d="M157.399 47.7064H153.698C153.12 49.1184 152.264 49.7602 150.831 49.7602C148.755 49.7602 147.579 48.4552 147.536 46.0162H157.613V45.6311C157.613 40.689 154.917 37.5654 150.66 37.5654C146.402 37.5654 143.599 40.7318 143.599 45.1177C143.599 49.5035 146.466 52.4987 150.788 52.4987C153.997 52.4987 156.522 50.7658 157.399 47.7064ZM153.676 43.5559H147.515C147.728 41.5876 148.927 40.3895 150.638 40.3895C152.606 40.3681 153.526 41.8229 153.676 43.5559Z" fill="black"/>
<path d="M180.098 42.0797H176.504C176.29 40.6034 175.392 40.1328 173.83 40.1328C172.461 40.1328 171.648 40.6462 171.648 41.5234C171.648 42.5289 172.546 42.8071 174.215 43.1494L175.52 43.4275C177.938 43.941 180.526 44.6898 180.526 47.7064C180.526 50.723 178.109 52.4987 174.087 52.4987C170.578 52.4987 167.54 51.1081 167.497 47.4924H171.177C171.305 49.1826 172.396 49.8458 174.172 49.8458C175.755 49.8458 176.739 49.1612 176.739 48.0915C176.739 46.9362 175.67 46.6794 173.766 46.2516L173.423 46.166C170.942 45.6097 167.797 45.1818 167.797 41.8871C167.797 39.1272 170.022 37.5654 173.958 37.5654C177.21 37.5654 179.991 38.7849 180.098 42.0797Z" fill="black"/>
<path d="M40.8614 45.8237V52.2421H36.5825V45.8237H40.8614Z" fill="black"/>
<path d="M47.2797 38.3354V52.2418H43.0009V38.3354H47.2797Z" fill="black"/>
<path d="M53.6766 42.6143V52.2417H49.3977V42.6143H53.6766Z" fill="black"/>
<path d="M200.836 50.1476C199.268 52.1715 197.219 52.9396 195.252 52.9396C188.956 52.9396 185.25 48.2392 185.25 42.3686C185.25 36.498 188.956 31.6265 195.252 31.6265C199.411 31.6265 203.344 34.1917 203.829 38.8064H199.555C199.041 36.5557 197.362 35.3876 195.252 35.3876C191.235 35.3876 189.724 38.8064 189.724 42.3686C189.724 45.9308 191.235 49.1784 195.252 49.1784C198.158 49.1784 199.839 47.6124 200.096 44.7904H195.595V41.4572H204.142V52.4561H201.292L200.836 50.1476Z" fill="#34E834"/>
<path d="M206.022 32.1099H210.068V52.4538H206.022V32.1099Z" fill="#34E834"/>
<path d="M218.985 37.3257C223.629 37.3257 226.62 40.4022 226.62 45.1047C226.62 49.8072 223.629 52.8537 218.985 52.8537C214.34 52.8537 211.377 49.7772 211.377 45.1047C211.377 40.4322 214.368 37.3257 218.985 37.3257ZM218.985 49.805C221.749 49.805 222.575 47.441 222.575 45.1047C222.575 42.7684 221.749 40.3744 218.985 40.3744C216.22 40.3744 215.422 42.7385 215.422 45.1047C215.422 47.4709 216.248 49.805 218.985 49.805Z" fill="#34E834"/>
<path d="M227.818 32.1099H231.864V39.5187H231.922C232.919 38.0083 234.742 37.3258 236.567 37.3258C239.502 37.3258 242.664 39.6899 242.664 45.0749C242.664 50.4599 239.502 52.8539 236.567 52.8539C234.401 52.8539 232.606 52.1992 231.723 50.5754H231.665V52.4559H227.818V32.1099ZM235.169 40.3724C232.775 40.3724 231.723 42.6231 231.723 45.1027C231.723 47.5823 232.778 49.803 235.169 49.803C237.561 49.803 238.616 47.5524 238.616 45.1027C238.616 42.653 237.561 40.3724 235.169 40.3724Z" fill="#34E834"/>
<path d="M243.631 42.255C243.86 38.466 247.249 37.3257 250.554 37.3257C253.49 37.3257 257.022 37.9804 257.022 41.5147V49.1803C257.022 50.5196 257.165 51.8589 257.535 52.458H253.432C253.289 52.0023 253.175 51.5166 253.147 51.0331C251.866 52.3724 249.985 52.8559 248.19 52.8559C245.398 52.8559 243.176 51.4588 243.176 48.4401C243.176 45.1068 245.683 44.3088 248.19 43.9665C250.67 43.5964 252.976 43.682 252.976 42.0282C252.976 40.2909 251.78 40.0342 250.356 40.0342C248.817 40.0342 247.82 40.6611 247.677 42.2571H243.631V42.255ZM252.976 45.2459C252.292 45.8449 250.867 45.8728 249.615 46.1017C248.362 46.3584 247.221 46.7863 247.221 48.2668C247.221 49.7473 248.389 50.1474 249.701 50.1474C252.863 50.1474 252.978 47.6399 252.978 46.7563V45.2459H252.976Z" fill="#34E834"/>
<path d="M258.847 32.1099H262.893V52.4538H258.847V32.1099Z" fill="#34E834"/>
</svg>
