<svg width="300" height="85" viewBox="0 0 300 85" fill="none" xmlns="http://www.w3.org/2000/svg">
<rect width="300" height="85" rx="40" fill="white"/>
<g clip-path="url(#clip0_250_3506)">
<path fill-rule="evenodd" clip-rule="evenodd" d="M179.569 24.5H185.962V60.1976H179.569V24.5ZM231.344 39.5396V34H224.733V26.7775H218.34V53.1085C218.34 55.528 218.948 57.3717 220.147 58.5889C221.346 59.807 223.214 60.4245 225.699 60.4245H231.344V54.885H227.214C226.315 54.885 225.671 54.6873 225.298 54.2971C224.955 53.9399 224.733 53.0377 224.733 51.9987V39.5396H231.344ZM136.141 53.2494L142.752 33.9992H149.468L139.926 60.1979H132.357L122.814 33.9992H129.531L136.141 53.2494ZM207.919 47.1236C207.919 48.7822 207.667 50.2252 207.173 51.4123C206.681 52.5929 205.978 53.4981 205.081 54.1019C204.183 54.7057 203.081 55.0119 201.803 55.0119C199.975 55.0119 198.595 54.4107 197.704 53.2256C196.802 52.028 196.345 50.2128 196.345 47.8308V33.9999H189.952V48.538C189.952 50.8017 190.234 52.7218 190.793 54.2441C191.351 55.7711 192.119 57.0132 193.074 57.9352C194.028 58.8563 195.142 59.5215 196.385 59.9131C197.622 60.3027 198.953 60.5 200.34 60.5C202.339 60.5 203.993 60.1372 205.256 59.4216C206.407 58.7669 207.373 58.0016 208.128 57.1433L208.7 60.1975H214.312V33.9999H207.919V47.1236ZM169.796 35.3815C167.781 34.2636 165.389 33.6972 162.686 33.6972C160.016 33.6972 157.633 34.2636 155.601 35.3811C153.567 36.5016 151.969 38.0839 150.851 40.0841C149.735 42.0824 149.169 44.451 149.169 47.1236C149.169 49.7636 149.735 52.1156 150.851 54.1139C151.969 56.1134 153.567 57.6954 155.601 58.8157C157.633 59.9333 160.016 60.4997 162.686 60.4997C165.389 60.4997 167.781 59.9333 169.796 58.8153C171.813 57.6956 173.403 56.1137 174.52 54.1139C175.637 52.1145 176.203 49.7624 176.203 47.1236C176.203 44.452 175.637 42.0834 174.52 40.084C173.402 38.0836 171.813 36.5012 169.796 35.3815ZM166.418 54.1004C165.388 54.7716 164.133 55.1122 162.686 55.1122C161.273 55.1122 160.026 54.7717 158.978 54.1002C157.929 53.4279 157.107 52.4791 156.532 51.2796C155.956 50.079 155.663 48.681 155.663 47.1236C155.663 45.5342 155.956 44.1281 156.532 42.9438C157.106 41.7605 157.93 40.8114 158.98 40.1222C160.027 39.4337 161.274 39.0847 162.686 39.0847C164.132 39.0847 165.387 39.4337 166.417 40.1214C167.45 40.811 168.266 41.7605 168.841 42.9442C169.417 44.1313 169.709 45.5375 169.709 47.1238C169.709 48.6775 169.417 50.076 168.841 51.2796C168.266 52.4793 167.451 53.4283 166.418 54.1004ZM75.1443 33.31H68.5V60.1979H75.1443V33.31ZM95.9804 34.8476C95.9804 29.1422 91.338 24.5004 85.6313 24.5004H68.5V30.2425H84.8167C87.3993 30.2425 89.5386 32.273 89.5859 34.7685C89.6095 36.0181 89.1409 37.1974 88.2664 38.0892C87.3916 38.9812 86.2227 39.4729 84.9751 39.4729H78.6189C78.3932 39.4729 78.2095 39.6563 78.2095 39.8822V44.9856C78.2095 45.0724 78.2363 45.1553 78.2867 45.2252L89.071 60.1981H96.9653L86.1559 45.1842C91.5996 44.9108 95.9804 40.3335 95.9804 34.8476ZM116.411 35.229C114.497 34.2124 112.225 33.6972 109.656 33.6972C107.085 33.6972 104.786 34.2639 102.823 35.3822C100.857 36.5016 99.3101 38.0843 98.2258 40.0854C97.1426 42.0821 96.5936 44.4672 96.5936 47.1748C96.5936 49.8137 97.151 52.165 98.2512 54.1637C99.3538 56.167 100.944 57.7408 102.977 58.8414C105.006 59.9421 107.441 60.5 110.211 60.5C112.41 60.5 114.384 60.0879 116.079 59.2744C117.774 58.4589 119.158 57.3484 120.192 55.9736C121.175 54.6669 121.838 53.189 122.163 51.5813L122.197 51.4098H115.839L115.809 51.5128C115.459 52.712 114.78 53.6594 113.79 54.3296C112.727 55.0502 111.422 55.4157 109.91 55.4157C108.628 55.4157 107.47 55.1408 106.469 54.5988C105.473 54.0599 104.694 53.2893 104.155 52.3075C103.613 51.3224 103.305 50.1369 103.239 48.7915V48.5811H122.444L122.465 48.4636C122.532 48.0949 122.575 47.7148 122.594 47.3327C122.61 46.9603 122.619 46.5884 122.619 46.2129C122.585 43.6746 122.018 41.4419 120.934 39.5762C119.847 37.7084 118.325 36.2457 116.411 35.229ZM114.081 40.1627C115.174 41.0827 115.853 42.3901 116.103 44.0511H103.46C103.604 42.9734 103.962 42.04 104.523 41.2743C105.113 40.4712 105.868 39.8402 106.767 39.3987C107.668 38.9559 108.657 38.7311 109.707 38.7311C111.481 38.731 112.953 39.2128 114.081 40.1627Z" fill="black"/>
</g>
<defs>
<clipPath id="clip0_250_3506">
<rect width="163" height="36" fill="white" transform="translate(68.5 24.5)"/>
</clipPath>
</defs>
</svg>
