<svg width="300" height="85" viewBox="0 0 300 85" fill="none" xmlns="http://www.w3.org/2000/svg">
<rect width="300" height="85" rx="40" fill="white"/>
<g clip-path="url(#clip0_234_1574)">
<path fill-rule="evenodd" clip-rule="evenodd" d="M159.746 55.8706L155.682 48.6727L151.711 55.8706H141.916L150.988 42.2549L142.276 29.7427H152.207L155.728 36.0238L159.339 29.7427H169.177L160.466 42.2549L169.584 55.8706H159.746Z" fill="black"/>
<path fill-rule="evenodd" clip-rule="evenodd" d="M213.168 56.6041C209.864 56.6041 207.433 55.2705 205.54 52.4333V55.9173H197.145V21.7346H205.5V33.0433C207.215 30.3761 209.877 28.9659 213.263 28.9659C219.355 28.9659 224.007 34.4635 224.007 42.945C224.007 51.1965 219.494 56.6141 213.174 56.6141M210.455 35.6704C207.297 35.6704 205.401 38.1442 205.401 42.5449C205.401 47.3124 207.115 49.7862 210.274 49.7862C213.432 49.7862 215.285 47.2658 215.285 42.5449C215.288 38.2242 213.392 35.6704 210.455 35.6704Z" fill="black"/>
<path fill-rule="evenodd" clip-rule="evenodd" d="M190.333 36.1807V29.7429H186.009V21.7415H177.605V29.7429H174.172V36.1807H177.605V47.6727C177.605 49.643 176.438 59.1213 190.241 55.9241V50.4632C189.881 50.4976 189.519 50.512 189.157 50.5065C186.495 50.5065 185.999 49.3596 185.999 46.2458V36.1807H190.333Z" fill="black"/>
<path fill-rule="evenodd" clip-rule="evenodd" d="M77.4272 71.01H130.701C130.888 71.0104 131.074 70.9735 131.247 70.9013C131.421 70.829 131.578 70.723 131.711 70.5891C131.843 70.4553 131.948 70.2964 132.02 70.1214C132.092 69.9465 132.128 69.759 132.128 69.5698V15.4403C132.128 15.251 132.092 15.0635 132.02 14.8886C131.948 14.7136 131.843 14.5547 131.711 14.4209C131.578 14.287 131.421 14.181 131.247 14.1087C131.074 14.0365 130.888 13.9996 130.701 14H77.4272C77.2397 13.9996 77.0539 14.0365 76.8805 14.1087C76.7072 14.181 76.5497 14.287 76.4171 14.4209C76.2845 14.5547 76.1794 14.7136 76.1078 14.8886C76.0362 15.0635 75.9996 15.251 76.0001 15.4403V69.5597C75.9983 69.7498 76.034 69.9384 76.1049 70.1145C76.1759 70.2906 76.2808 70.4507 76.4136 70.5856C76.5463 70.7205 76.7042 70.8275 76.8782 70.9003C77.0522 70.9732 77.2388 71.0105 77.4272 71.01ZM114.143 54.4204C113.909 54.1971 113.671 53.9737 113.433 53.7536C110.831 51.3673 108.051 49.1861 105.118 47.2292C102.404 48.896 99.5989 50.4075 96.7168 51.7566L79.2078 48.216C82.6324 47.3265 85.996 46.2128 89.2771 44.8821C91.4795 43.993 93.6191 43.004 95.696 41.9149C94.3745 41.2903 93.0421 40.7025 91.6986 40.1513C88.4183 38.8215 85.0559 37.7079 81.6326 36.8173L99.1251 33.2467C101.107 34.1735 103.033 35.1659 104.903 36.2239C107.036 34.6889 109.078 33.0291 111.018 31.253C111.259 31.0363 111.494 30.8163 111.731 30.5862L126.502 27.7557C122.692 32.9386 118.213 37.5849 113.185 41.5715C119.19 45.9536 124.494 51.238 128.913 57.2409L114.143 54.4104V54.4204Z" fill="#FF0000"/>
</g>
<defs>
<clipPath id="clip0_234_1574">
<rect width="148" height="57" fill="white" transform="translate(76 14)"/>
</clipPath>
</defs>
</svg>
