<svg width="300" height="85" viewBox="0 0 300 85" fill="none" xmlns="http://www.w3.org/2000/svg">
<rect width="300" height="85" rx="40" fill="white"/>
<path d="M60.3114 32.6875V52.1564H56.0325V32.6875H60.3114Z" fill="#34E834"/>
<path d="M80.0156 44.7759C79.5877 49.5254 76.6353 52.756 71.3295 52.756C65.6814 52.756 61.9587 48.691 61.9587 42.5295C61.9587 36.8599 65.553 32.3457 71.5006 32.3457C76.1646 32.3457 79.5663 35.2981 79.8873 39.3203H75.7153C75.2875 37.1808 73.7043 35.9186 71.4151 35.9186C67.6924 35.9186 66.2376 39.2775 66.2376 42.5295C66.2376 46.5516 68.2273 49.1189 71.3509 49.1189C73.9182 49.1189 75.4372 47.5785 75.8009 44.7331H80.0156V44.7759Z" fill="#34E834"/>
<path d="M83.9731 52.0919V32.623H90.0492L94.5634 45.9945L98.9706 32.623H104.918V52.0919H100.917V38.2498L96.1466 52.0919H92.8518L88.0381 38.3995V52.0919H83.9731Z" fill="black"/>
<path d="M119.745 52.1557V42.2287C119.745 38.3349 116.514 37.6503 113.69 37.6289H113.604C109.539 37.6289 107.314 39.2335 107.101 42.3784H110.716C110.994 40.7739 111.722 40.2176 113.497 40.2176C115.273 40.2176 116.022 40.8167 116.022 42.1003C116.022 43.2342 115.123 43.4696 112.684 43.7905L112.085 43.8761C109.432 44.2398 106.459 44.8174 106.459 48.3047C106.459 50.9576 108.363 52.5622 111.465 52.5622C113.155 52.5622 114.824 51.9845 116.022 50.7864V52.1557H119.745ZM116.022 45.2881V46.8713C116.022 48.9037 114.61 50.0162 112.599 50.0162C111.272 50.0162 110.481 49.3102 110.481 48.1335C110.481 46.4006 111.978 46.2508 113.305 46.0369C114.268 45.8657 115.123 45.8015 116.022 45.2881Z" fill="black"/>
<path d="M124.901 52.1568V43.3423C124.901 42.4223 125.628 41.6949 126.548 41.6949H130.121V37.8867H126.548C123.553 37.8867 121.114 40.3257 121.114 43.3423V52.1568H124.901Z" fill="black"/>
<path d="M162.491 32.623V37.8861H166.769V41.6943H162.491V46.6792C162.491 47.5991 163.218 48.3265 164.138 48.3265H166.769V52.1347H164.138C161.143 52.1347 158.704 49.6958 158.704 46.6792V32.623H162.491Z" fill="black"/>
<path d="M144.284 37.9716L139 43.1918L144.905 52.0705H140.219L136.347 45.8019L134.764 47.2781V52.0705H130.977V32.6016H134.785V43.0206L139.749 37.9502H144.284V37.9716Z" fill="black"/>
<path d="M157.399 47.7074H153.698C153.12 49.1194 152.264 49.7612 150.831 49.7612C148.755 49.7612 147.579 48.4562 147.536 46.0172H157.613V45.6321C157.613 40.69 154.917 37.5664 150.66 37.5664C146.402 37.5664 143.599 40.7328 143.599 45.1187C143.599 49.5045 146.466 52.4997 150.788 52.4997C153.997 52.4997 156.522 50.7668 157.399 47.7074ZM153.676 43.5569H147.515C147.728 41.5886 148.927 40.3905 150.638 40.3905C152.606 40.3691 153.526 41.8239 153.676 43.5569Z" fill="black"/>
<path d="M180.098 42.0807H176.504C176.29 40.6044 175.392 40.1338 173.83 40.1338C172.461 40.1338 171.648 40.6472 171.648 41.5244C171.648 42.5299 172.546 42.8081 174.215 43.1504L175.52 43.4285C177.938 43.942 180.526 44.6908 180.526 47.7074C180.526 50.724 178.109 52.4997 174.087 52.4997C170.578 52.4997 167.54 51.1091 167.497 47.4934H171.177C171.305 49.1836 172.396 49.8468 174.172 49.8468C175.755 49.8468 176.739 49.1622 176.739 48.0925C176.739 46.9372 175.67 46.6804 173.766 46.2526L173.423 46.167C170.942 45.6107 167.797 45.1828 167.797 41.8881C167.797 39.1282 170.022 37.5664 173.958 37.5664C177.21 37.5664 179.991 38.7859 180.098 42.0807Z" fill="black"/>
<path d="M40.8614 45.8242V52.2426H36.5825V45.8242H40.8614Z" fill="black"/>
<path d="M47.2797 38.3359V52.2423H43.0009V38.3359H47.2797Z" fill="black"/>
<path d="M53.6766 42.6152V52.2426H49.3977V42.6152H53.6766Z" fill="black"/>
<path d="M200.836 50.1481C199.268 52.172 197.219 52.9401 195.252 52.9401C188.956 52.9401 185.25 48.2397 185.25 42.3691C185.25 36.4985 188.956 31.627 195.252 31.627C199.411 31.627 203.344 34.1922 203.829 38.8069H199.555C199.041 36.5562 197.362 35.3881 195.252 35.3881C191.235 35.3881 189.724 38.8069 189.724 42.3691C189.724 45.9313 191.235 49.1789 195.252 49.1789C198.158 49.1789 199.839 47.6129 200.096 44.7909H195.595V41.4577H204.142V52.4566H201.292L200.836 50.1481Z" fill="#34E834"/>
<path d="M206.022 32.1094H210.068V52.4533H206.022V32.1094Z" fill="#34E834"/>
<path d="M218.985 37.3262C223.629 37.3262 226.62 40.4027 226.62 45.1052C226.62 49.8077 223.629 52.8542 218.985 52.8542C214.34 52.8542 211.377 49.7777 211.377 45.1052C211.377 40.4327 214.368 37.3262 218.985 37.3262ZM218.985 49.8055C221.749 49.8055 222.575 47.4415 222.575 45.1052C222.575 42.7689 221.749 40.3749 218.985 40.3749C216.22 40.3749 215.422 42.739 215.422 45.1052C215.422 47.4714 216.248 49.8055 218.985 49.8055Z" fill="#34E834"/>
<path d="M227.818 32.1094H231.864V39.5182H231.922C232.919 38.0078 234.742 37.3253 236.567 37.3253C239.502 37.3253 242.664 39.6894 242.664 45.0744C242.664 50.4594 239.502 52.8534 236.567 52.8534C234.401 52.8534 232.606 52.1987 231.723 50.5749H231.665V52.4554H227.818V32.1094ZM235.169 40.3719C232.775 40.3719 231.723 42.6226 231.723 45.1022C231.723 47.5818 232.778 49.8025 235.169 49.8025C237.561 49.8025 238.616 47.5519 238.616 45.1022C238.616 42.6525 237.561 40.3719 235.169 40.3719Z" fill="#34E834"/>
<path d="M243.631 42.2555C243.86 38.4665 247.249 37.3262 250.554 37.3262C253.49 37.3262 257.022 37.9808 257.022 41.5152V49.1808C257.022 50.5201 257.165 51.8594 257.535 52.4585H253.432C253.289 52.0028 253.175 51.5171 253.147 51.0336C251.866 52.3729 249.985 52.8564 248.19 52.8564C245.398 52.8564 243.176 51.4593 243.176 48.4406C243.176 45.1073 245.683 44.3093 248.19 43.967C250.67 43.5969 252.976 43.6825 252.976 42.0287C252.976 40.2914 251.78 40.0347 250.356 40.0347C248.817 40.0347 247.82 40.6616 247.677 42.2576H243.631V42.2555ZM252.976 45.2464C252.292 45.8454 250.867 45.8733 249.615 46.1022C248.362 46.3589 247.221 46.7868 247.221 48.2673C247.221 49.7478 248.389 50.1479 249.701 50.1479C252.863 50.1479 252.978 47.6404 252.978 46.7568V45.2464H252.976Z" fill="#34E834"/>
<path d="M258.847 32.1094H262.893V52.4533H258.847V32.1094Z" fill="#34E834"/>
</svg>
