<svg width="300" height="85" viewBox="0 0 300 85" fill="none" xmlns="http://www.w3.org/2000/svg">
<rect width="300" height="85" rx="40" fill="white"/>
<path d="M133.971 23V62H126.457V23H133.971ZM158.2 22.025H158.002C152.683 22.2127 147.646 24.464 143.958 28.3019C140.271 32.1398 138.223 37.2627 138.248 42.5849C138.274 47.907 140.371 53.0102 144.094 56.8128C147.818 60.6154 152.876 62.8186 158.197 62.9556C163.965 62.9556 169.896 60.6123 173.718 56.8358V39.523H157.475V46.725H166.412V53.0755L166.315 53.1373C163.897 54.7131 161.076 55.5614 158.19 55.5813C156.414 55.5779 154.657 55.2136 153.026 54.5105C151.395 53.8074 149.924 52.7802 148.702 51.4911C147.48 50.2021 146.533 48.6782 145.918 47.0119C145.303 45.3456 145.033 43.5718 145.125 41.798C145.328 38.5869 146.693 35.5595 148.966 33.2822C151.239 31.005 154.264 29.6338 157.475 29.4253C161.131 29.214 164.625 30.7253 167.394 33.3773C167.492 33.4748 167.602 33.5918 167.719 33.738L172.919 28.538L172.594 28.1773C170.741 26.2244 168.508 24.6712 166.033 23.6131C163.557 22.5551 160.892 22.0147 158.2 22.025Z" fill="#E01B1C"/>
</svg>
