<svg width="300" height="85" viewBox="0 0 300 85" fill="none" xmlns="http://www.w3.org/2000/svg">
<rect width="300" height="85" rx="40" fill="white"/>
<path d="M67.3128 18.1895C76.2846 18.1895 83.4213 25.3179 83.4213 34.2795C83.4213 43.2418 76.2846 50.3695 67.3128 50.3695C58.3402 50.3695 51.2043 43.2418 51.2043 34.2795C51.2043 25.3179 58.3402 18.1895 67.3128 18.1895ZM59.2759 27.5664V30.2302H75.3497V27.5664H59.2759ZM75.3497 40.9925V32.9295H59.2759V40.9918H61.9435V37.9464C61.9435 37.0818 62.1515 36.5971 62.4626 36.251C62.8091 35.8364 63.329 35.5941 63.9528 35.5941C64.5766 35.5941 65.0956 35.8364 65.4422 36.251C65.7541 36.5971 65.962 37.0818 65.962 37.9464V40.9918H68.6643V37.9464C68.6643 37.0818 68.8723 36.5971 69.1842 36.251C69.5307 35.8364 70.0505 35.5941 70.6736 35.5941C71.2966 35.5941 71.8164 35.8364 72.163 36.251C72.4749 36.5971 72.6828 37.0818 72.6828 37.9464V40.9918L75.3497 40.9925Z" fill="#FA5B35"/>
<path d="M93.2287 28.2243C93.2287 31.1304 97.3858 31.7189 100.503 33.5181C102.443 34.625 104.036 36.425 104.036 39.4697C104.036 43.8289 100.469 46.5635 96.5194 46.5635C92.5702 46.5635 89.7293 44.6597 88.6211 43.4489L90.1798 40.1612H90.3184C91.6346 41.442 93.6438 42.6527 96.2422 42.6527C97.9403 42.6527 99.7754 41.6489 99.7754 39.6766C99.7754 36.7358 95.6184 36.1473 92.5009 34.3481C90.561 33.2412 88.9676 31.442 88.9676 28.3966C88.9676 24.0366 92.5702 21.3027 96.5887 21.3027C100.365 21.3027 102.928 23.2066 104.036 24.2443L102.478 27.5312H102.339C100.988 26.3197 99.291 25.212 96.9353 25.212C95.0646 25.2135 93.2287 26.2174 93.2287 28.2243ZM104.66 32.2035H108.748L111.172 39.2281H111.311L114.74 29.4358H117.512L121.115 39.332H121.253L124.717 29.4358H128.597L122.673 46.0443H119.971L116.16 35.595H116.022L112.35 46.0443H109.578L104.66 32.2035ZM130.296 22.515H134.418V26.4943H130.296V22.515ZM130.365 29.435H134.349V46.0435H130.365V29.435ZM143.633 46.5635C141.277 46.5635 138.99 45.6635 137.397 44.142L138.505 41.165H138.644C139.891 42.272 141.484 43.1381 143.32 43.1381C144.705 43.1381 145.607 42.5497 145.607 41.5112C145.607 40.4381 144.463 40.0227 143.043 39.5727C140.756 38.8466 137.743 37.7389 137.743 34.2789C137.743 31.095 140.237 28.915 143.805 28.915C145.745 28.915 147.72 29.6066 149.348 30.8873L148.24 33.8973H148.101C146.923 32.9627 145.399 32.3404 144.117 32.3404C142.558 32.3404 141.657 32.9289 141.657 33.9666C141.657 35.0397 142.8 35.455 144.221 35.905C146.508 36.6312 149.521 37.7389 149.521 41.1989C149.522 44.3835 147.028 46.5635 143.633 46.5635ZM157.871 46.5635C155.515 46.5635 153.228 45.6635 151.635 44.142L152.743 41.165H152.882C154.129 42.272 155.722 43.1381 157.559 43.1381C158.944 43.1381 159.845 42.5497 159.845 41.5112C159.845 40.4381 158.702 40.0227 157.281 39.5727C154.995 38.8466 151.982 37.7389 151.982 34.2789C151.982 31.095 154.476 28.915 158.044 28.915C159.984 28.915 161.958 29.6066 163.586 30.8873L162.478 33.8973H162.34C161.161 32.9627 159.637 32.3404 158.355 32.3404C156.796 32.3404 155.896 32.9289 155.896 33.9666C155.896 35.0397 157.039 35.455 158.459 35.905C160.746 36.6312 163.76 37.7389 163.76 41.1989C163.76 44.3835 161.266 46.5635 157.871 46.5635ZM182.085 29.435V53.3112H178.102V44.8327C176.959 45.9058 175.295 46.5635 173.702 46.5635C168.991 46.5635 165.977 42.9289 165.977 37.912C165.977 33.2066 169.199 28.9158 174.118 28.9158C175.642 28.9158 177.131 29.5043 178.309 30.4381H178.448V29.4343L182.085 29.435ZM178.102 33.7604C177.27 32.9989 175.954 32.5497 174.742 32.5497C171.901 32.5497 170.065 34.7643 170.065 37.8781C170.065 40.6812 171.658 42.9297 174.499 42.9297C175.85 42.9297 177.132 42.4112 178.102 41.3735L178.102 33.7604ZM189.429 39.3658C189.429 40.8197 189.672 41.442 190.088 41.9612C190.607 42.5843 191.438 42.9981 192.374 42.9981C193.309 42.9981 194.141 42.5835 194.661 41.9612C195.076 41.442 195.318 40.8197 195.318 39.3658V29.435H199.302V38.9504C199.302 41.6497 198.575 43.345 197.328 44.5566C196.081 45.802 194.314 46.5635 192.201 46.5635C190.261 46.5635 188.564 45.8366 187.351 44.625C186.138 43.4143 185.445 41.6835 185.445 38.9504V29.435H189.429V39.3658ZM202.039 37.9127C202.039 32.6189 205.642 28.9166 210.7 28.9166C215.757 28.9166 219.36 32.6189 219.36 37.5673C219.36 42.8612 215.757 46.5643 210.7 46.5643C205.642 46.5643 202.039 42.8604 202.039 37.9127ZM210.7 32.5497C208.032 32.5497 206.127 34.7989 206.127 37.7397C206.127 40.6804 208.033 42.9297 210.7 42.9297C213.367 42.9297 215.273 40.6812 215.273 37.7397C215.273 34.7981 213.367 32.5497 210.7 32.5497ZM232.871 42.7912V45.8704C231.796 46.3197 230.619 46.5627 229.302 46.5627C227.535 46.5627 226.219 46.0427 225.318 45.1427C224.348 44.175 223.863 42.7558 223.863 40.2304V32.8943H220.053V29.4343H223.863V23.8989H227.847V29.435H232.87V32.895H227.847V40.7497C227.847 41.615 228.02 42.0997 228.297 42.4104C228.782 42.9635 229.579 43.1035 230.445 43.1035C231.346 43.1035 232.419 42.895 232.731 42.7912H232.871ZM242.639 46.5635C237.79 46.5635 234.152 43.1381 234.152 37.912C234.152 33.1373 237.062 28.9158 242.224 28.9158C246.623 28.9158 249.567 32.4104 249.567 37.2204V38.535H238.309C238.413 41.1304 240.214 43.0689 242.847 43.0689C244.545 43.0689 246.104 42.3758 247.524 41.1997H247.662L249.152 43.9674C247.594 45.6289 245.272 46.5635 242.639 46.5635ZM245.584 35.4212C245.55 33.8643 244.337 32.3066 242.294 32.3066C240.284 32.3066 238.934 33.6566 238.518 35.4212H245.584Z" fill="#323232"/>
<path d="M88.6226 60.5293H93.204V61.4624H91.4228V66.4624H90.4047V61.4624H88.6234L88.6226 60.5293Z" fill="#323232"/>
<path d="M98.0427 63.875H95.1154V66.4604H94.0974V60.5273H95.1154V62.9435H98.0427V60.5273H99.0607V66.4604H98.0427V63.875Z" fill="#323232"/>
<path d="M100.505 60.5293H103.984V61.4439H101.524V62.9447H103.857V63.8339H101.524V65.547H103.984V66.4616H100.505V60.5293Z" fill="#323232"/>
<path d="M107.941 62.0962C107.941 62.8085 108.959 62.9523 109.722 63.3931C110.197 63.6639 110.588 64.1054 110.588 64.8508C110.588 65.9193 109.714 66.5877 108.746 66.5877C107.779 66.5877 107.084 66.1223 106.812 65.8262L107.194 65.0208H107.228C107.55 65.3346 108.043 65.6308 108.679 65.6308C109.095 65.6308 109.544 65.3846 109.544 64.9023C109.544 64.1808 108.526 64.0385 107.762 63.597C107.287 63.3262 106.897 62.8847 106.897 62.1393C106.897 61.0708 107.779 60.4023 108.763 60.4023C109.688 60.4023 110.316 60.8677 110.588 61.1223L110.206 61.9277H110.172C109.841 61.6316 109.426 61.36 108.848 61.36C108.391 61.3585 107.941 61.6047 107.941 62.0962Z" fill="#323232"/>
<path d="M110.947 60.5293H111.99L113.475 64.5978H113.509L114.892 60.5293H115.613L117.038 64.5978H117.072L118.557 60.5293H119.558L117.395 66.4624H116.673L115.256 62.3516H115.222L113.831 66.4624H113.11L110.947 60.5293Z" fill="#323232"/>
<path d="M120.3 60.5293H121.318V66.4624H120.3V60.5293Z" fill="#323232"/>
<path d="M123.508 62.0962C123.508 62.8085 124.526 62.9523 125.289 63.3931C125.765 63.6639 126.155 64.1054 126.155 64.8508C126.155 65.9193 125.281 66.5877 124.314 66.5877C123.346 66.5877 122.651 66.1223 122.379 65.8262L122.761 65.0208H122.795C123.117 65.3346 123.61 65.6308 124.246 65.6308C124.662 65.6308 125.111 65.3846 125.111 64.9023C125.111 64.1808 124.093 64.0385 123.329 63.597C122.854 63.3262 122.464 62.8847 122.464 62.1393C122.464 61.0708 123.346 60.4023 124.331 60.4023C125.255 60.4023 125.883 60.8677 126.155 61.1223L125.773 61.9277H125.739C125.408 61.6316 124.993 61.36 124.415 61.36C123.958 61.3585 123.508 61.6047 123.508 62.0962Z" fill="#323232"/>
<path d="M128.006 62.0962C128.006 62.8085 129.024 62.9523 129.788 63.3931C130.263 63.6639 130.653 64.1054 130.653 64.8508C130.653 65.9193 129.779 66.5877 128.812 66.5877C127.845 66.5877 127.149 66.1223 126.877 65.8262L127.259 65.0208H127.293C127.615 65.3346 128.108 65.6308 128.744 65.6308C129.16 65.6308 129.61 65.3846 129.61 64.9023C129.61 64.1808 128.592 64.0385 127.828 63.597C127.352 63.3262 126.962 62.8847 126.962 62.1393C126.962 61.0708 127.845 60.4023 128.829 60.4023C129.754 60.4023 130.381 60.8677 130.653 61.1223L130.271 61.9277H130.237C129.906 61.6316 129.491 61.36 128.914 61.36C128.456 61.3585 128.006 61.6047 128.006 62.0962Z" fill="#323232"/>
<path d="M133.762 60.5293H134.78V65.5293H137.241V66.4624H133.762V60.5293Z" fill="#323232"/>
<path d="M138.142 60.5293H141.62V61.4439H139.16V62.9447H141.493V63.8339H139.16V65.547H141.62V66.4616H138.142V60.5293Z" fill="#323232"/>
<path d="M142.046 66.4604L144.71 60.5273H145.432L148.104 66.4604H147.027L146.34 64.9343H143.777L143.09 66.4604H142.046ZM145.033 62.0543L144.176 64.045H145.932L145.067 62.0543H145.033Z" fill="#323232"/>
<path d="M148.76 60.5293H150.669C151.67 60.5293 152.434 60.8524 152.969 61.3854C153.503 61.9116 153.809 62.6478 153.809 63.4531C153.809 64.3008 153.486 65.047 152.952 65.5893C152.417 66.1316 151.67 66.4624 150.669 66.4624H148.76V60.5293ZM149.778 61.4616V65.5285H150.559C151.357 65.5285 151.883 65.2908 152.247 64.9024C152.569 64.5555 152.765 64.0808 152.765 63.5385C152.765 62.9539 152.578 62.4616 152.247 62.0978C151.882 61.6993 151.356 61.4624 150.559 61.4624L149.778 61.4616Z" fill="#323232"/>
<path d="M154.889 60.5293H158.367V61.4439H155.907V62.9447H158.24V63.8339H155.907V65.547H158.367V66.4616H154.889V60.5293Z" fill="#323232"/>
<path d="M161.898 63.9785L164.197 66.4624H162.866L160.626 63.9785H160.592V66.4624H159.574V60.5293H161.457C162.128 60.5293 162.586 60.7155 162.899 61.0293C163.214 61.3431 163.392 61.7747 163.392 62.2493C163.392 63.1901 162.747 63.8947 161.899 63.9439V63.9785H161.898ZM160.592 61.4439V63.1308H161.33C161.788 63.1308 162.025 63.0124 162.179 62.8262C162.29 62.6908 162.349 62.5285 162.349 62.3347C162.349 62.1047 162.281 61.9108 162.171 61.7578C162.018 61.5624 161.789 61.4439 161.331 61.4439H160.592Z" fill="#323232"/>
<path d="M166.653 60.5293H167.671V66.4624H166.653V60.5293Z" fill="#323232"/>
<path d="M174.502 66.4604H173.823L170.166 62.3412H170.132V66.4604H169.114V60.5273H169.793L173.45 64.6466H173.484V60.5273H174.502V66.4604Z" fill="#323232"/>
<path d="M180.606 60.4023C182.354 60.4023 183.618 61.7062 183.618 63.4523C183.618 65.2839 182.353 66.5877 180.606 66.5877C178.859 66.5877 177.594 65.2839 177.594 63.5377C177.594 61.707 178.859 60.4023 180.606 60.4023ZM180.606 61.3508C179.452 61.3508 178.638 62.2416 178.638 63.4962C178.638 64.7493 179.452 65.64 180.606 65.64C181.76 65.64 182.574 64.7493 182.574 63.4962C182.574 62.2416 181.76 61.3508 180.606 61.3508Z" fill="#323232"/>
<path d="M190.094 66.4604H189.415L185.758 62.3412H185.724V66.4604H184.706V60.5273H185.385L189.042 64.6466H189.076V60.5273H190.094V66.4604Z" fill="#323232"/>
<path d="M191.539 60.5293H192.557V65.5293H195.017V66.4624H191.538L191.539 60.5293Z" fill="#323232"/>
<path d="M195.919 60.5293H196.937V66.4624H195.919V60.5293Z" fill="#323232"/>
<path d="M203.768 66.4604H203.089L199.432 62.3412H199.398V66.4604H198.38V60.5273H199.059L202.716 64.6466H202.75V60.5273H203.768V66.4604Z" fill="#323232"/>
<path d="M205.213 60.5293H208.692V61.4439H206.232V62.9447H208.565V63.8339H206.232V65.547H208.692V66.4616H205.213V60.5293Z" fill="#323232"/>
<path d="M215.159 63.3085C215.618 63.5131 216.016 64.0624 216.016 64.7239C216.016 65.1985 215.813 65.6224 215.507 65.9362C215.185 66.267 214.744 66.4624 214.081 66.4624H211.901V60.5293H213.937C214.565 60.5293 214.981 60.7078 215.278 61.0039C215.575 61.3016 215.762 61.7162 215.762 62.1562C215.762 62.6401 215.516 63.0639 215.159 63.2755V63.3085ZM212.92 61.4439V62.9447H213.794C214.252 62.9447 214.489 62.817 214.617 62.6139C214.684 62.5039 214.718 62.3762 214.718 62.2416C214.718 62.0301 214.659 61.8601 214.557 61.7247C214.421 61.5462 214.218 61.4439 213.794 61.4439H212.92ZM212.92 63.8339V65.547H213.947C214.412 65.547 214.65 65.4193 214.803 65.2239C214.905 65.0885 214.973 64.9193 214.973 64.7324C214.973 64.537 214.922 64.3685 214.837 64.2247C214.692 63.9785 214.43 63.8339 213.947 63.8339H212.92Z" fill="#323232"/>
<path d="M216.257 66.4604L218.921 60.5273H219.642L222.315 66.4604H221.238L220.55 64.9343H217.988L217.301 66.4604H216.257ZM219.243 62.0543L218.387 64.045H220.143L219.277 62.0543H219.243Z" fill="#323232"/>
<path d="M228.358 66.4604H227.679L224.023 62.3412H223.989V66.4604H222.971V60.5273H223.649L227.306 64.6466H227.34V60.5273H228.358V66.4604Z" fill="#323232"/>
<path d="M230.855 63.4616L233.247 60.5293H234.426L231.94 63.5808L234.511 66.4624H233.205L230.854 63.8093H230.821V66.4624H229.802V60.5293H230.821V63.4616H230.855Z" fill="#323232"/>
<path d="M235.168 60.5293H236.186V66.4624H235.168V60.5293Z" fill="#323232"/>
<path d="M243.017 66.4604H242.338L238.681 62.3412H238.647V66.4604H237.629V60.5273H238.308L241.965 64.6466H241.999V60.5273H243.017V66.4604Z" fill="#323232"/>
<path d="M248.552 65.19V63.3254H249.528V65.5208C249.146 65.9954 248.357 66.5877 247.186 66.5877C245.329 66.5877 244.098 65.2839 244.098 63.5377C244.098 61.6985 245.396 60.4023 247.152 60.4023C248.315 60.4023 249.044 60.9354 249.443 61.3593L248.96 62.1131H248.926C248.518 61.7147 247.933 61.35 247.186 61.35C245.939 61.35 245.142 62.2993 245.142 63.4954C245.142 64.7154 245.889 65.6562 247.186 65.6562C247.762 65.6562 248.255 65.4531 248.552 65.19Z" fill="#323232"/>
</svg>
