<svg width="300" height="85" viewBox="0 0 300 85" fill="none" xmlns="http://www.w3.org/2000/svg">
<rect width="300" height="85" rx="40" fill="white"/>
<path d="M133.971 23.0005V62.0005H126.457V23.0005H133.971ZM158.2 22.0255H158.001C152.683 22.2131 147.646 24.4645 143.958 28.3024C140.271 32.1403 138.223 37.2632 138.248 42.5854C138.274 47.9075 140.37 53.0107 144.094 56.8133C147.818 60.6159 152.876 62.8191 158.196 62.956C163.965 62.956 169.896 60.6128 173.718 56.8363V39.5235H157.475V46.7255H166.412V53.076L166.315 53.1378C163.897 54.7136 161.076 55.5619 158.19 55.5818C156.414 55.5784 154.657 55.2141 153.026 54.511C151.395 53.8079 149.924 52.7806 148.702 51.4916C147.48 50.2026 146.533 48.6787 145.918 47.0124C145.303 45.3461 145.033 43.5723 145.125 41.7985C145.328 38.5874 146.693 35.56 148.966 33.2827C151.239 31.0055 154.264 29.6343 157.475 29.4258C161.131 29.2145 164.625 30.7258 167.394 33.3778C167.491 33.4753 167.602 33.5923 167.719 33.7385L172.919 28.5385L172.594 28.1778C170.741 26.2249 168.508 24.6716 166.033 23.6136C163.557 22.5556 160.892 22.0152 158.2 22.0255Z" fill="#E01B1C"/>
</svg>
