<svg width="300" height="85" viewBox="0 0 300 85" fill="none" xmlns="http://www.w3.org/2000/svg">
<rect width="300" height="85" rx="40" fill="white"/>
<path d="M67.3127 18.1899C76.2846 18.1899 83.4212 25.3184 83.4212 34.2799C83.4212 43.2422 76.2846 50.3699 67.3127 50.3699C58.3401 50.3699 51.2043 43.2422 51.2043 34.2799C51.2043 25.3184 58.3401 18.1899 67.3127 18.1899ZM59.2758 27.5669V30.2307H75.3497V27.5669H59.2758ZM75.3497 40.993V32.9299H59.2758V40.9923H61.9435V37.9469C61.9435 37.0822 62.1514 36.5976 62.4626 36.2515C62.8091 35.8369 63.3289 35.5946 63.9527 35.5946C64.5765 35.5946 65.0956 35.8369 65.4421 36.2515C65.754 36.5976 65.962 37.0822 65.962 37.9469V40.9923H68.6643V37.9469C68.6643 37.0822 68.8722 36.5976 69.1841 36.2515C69.5307 35.8369 70.0505 35.5946 70.6735 35.5946C71.2966 35.5946 71.8164 35.8369 72.1629 36.2515C72.4748 36.5976 72.6828 37.0822 72.6828 37.9469V40.9923L75.3497 40.993Z" fill="#FA5B35"/>
<path d="M93.2287 28.2245C93.2287 31.1307 97.3857 31.7191 100.503 33.5184C102.443 34.6253 104.036 36.4253 104.036 39.4699C104.036 43.8291 100.469 46.5637 96.5194 46.5637C92.5702 46.5637 89.7293 44.6599 88.6211 43.4491L90.1798 40.1614H90.3184C91.6345 41.4422 93.6438 42.653 96.2421 42.653C97.9402 42.653 99.7754 41.6491 99.7754 39.6768C99.7754 36.7361 95.6183 36.1476 92.5009 34.3484C90.561 33.2414 88.9676 31.4422 88.9676 28.3968C88.9676 24.0368 92.5702 21.303 96.5887 21.303C100.365 21.303 102.928 23.2068 104.036 24.2445L102.478 27.5314H102.339C100.988 26.3199 99.291 25.2122 96.9352 25.2122C95.0646 25.2137 93.2287 26.2176 93.2287 28.2245ZM104.66 32.2037H108.748L111.172 39.2284H111.311L114.74 29.4361H117.512L121.115 39.3322H121.253L124.717 29.4361H128.597L122.673 46.0445H119.971L116.16 35.5953H116.022L112.35 46.0445H109.578L104.66 32.2037ZM130.296 22.5153H134.418V26.4945H130.296V22.5153ZM130.365 29.4353H134.349V46.0437H130.365V29.4353ZM143.633 46.5637C141.277 46.5637 138.99 45.6637 137.397 44.1422L138.505 41.1653H138.644C139.891 42.2722 141.484 43.1384 143.32 43.1384C144.705 43.1384 145.606 42.5499 145.606 41.5114C145.606 40.4384 144.463 40.023 143.043 39.573C140.756 38.8468 137.743 37.7391 137.743 34.2791C137.743 31.0953 140.237 28.9153 143.805 28.9153C145.745 28.9153 147.72 29.6068 149.348 30.8876L148.24 33.8976H148.101C146.923 32.963 145.399 32.3407 144.117 32.3407C142.558 32.3407 141.657 32.9291 141.657 33.9668C141.657 35.0399 142.8 35.4553 144.221 35.9053C146.508 36.6314 149.521 37.7391 149.521 41.1991C149.522 44.3837 147.028 46.5637 143.633 46.5637ZM157.871 46.5637C155.515 46.5637 153.228 45.6637 151.635 44.1422L152.743 41.1653H152.882C154.129 42.2722 155.722 43.1384 157.559 43.1384C158.944 43.1384 159.845 42.5499 159.845 41.5114C159.845 40.4384 158.702 40.023 157.281 39.573C154.995 38.8468 151.981 37.7391 151.981 34.2791C151.981 31.0953 154.476 28.9153 158.044 28.9153C159.984 28.9153 161.958 29.6068 163.586 30.8876L162.478 33.8976H162.34C161.161 32.963 159.637 32.3407 158.355 32.3407C156.796 32.3407 155.896 32.9291 155.896 33.9668C155.896 35.0399 157.039 35.4553 158.459 35.9053C160.746 36.6314 163.76 37.7391 163.76 41.1991C163.76 44.3837 161.266 46.5637 157.871 46.5637ZM182.085 29.4353V53.3114H178.101V44.833C176.959 45.9061 175.295 46.5637 173.702 46.5637C168.991 46.5637 165.977 42.9291 165.977 37.9122C165.977 33.2068 169.199 28.9161 174.118 28.9161C175.642 28.9161 177.131 29.5045 178.309 30.4384H178.448V29.4345L182.085 29.4353ZM178.101 33.7607C177.27 32.9991 175.954 32.5499 174.741 32.5499C171.901 32.5499 170.065 34.7645 170.065 37.8784C170.065 40.6814 171.658 42.9299 174.499 42.9299C175.85 42.9299 177.132 42.4114 178.102 41.3737L178.101 33.7607ZM189.429 39.3661C189.429 40.8199 189.672 41.4422 190.088 41.9614C190.607 42.5845 191.438 42.9984 192.374 42.9984C193.309 42.9984 194.141 42.5837 194.66 41.9614C195.076 41.4422 195.318 40.8199 195.318 39.3661V29.4353H199.302V38.9507C199.302 41.6499 198.575 43.3453 197.328 44.5568C196.081 45.8022 194.314 46.5637 192.201 46.5637C190.261 46.5637 188.563 45.8368 187.351 44.6253C186.138 43.4145 185.445 41.6837 185.445 38.9507V29.4353H189.429V39.3661ZM202.039 37.913C202.039 32.6191 205.642 28.9168 210.7 28.9168C215.757 28.9168 219.36 32.6191 219.36 37.5676C219.36 42.8614 215.757 46.5645 210.7 46.5645C205.642 46.5645 202.039 42.8607 202.039 37.913ZM210.7 32.5499C208.032 32.5499 206.127 34.7991 206.127 37.7399C206.127 40.6807 208.033 42.9299 210.7 42.9299C213.367 42.9299 215.273 40.6814 215.273 37.7399C215.273 34.7984 213.367 32.5499 210.7 32.5499ZM232.871 42.7914V45.8707C231.796 46.3199 230.619 46.563 229.302 46.563C227.535 46.563 226.219 46.043 225.318 45.143C224.348 44.1753 223.862 42.7561 223.862 40.2307V32.8945H220.053V29.4345H223.862V23.8991H227.847V29.4353H232.87V32.8953H227.847V40.7499C227.847 41.6153 228.02 42.0999 228.297 42.4107C228.782 42.9637 229.579 43.1037 230.445 43.1037C231.346 43.1037 232.419 42.8953 232.731 42.7914H232.871ZM242.639 46.5637C237.79 46.5637 234.152 43.1384 234.152 37.9122C234.152 33.1376 237.061 28.9161 242.224 28.9161C246.623 28.9161 249.567 32.4107 249.567 37.2207V38.5353H238.309C238.413 41.1307 240.214 43.0691 242.847 43.0691C244.545 43.0691 246.104 42.3761 247.523 41.1999H247.662L249.152 43.9676C247.594 45.6291 245.272 46.5637 242.639 46.5637ZM245.584 35.4214C245.55 33.8645 244.337 32.3068 242.294 32.3068C240.284 32.3068 238.934 33.6568 238.518 35.4214H245.584Z" fill="#323232"/>
<path d="M88.6226 60.5291H93.204V61.4621H91.4227V66.4621H90.4046V61.4621H88.6234L88.6226 60.5291Z" fill="#323232"/>
<path d="M98.0427 63.876H95.1154V66.4614H94.0974V60.5283H95.1154V62.9445H98.0427V60.5283H99.0607V66.4614H98.0427V63.876Z" fill="#323232"/>
<path d="M100.505 60.5291H103.984V61.4437H101.524V62.9444H103.857V63.8337H101.524V65.5467H103.984V66.4614H100.505V60.5291Z" fill="#323232"/>
<path d="M107.941 62.0977C107.941 62.81 108.959 62.9538 109.722 63.3946C110.197 63.6653 110.588 64.1069 110.588 64.8523C110.588 65.9207 109.714 66.5892 108.746 66.5892C107.779 66.5892 107.084 66.1238 106.812 65.8277L107.194 65.0223H107.228C107.55 65.3361 108.043 65.6323 108.679 65.6323C109.095 65.6323 109.544 65.3861 109.544 64.9038C109.544 64.1823 108.526 64.04 107.762 63.5984C107.287 63.3277 106.897 62.8861 106.897 62.1407C106.897 61.0723 107.779 60.4038 108.763 60.4038C109.688 60.4038 110.316 60.8692 110.588 61.1238L110.206 61.9292H110.172C109.841 61.633 109.426 61.3615 108.848 61.3615C108.391 61.36 107.941 61.6061 107.941 62.0977Z" fill="#323232"/>
<path d="M110.947 60.5291H111.99L113.475 64.5975H113.509L114.892 60.5291H115.613L117.038 64.5975H117.072L118.557 60.5291H119.558L117.395 66.4621H116.673L115.256 62.3514H115.222L113.831 66.4621H113.11L110.947 60.5291Z" fill="#323232"/>
<path d="M120.3 60.5291H121.318V66.4621H120.3V60.5291Z" fill="#323232"/>
<path d="M123.508 62.0977C123.508 62.81 124.526 62.9538 125.289 63.3946C125.764 63.6653 126.155 64.1069 126.155 64.8523C126.155 65.9207 125.281 66.5892 124.314 66.5892C123.346 66.5892 122.651 66.1238 122.379 65.8277L122.761 65.0223H122.795C123.117 65.3361 123.61 65.6323 124.246 65.6323C124.662 65.6323 125.111 65.3861 125.111 64.9038C125.111 64.1823 124.093 64.04 123.329 63.5984C122.854 63.3277 122.464 62.8861 122.464 62.1407C122.464 61.0723 123.346 60.4038 124.331 60.4038C125.255 60.4038 125.883 60.8692 126.155 61.1238L125.773 61.9292H125.739C125.408 61.633 124.993 61.3615 124.415 61.3615C123.958 61.36 123.508 61.6061 123.508 62.0977Z" fill="#323232"/>
<path d="M128.006 62.0977C128.006 62.81 129.024 62.9538 129.788 63.3946C130.263 63.6653 130.653 64.1069 130.653 64.8523C130.653 65.9207 129.779 66.5892 128.812 66.5892C127.845 66.5892 127.149 66.1238 126.877 65.8277L127.259 65.0223H127.293C127.615 65.3361 128.108 65.6323 128.744 65.6323C129.16 65.6323 129.61 65.3861 129.61 64.9038C129.61 64.1823 128.592 64.04 127.828 63.5984C127.352 63.3277 126.962 62.8861 126.962 62.1407C126.962 61.0723 127.845 60.4038 128.829 60.4038C129.754 60.4038 130.381 60.8692 130.653 61.1238L130.271 61.9292H130.237C129.906 61.633 129.491 61.3615 128.913 61.3615C128.456 61.36 128.006 61.6061 128.006 62.0977Z" fill="#323232"/>
<path d="M133.762 60.5291H134.78V65.5291H137.241V66.4621H133.762V60.5291Z" fill="#323232"/>
<path d="M138.142 60.5291H141.62V61.4437H139.16V62.9444H141.493V63.8337H139.16V65.5467H141.62V66.4614H138.142V60.5291Z" fill="#323232"/>
<path d="M142.046 66.4614L144.71 60.5283H145.432L148.104 66.4614H147.027L146.34 64.9352H143.777L143.09 66.4614H142.046ZM145.033 62.0552L144.176 64.046H145.932L145.067 62.0552H145.033Z" fill="#323232"/>
<path d="M148.76 60.5291H150.669C151.67 60.5291 152.434 60.8521 152.969 61.3852C153.503 61.9114 153.809 62.6475 153.809 63.4529C153.809 64.3006 153.486 65.0467 152.952 65.5891C152.417 66.1314 151.67 66.4621 150.669 66.4621H148.76V60.5291ZM149.778 61.4614V65.5283H150.559C151.357 65.5283 151.883 65.2906 152.247 64.9021C152.569 64.5552 152.765 64.0806 152.765 63.5383C152.765 62.9537 152.578 62.4614 152.247 62.0975C151.882 61.6991 151.356 61.4621 150.559 61.4621L149.778 61.4614Z" fill="#323232"/>
<path d="M154.889 60.5291H158.367V61.4437H155.907V62.9444H158.24V63.8337H155.907V65.5467H158.367V66.4614H154.889V60.5291Z" fill="#323232"/>
<path d="M161.898 63.9783L164.197 66.4621H162.866L160.626 63.9783H160.592V66.4621H159.574V60.5291H161.457C162.128 60.5291 162.586 60.7152 162.899 61.0291C163.214 61.3429 163.392 61.7744 163.392 62.2491C163.392 63.1898 162.747 63.8944 161.899 63.9437V63.9783H161.898ZM160.592 61.4437V63.1306H161.33C161.788 63.1306 162.025 63.0121 162.179 62.826C162.289 62.6906 162.349 62.5283 162.349 62.3344C162.349 62.1044 162.281 61.9106 162.171 61.7575C162.018 61.5621 161.789 61.4437 161.331 61.4437H160.592Z" fill="#323232"/>
<path d="M166.653 60.5291H167.671V66.4621H166.653V60.5291Z" fill="#323232"/>
<path d="M174.502 66.4614H173.823L170.166 62.3422H170.132V66.4614H169.114V60.5283H169.793L173.45 64.6476H173.484V60.5283H174.502V66.4614Z" fill="#323232"/>
<path d="M180.606 60.4023C182.354 60.4023 183.618 61.7062 183.618 63.4523C183.618 65.2839 182.353 66.5877 180.606 66.5877C178.859 66.5877 177.594 65.2839 177.594 63.5377C177.594 61.707 178.859 60.4023 180.606 60.4023ZM180.606 61.3508C179.452 61.3508 178.637 62.2416 178.637 63.4962C178.637 64.7493 179.452 65.64 180.606 65.64C181.76 65.64 182.574 64.7493 182.574 63.4962C182.574 62.2416 181.76 61.3508 180.606 61.3508Z" fill="#323232"/>
<path d="M190.094 66.4614H189.414L185.758 62.3422H185.724V66.4614H184.706V60.5283H185.384L189.042 64.6476H189.076V60.5283H190.094V66.4614Z" fill="#323232"/>
<path d="M191.539 60.5291H192.557V65.5291H195.017V66.4621H191.538L191.539 60.5291Z" fill="#323232"/>
<path d="M195.919 60.5291H196.937V66.4621H195.919V60.5291Z" fill="#323232"/>
<path d="M203.768 66.4614H203.089L199.432 62.3422H199.398V66.4614H198.38V60.5283H199.059L202.716 64.6476H202.75V60.5283H203.768V66.4614Z" fill="#323232"/>
<path d="M205.213 60.5291H208.692V61.4437H206.232V62.9444H208.565V63.8337H206.232V65.5467H208.692V66.4614H205.213V60.5291Z" fill="#323232"/>
<path d="M215.159 63.3083C215.618 63.5129 216.016 64.0621 216.016 64.7237C216.016 65.1983 215.812 65.6221 215.507 65.936C215.185 66.2667 214.744 66.4621 214.081 66.4621H211.901V60.5291H213.937C214.565 60.5291 214.981 60.7075 215.278 61.0037C215.575 61.3014 215.762 61.716 215.762 62.156C215.762 62.6398 215.516 63.0637 215.159 63.2752V63.3083ZM212.92 61.4437V62.9444H213.794C214.252 62.9444 214.489 62.8167 214.616 62.6137C214.684 62.5037 214.718 62.376 214.718 62.2414C214.718 62.0298 214.659 61.8598 214.557 61.7244C214.421 61.546 214.218 61.4437 213.794 61.4437H212.92ZM212.92 63.8337V65.5467H213.946C214.412 65.5467 214.65 65.4191 214.803 65.2237C214.905 65.0883 214.973 64.9191 214.973 64.7321C214.973 64.5367 214.922 64.3683 214.837 64.2244C214.692 63.9783 214.43 63.8337 213.946 63.8337H212.92Z" fill="#323232"/>
<path d="M216.257 66.4614L218.921 60.5283H219.642L222.315 66.4614H221.238L220.55 64.9352H217.988L217.301 66.4614H216.257ZM219.243 62.0552L218.387 64.046H220.143L219.277 62.0552H219.243Z" fill="#323232"/>
<path d="M228.358 66.4614H227.679L224.023 62.3422H223.989V66.4614H222.971V60.5283H223.649L227.306 64.6476H227.34V60.5283H228.358V66.4614Z" fill="#323232"/>
<path d="M230.855 63.4614L233.247 60.5291H234.426L231.94 63.5806L234.511 66.4621H233.205L230.854 63.8091H230.82V66.4621H229.802V60.5291H230.82V63.4614H230.855Z" fill="#323232"/>
<path d="M235.168 60.5291H236.186V66.4621H235.168V60.5291Z" fill="#323232"/>
<path d="M243.017 66.4614H242.338L238.681 62.3422H238.647V66.4614H237.629V60.5283H238.308L241.965 64.6476H241.999V60.5283H243.017V66.4614Z" fill="#323232"/>
<path d="M248.552 65.1908V63.3262H249.528V65.5215C249.146 65.9962 248.357 66.5885 247.186 66.5885C245.329 66.5885 244.098 65.2846 244.098 63.5385C244.098 61.6992 245.396 60.4031 247.152 60.4031C248.315 60.4031 249.044 60.9362 249.443 61.36L248.96 62.1138H248.926C248.518 61.7154 247.933 61.3508 247.186 61.3508C245.939 61.3508 245.142 62.3 245.142 63.4962C245.142 64.7162 245.889 65.6569 247.186 65.6569C247.762 65.6569 248.255 65.4538 248.552 65.1908Z" fill="#323232"/>
</svg>
