<svg width="300" height="85" viewBox="0 0 300 85" fill="none" xmlns="http://www.w3.org/2000/svg">
<rect width="300" height="85" rx="40" fill="white"/>
<g clip-path="url(#clip0_384_2544)">
<path d="M174.974 36.9074C172.129 34.3927 168.695 33.1634 164.725 33.1634C160.81 33.1634 157.375 34.3942 154.53 36.9074C151.685 39.3675 150.239 42.7917 150.239 47.1784C150.239 51.5652 151.685 54.9862 154.53 57.501C157.374 59.9611 160.81 61.1919 164.725 61.1919C168.695 61.1919 172.129 59.9611 174.974 57.501C177.872 54.9862 179.318 51.5636 179.318 47.1784C179.318 42.7933 177.871 39.3675 174.974 36.9074ZM159.362 52.7929C157.862 51.3499 157.106 49.4763 157.106 47.1769C157.106 44.8774 157.855 43.0054 159.362 41.6139C160.061 40.92 160.896 40.3726 161.818 40.0049C162.74 39.6372 163.728 39.457 164.724 39.4752C165.727 39.4568 166.724 39.6367 167.655 40.0042C168.586 40.3717 169.432 40.9192 170.141 41.6139C171.694 43.0054 172.45 44.8759 172.45 47.1769C172.45 49.4779 171.701 51.3483 170.141 52.7929C168.641 54.1828 166.815 54.8786 164.724 54.8786C163.734 54.894 162.75 54.7177 161.83 54.3597C160.91 54.0018 160.071 53.4693 159.362 52.7929ZM189.465 60.4416V23.7379H182.705V60.4416H189.465ZM211.283 33.9122V48.5575C211.283 52.0862 209.37 54.4262 205.729 54.4262C202.025 54.4262 200.163 52.0893 200.163 48.5575V33.9122H193.39V49.6807C193.39 55.7896 197.253 61.1904 205.729 61.1904H205.781C214.204 61.1904 218.061 55.6695 218.061 49.6807V33.9122H211.283ZM143.045 33.9122L136.285 51.8834L129.525 33.9122H122.337L133.124 60.4431H139.457L150.242 33.9122H143.045ZM122.368 46.4281C122.368 42.578 121.136 39.4221 118.721 36.9074C116.305 34.3927 113.198 33.1634 109.387 33.1634C105.472 33.1634 102.143 34.5019 99.4068 37.1211C96.722 39.7435 95.3843 43.0585 95.3843 47.1769C95.3843 51.2953 96.7251 54.6664 99.3542 57.2857C102.039 59.908 105.258 61.1904 109.067 61.1904C114.918 61.1904 119.047 58.6226 121.565 53.434L116.524 50.5449C114.864 53.8069 112.445 55.4121 109.174 55.4121C105.151 55.4121 102.307 52.8444 101.876 48.7806H122.367V46.4265L122.368 46.4281ZM109.169 38.2974C112.978 38.2974 115.502 40.4361 116.144 43.8603H101.873C102.895 40.7044 105.682 38.2974 109.171 38.2974H109.169ZM95.3827 60.4416L86.3125 44.6107C92.0505 42.525 94.8948 38.8886 94.8948 33.5924C94.9012 27.12 89.7467 23 81.5391 23H65.5V60.4416H72.5821V45.2518H78.5927L87.2819 60.4431L95.3827 60.4416ZM81.5391 29.2041C85.7242 29.2041 87.8176 30.8624 87.8176 34.1244C87.8176 37.3863 85.7226 39.0446 81.5391 39.0446H72.5821V29.2041H81.5391ZM229.521 61.1904C225.17 61.1904 221.642 57.671 221.642 53.328V26.744H228.402V33.9216H234.199V39.3769H228.402V52.8943C228.402 54.1672 229.436 55.1984 230.715 55.1984H234.199V61.1904H229.521Z" fill="black"/>
</g>
<defs>
<clipPath id="clip0_384_2544">
<rect width="169" height="39" fill="white" transform="translate(65.5 23)"/>
</clipPath>
</defs>
</svg>
