<svg width="163" height="30" viewBox="0 0 163 30" fill="none" xmlns="http://www.w3.org/2000/svg">
<rect width="30" height="30" fill="white"/>
<path d="M17.6859 12.4453H26.3764L19.3451 17.5537V17.5547L15.6205 20.2207L19.7143 18.6904L22.0307 25.8193L15.0004 20.7109L7.96914 25.8193L10.6547 17.5537L3.62344 12.4453H12.3148L15.0004 4.17969L17.6859 12.4453Z" fill="#425DD3"/>
<rect width="30" height="30" transform="translate(33.038)" fill="white"/>
<path d="M50.7239 12.4453H59.4143L52.3831 17.5537V17.5547L48.6585 20.2207L52.7522 18.6904L55.0686 25.8193L48.0384 20.7109L41.0071 25.8193L43.6927 17.5537L36.6614 12.4453H45.3528L48.0384 4.17969L50.7239 12.4453Z" fill="#425DD3"/>
<rect width="30" height="30" transform="translate(66.0759)" fill="white"/>
<path d="M83.7619 12.4453H92.4523L85.4211 17.5537V17.5547L81.6965 20.2207L85.7902 18.6904L88.1066 25.8193L81.0763 20.7109L74.0451 25.8193L76.7306 17.5537L69.6994 12.4453H78.3908L81.0763 4.17969L83.7619 12.4453Z" fill="#425DD3"/>
<rect width="30" height="30" transform="translate(99.1139)" fill="white"/>
<path d="M116.8 12.4453H125.49L118.459 17.5537V17.5547L114.734 20.2207L118.828 18.6904L121.145 25.8193L114.114 20.7109L107.083 25.8193L109.769 17.5537L102.737 12.4453H111.429L114.114 4.17969L116.8 12.4453Z" fill="#425DD3"/>
<rect width="30" height="30" transform="translate(132.152)" fill="white"/>
<rect x="144.076" width="18" height="30" fill="#ADBFFF"/>
<path d="M149.838 12.4453H158.528L151.497 17.5537V17.5547L147.772 20.2207L151.866 18.6904L154.183 25.8193L147.152 20.7109L140.121 25.8193L142.807 17.5537L135.775 12.4453H144.466L147.152 4.17969L149.838 12.4453Z" fill="#425DD3"/>
</svg>
