<svg width="160" height="30" viewBox="0 0 160 30" fill="none" xmlns="http://www.w3.org/2000/svg">
<g clip-path="url(#clip0_384_2774)">
<path d="M62.4998 0V30H32.4998V0H62.4998ZM47.4988 20.2188L53.9675 24.9375L52.0613 19.0625L47.4988 20.2188ZM45.03 12.625H36.9988L43.4988 17.3125L41.03 24.875L47.53 20.1875L51.53 17.3125L57.9988 12.625H49.9675L47.4988 5.0625L45.03 12.625Z" fill="white"/>
<path d="M95.0002 0V30H65.0002V0H95.0002ZM79.9993 20.2188L86.468 24.9375L84.5618 19.0625L79.9993 20.2188ZM77.5305 12.625H69.4993L75.9993 17.3125L73.5305 24.875L80.0305 20.1875L84.0305 17.3125L90.4993 12.625H82.468L79.9993 5.0625L77.5305 12.625Z" fill="white"/>
<path d="M127.5 0V30H97.5V0H127.5ZM112.499 20.2188L118.968 24.9375L117.062 19.0625L112.499 20.2188ZM110.03 12.625H101.999L108.499 17.3125L106.03 24.875L112.53 20.1875L116.53 17.3125L122.999 12.625H114.968L112.499 5.0625L110.03 12.625Z" fill="white"/>
<path d="M160 0V30H130V0H160ZM144.999 20.2188L151.468 24.9375L149.561 19.0625L144.999 20.2188ZM142.53 12.625H134.499L140.999 17.3125L138.53 24.875L145.03 20.1875L149.03 17.3125L155.499 12.625H147.468L144.999 5.0625L142.53 12.625Z" fill="white"/>
<path d="M30 0V30H0V0H30ZM14.999 20.2188L21.4678 24.9375L19.5615 19.0625L14.999 20.2188ZM12.5303 12.625H4.49902L10.999 17.3125L8.53027 24.875L15.0303 20.1875L19.0303 17.3125L25.499 12.625H17.4678L14.999 5.0625L12.5303 12.625Z" fill="white"/>
</g>
<defs>
<clipPath id="clip0_384_2774">
<rect width="160" height="30" fill="white"/>
</clipPath>
</defs>
</svg>
