<svg width="163" height="30" viewBox="0 0 163 30" fill="none" xmlns="http://www.w3.org/2000/svg">
<rect width="30" height="30" fill="white"/>
<path d="M17.686 12.4453H26.3765L19.3452 17.5537V17.5547L15.6206 20.2207L19.7144 18.6904L22.0308 25.8193L15.0005 20.7109L7.96924 25.8193L10.6548 17.5537L3.62354 12.4453H12.3149L15.0005 4.17969L17.686 12.4453Z" fill="#425DD3"/>
<rect width="30" height="30" transform="translate(33.0381)" fill="white"/>
<path d="M50.7241 12.4453H59.4146L52.3833 17.5537V17.5547L48.6587 20.2207L52.7524 18.6904L55.0688 25.8193L48.0386 20.7109L41.0073 25.8193L43.6929 17.5537L36.6616 12.4453H45.353L48.0386 4.17969L50.7241 12.4453Z" fill="#425DD3"/>
<rect width="30" height="30" transform="translate(66.0759)" fill="white"/>
<path d="M83.762 12.4453H92.4524L85.4211 17.5537V17.5547L81.6965 20.2207L85.7903 18.6904L88.1067 25.8193L81.0764 20.7109L74.0452 25.8193L76.7307 17.5537L69.6995 12.4453H78.3909L81.0764 4.17969L83.762 12.4453Z" fill="#425DD3"/>
<rect width="30" height="30" transform="translate(99.114)" fill="white"/>
<path d="M116.8 12.4453H125.49L118.459 17.5537V17.5547L114.735 20.2207L118.828 18.6904L121.145 25.8193L114.115 20.7109L107.083 25.8193L109.769 17.5537L102.738 12.4453H111.429L114.115 4.17969L116.8 12.4453Z" fill="#425DD3"/>
<rect width="30" height="30" transform="translate(132.152)" fill="white"/>
<rect x="158.076" width="4" height="30" fill="#ADBFFF"/>
<path d="M149.838 12.4453H158.528L151.497 17.5537V17.5547L147.772 20.2207L151.866 18.6904L154.183 25.8193L147.152 20.7109L140.121 25.8193L142.807 17.5537L135.775 12.4453H144.466L147.152 4.17969L149.838 12.4453Z" fill="#425DD3"/>
</svg>
