<svg width="300" height="85" viewBox="0 0 300 85" fill="none" xmlns="http://www.w3.org/2000/svg">
<rect width="300" height="85" rx="40" fill="white"/>
<g clip-path="url(#clip0_384_2582)">
<path d="M191.877 62.7969C191.494 61.647 191.366 60.7226 191.366 58.1959C191.366 55.6692 191.493 54.743 191.877 53.5932C192.797 50.8166 195.049 49.3907 198.194 49.3907C201.263 49.3907 203.465 50.8166 204.435 53.2665C204.512 53.4431 204.484 53.5443 204.307 53.6178L200.906 55.0681C200.727 55.1434 200.624 55.0928 200.546 54.9181C200.061 53.9185 199.448 53.3174 198.27 53.3174C197.172 53.3174 196.48 53.8434 196.172 54.794C195.994 55.3181 195.916 55.8442 195.916 58.1961C195.916 60.5481 195.994 61.0707 196.172 61.5967C196.479 62.5472 197.17 63.0732 198.27 63.0732C199.448 63.0732 200.06 62.4719 200.546 61.4725C200.624 61.296 200.728 61.2472 200.906 61.3225L204.307 62.7729C204.487 62.8482 204.512 62.9476 204.435 63.1242C203.461 65.5741 201.264 67 198.194 67C195.049 67 192.797 65.5735 191.877 62.7969ZM184.169 66.4489V49.9411C184.169 49.7911 184.271 49.6899 184.424 49.6899H188.416C188.568 49.6899 188.67 49.7911 188.67 49.9411V66.4472C188.67 66.5973 188.568 66.6991 188.415 66.6991H184.423C184.269 66.6991 184.169 66.6007 184.169 66.4489ZM169.704 66.4489V49.9411C169.704 49.7911 169.806 49.6899 169.96 49.6899H173.952C174.105 49.6899 174.207 49.7911 174.207 49.9411V62.6466C174.207 62.746 174.257 62.7966 174.361 62.7966H181.727C181.881 62.7966 181.983 62.896 181.983 63.0466V66.4471C181.983 66.5971 181.881 66.699 181.727 66.699H169.96C169.806 66.699 169.704 66.6007 169.704 66.4489ZM158.21 63.2215C158.21 63.3227 158.26 63.3715 158.364 63.3715H160.409C161.816 63.3715 162.532 62.697 162.532 61.4459C162.532 60.2699 161.816 59.5447 160.409 59.5447H158.364C158.26 59.5447 158.21 59.5941 158.21 59.6947V63.2215ZM158.364 56.5184H160.178C161.536 56.5184 162.252 55.9419 162.252 54.7676C162.252 53.5671 161.561 53.0166 160.18 53.0166H158.364C158.26 53.0166 158.21 53.066 158.21 53.1666V56.3679C158.21 56.4691 158.26 56.5184 158.364 56.5184ZM153.707 66.4489V49.9411C153.707 49.7911 153.809 49.6899 153.963 49.6899H161.049C164.937 49.6899 166.727 51.5159 166.727 54.2174C166.727 55.9683 165.907 57.1949 164.604 57.8694V57.9188C165.884 58.396 167.034 59.82 167.034 61.7963C167.034 65.1233 164.629 66.6994 160.97 66.6994H153.961C153.81 66.6994 153.707 66.6007 153.707 66.4489ZM143.746 66.9996C139.526 66.9996 136.815 64.6476 136.815 60.1234V49.9431C136.815 49.7931 136.917 49.6912 137.07 49.6912H141.062C141.214 49.6912 141.316 49.7924 141.316 49.9431V60.3961C141.316 62.0981 142.289 63.0748 143.746 63.0748C145.255 63.0748 146.151 62.0981 146.151 60.3961V49.9431C146.151 49.7931 146.255 49.6912 146.408 49.6912H150.398C150.552 49.6912 150.654 49.7924 150.654 49.9431V60.1217C150.654 64.6509 147.891 66.9996 143.746 66.9996ZM127.878 57.2961C129.285 57.2961 130.078 56.5203 130.078 55.3443C130.078 54.1684 129.285 53.4187 127.878 53.4187H125.577C125.473 53.4187 125.423 53.4681 125.423 53.5687V57.1456C125.423 57.245 125.472 57.2956 125.577 57.2956L127.878 57.2961ZM125.166 66.7007H121.176C121.024 66.7007 120.922 66.5995 120.922 66.4494V49.9416C120.922 49.7916 121.024 49.6904 121.177 49.6904H128.135C132.381 49.6904 134.581 52.0423 134.581 55.3432C134.581 58.5935 132.354 61.0205 128.133 61.0205H125.577C125.473 61.0205 125.423 61.0699 125.423 61.1706V66.4477C125.423 66.5996 125.321 66.6996 125.167 66.6996L125.166 66.7007ZM106.381 66.4506V49.9413C106.381 49.7912 106.484 49.69 106.637 49.69H118.02C118.174 49.69 118.276 49.7912 118.276 49.9413V53.167C118.276 53.3176 118.174 53.417 118.02 53.417H111.038C110.934 53.417 110.884 53.4664 110.884 53.567V56.1427C110.884 56.2439 110.934 56.2927 111.038 56.2927H116.767C116.92 56.2927 117.024 56.3939 117.024 56.5439V59.6946C117.024 59.8434 116.92 59.9446 116.767 59.9446H111.038C110.934 59.9446 110.884 59.994 110.884 60.0946V62.8222C110.884 62.9204 110.934 62.971 111.038 62.971H118.02C118.174 62.971 118.276 63.0722 118.276 63.221V66.4467C118.276 66.5967 118.174 66.6986 118.02 66.6986H106.637C106.484 66.6986 106.381 66.6004 106.381 66.4486L106.381 66.4506ZM97.0599 57.02C98.3383 57.02 99.1053 56.3176 99.1053 55.2185C99.1053 54.1176 98.3383 53.4169 97.0599 53.4169H94.6549C94.5527 53.4169 94.5015 53.4663 94.5015 53.5669V56.8662C94.5015 56.9674 94.5508 57.018 94.6549 57.018H97.0599V57.02ZM103.762 66.6989H99.3362C99.1053 66.6989 99.0294 66.6236 98.9519 66.4471L96.3176 60.6456H94.6549C94.5527 60.6456 94.5015 60.695 94.5015 60.7956V66.4468C94.5015 66.5968 94.3992 66.6987 94.2458 66.6987H90.2557C90.1022 66.6987 90 66.5975 90 66.4468V49.9407C90 49.7907 90.1022 49.6895 90.2557 49.6895H97.3419C101.334 49.6895 103.61 51.9662 103.61 55.1675C103.61 57.2941 102.586 59.0189 100.743 59.9204L103.942 66.3981C104.016 66.5481 103.94 66.6989 103.762 66.6989ZM156.243 46.0344V29.5266C156.243 29.3766 156.345 29.2754 156.498 29.2754H167.881C168.035 29.2754 168.137 29.3766 168.137 29.5266V32.7524C168.137 32.9024 168.035 33.0025 167.881 33.0025H160.899C160.795 33.0025 160.746 33.0519 160.746 33.1525V35.7282C160.746 35.8294 160.795 35.8782 160.899 35.8782H166.628C166.781 35.8782 166.885 35.9794 166.885 36.13V39.2823C166.885 39.4311 166.781 39.5323 166.628 39.5323H160.899C160.795 39.5323 160.746 39.5817 160.746 39.6823V42.4099C160.746 42.5081 160.795 42.5568 160.899 42.5568H167.881C168.035 42.5568 168.137 42.66 168.137 42.8087V46.0344C168.137 46.1844 168.035 46.2863 167.881 46.2863H156.498C156.345 46.2848 156.243 46.1851 156.243 46.0344ZM144.312 42.2337C144.312 42.3331 144.363 42.3825 144.465 42.3825H145.821C147.408 42.3825 148.277 41.9578 148.686 40.7574C148.84 40.2561 148.942 39.6826 148.942 37.7815C148.942 35.8803 148.84 35.3038 148.686 34.804C148.277 33.6019 147.408 33.1788 145.821 33.1788H144.465C144.363 33.1788 144.312 33.2282 144.312 33.3276V42.2337ZM139.81 46.0344V29.5266C139.81 29.3766 139.914 29.2754 140.067 29.2754H146.794C149.862 29.2754 152.114 30.5265 152.985 33.1528C153.343 34.2537 153.496 35.2043 153.496 37.78C153.496 40.3296 153.343 41.3079 152.985 42.4054C152.114 45.0318 149.862 46.2829 146.794 46.2829H140.067C139.914 46.2829 139.81 46.1844 139.81 46.0344ZM127.807 39.756H131.182L129.57 34.4527H129.492L127.807 39.756ZM121.13 46.0344L127.14 29.5283C127.19 29.3783 127.294 29.2764 127.474 29.2764H131.643C131.823 29.2764 131.926 29.3776 131.977 29.5283L137.859 46.0344C137.91 46.1844 137.834 46.2857 137.681 46.2857H133.458C133.28 46.2857 133.178 46.1845 133.126 46.0344L132.308 43.4081H126.652L125.834 46.0344C125.783 46.1844 125.68 46.2857 125.501 46.2857H121.306C121.153 46.2842 121.075 46.1845 121.128 46.0344H121.13ZM112.96 36.6054C114.238 36.6054 115.005 35.9031 115.005 34.8038C115.005 33.703 114.238 33.0023 112.96 33.0023H110.553C110.449 33.0023 110.399 33.0517 110.399 33.1524V36.4516C110.399 36.5528 110.449 36.6035 110.553 36.6035H112.958L112.96 36.6054ZM119.661 46.2843H115.236C115.005 46.2843 114.929 46.209 114.853 46.0324L112.217 40.231H110.556C110.452 40.231 110.403 40.2804 110.403 40.381V46.0321C110.403 46.1822 110.299 46.284 110.145 46.284H106.154C106 46.284 105.898 46.1828 105.898 46.0321V29.526C105.898 29.376 106 29.2748 106.154 29.2748H113.24C117.232 29.2748 119.506 31.5516 119.506 34.7545C119.506 36.881 118.484 38.6058 116.641 39.5074L119.84 45.985C119.915 46.132 119.84 46.2838 119.658 46.2838L119.661 46.2843ZM98.9569 46.2843H94.965C94.8133 46.2843 94.7094 46.1831 94.7094 46.0324V33.327C94.7094 33.2276 94.6601 33.1782 94.5559 33.1782H90.2821C90.1303 33.1782 90.028 33.0771 90.028 32.927V29.5264C90.028 29.3764 90.1303 29.2752 90.2837 29.2752H103.636C103.79 29.2752 103.892 29.3764 103.892 29.5264V32.927C103.892 33.077 103.79 33.1782 103.636 33.1782H99.3642C99.262 33.1782 99.2108 33.2276 99.2108 33.327V46.0341C99.2108 46.1841 99.1086 46.2841 98.9551 46.2841L98.9569 46.2843ZM209.352 27.9538C209.536 27.9115 209.7 27.8089 209.817 27.6628C209.935 27.5167 209.999 27.3355 210 27.1486H209.997V18.8285C209.996 18.7027 209.966 18.5787 209.91 18.4659C209.853 18.3531 209.772 18.2543 209.672 18.1769C209.572 18.0995 209.455 18.0455 209.331 18.0189C209.207 17.9923 209.078 17.9938 208.954 18.0233L196.839 20.8636C196.466 20.9514 196.077 20.9364 195.712 20.8203L190.246 19.0646C189.88 18.9476 189.489 18.9326 189.116 19.0213L176.698 21.9514C176.515 21.9934 176.351 22.0956 176.233 22.2415C176.115 22.3873 176.051 22.5683 176.05 22.755V31.0734C176.051 31.1995 176.082 31.3236 176.138 31.4366C176.195 31.5496 176.276 31.6484 176.377 31.7258C176.477 31.8032 176.594 31.8572 176.719 31.8836C176.843 31.9101 176.972 31.9084 177.096 31.8786L189.116 29.0432C189.489 28.9549 189.881 28.9697 190.246 29.0865L195.712 30.8439C196.075 30.9581 196.466 30.9747 196.839 30.8871L209.35 27.9554L209.352 27.9538ZM209.352 40.3668C209.536 40.3248 209.7 40.2223 209.818 40.0761C209.935 39.9299 210 39.7486 210 39.5616H209.997V31.2433C209.996 31.1174 209.966 30.9935 209.91 30.8806C209.853 30.7678 209.772 30.669 209.672 30.5916C209.572 30.5142 209.455 30.4602 209.331 30.4336C209.207 30.407 209.078 30.4085 208.954 30.438L196.839 33.2751C196.466 33.3629 196.077 33.3479 195.712 33.2318L190.246 31.475C189.88 31.358 189.489 31.3431 189.116 31.4317L176.7 34.3618C176.516 34.4039 176.352 34.5063 176.234 34.6525C176.116 34.7987 176.052 34.9801 176.052 35.1671V43.4838C176.053 43.6099 176.083 43.734 176.14 43.847C176.196 43.96 176.278 44.0589 176.378 44.1363C176.479 44.2137 176.596 44.2676 176.72 44.294C176.845 44.3205 176.974 44.3188 177.098 44.289L189.118 41.4537C189.49 41.3654 189.883 41.3802 190.247 41.4969L195.714 43.2544C196.077 43.3704 196.468 43.3852 196.84 43.2976L209.352 40.3668Z" fill="black"/>
</g>
<defs>
<clipPath id="clip0_384_2582">
<rect width="120" height="49" fill="white" transform="translate(90 18)"/>
</clipPath>
</defs>
</svg>
