<svg width="231" height="79" viewBox="0 0 231 79" fill="none" xmlns="http://www.w3.org/2000/svg">
<path d="M26.3336 3.20576V61.5645H18.7181V3.20576H26.3336ZM45.0918 3.20576V9.53864H4.76614e-05V3.20576H45.0918ZM56.996 25.0101V61.5645H49.5809V18.1962H56.7956L56.996 25.0101ZM70.5435 17.9558L70.5034 24.8498C69.8889 24.7162 69.301 24.636 68.7399 24.6093C68.2054 24.5558 67.5909 24.5291 66.8961 24.5291C65.186 24.5291 63.6762 24.7963 62.3669 25.3308C61.0576 25.8652 59.9486 26.6134 59.0401 27.5753C58.1316 28.5373 57.4101 29.6863 56.8757 31.0223C56.368 32.3317 56.034 33.7746 55.8737 35.3511L53.7894 36.5536C53.7894 33.9349 54.0433 31.4766 54.551 29.1786C55.0854 26.8806 55.9004 24.8498 56.996 23.0862C58.0915 21.2959 59.481 19.9064 61.1644 18.9177C62.8746 17.9023 64.9054 17.3946 67.2568 17.3946C67.7913 17.3946 68.4058 17.4614 69.1006 17.595C69.7953 17.7019 70.2763 17.8222 70.5435 17.9558ZM103.931 51.5441V18.1962H111.387V61.5645H104.292L103.931 51.5441ZM105.334 42.4055L108.421 42.3253C108.421 45.2112 108.113 47.8833 107.499 50.3416C106.911 52.7732 105.949 54.8842 104.613 56.6745C103.277 58.4648 101.527 59.8677 99.3621 60.8831C97.1977 61.8717 94.5657 62.3661 91.4661 62.3661C89.3551 62.3661 87.4178 62.0588 85.6543 61.4442C83.9174 60.8296 82.421 59.881 81.1651 58.5984C79.9092 57.3158 78.9339 55.6457 78.2392 53.5882C77.5712 51.5307 77.2371 49.059 77.2371 46.1731V18.1962H84.6522V46.2533C84.6522 48.2039 84.866 49.8206 85.2935 51.1032C85.7478 52.3591 86.349 53.3611 87.0972 54.1093C87.8721 54.8308 88.7272 55.3385 89.6624 55.6324C90.6244 55.9263 91.613 56.0733 92.6284 56.0733C95.7815 56.0733 98.2799 55.4721 100.124 54.2696C101.967 53.0404 103.29 51.3971 104.092 49.3396C104.92 47.2554 105.334 44.944 105.334 42.4055ZM147.941 50.0611C147.941 48.9922 147.7 48.0035 147.219 47.095C146.765 46.1598 145.817 45.3181 144.374 44.5699C142.957 43.795 140.82 43.127 137.961 42.5658C135.556 42.0581 133.378 41.4569 131.427 40.7621C129.503 40.0674 127.86 39.2257 126.497 38.237C125.161 37.2483 124.133 36.086 123.411 34.7499C122.69 33.4139 122.329 31.8507 122.329 30.0604C122.329 28.3502 122.703 26.7336 123.451 25.2105C124.226 23.6874 125.308 22.338 126.698 21.1623C128.114 19.9866 129.811 19.0647 131.788 18.3967C133.765 17.7286 135.97 17.3946 138.402 17.3946C141.875 17.3946 144.841 18.0092 147.3 19.2384C149.758 20.4675 151.642 22.1109 152.951 24.1684C154.26 26.1992 154.915 28.4571 154.915 30.9422H147.5C147.5 29.7397 147.139 28.5774 146.418 27.4551C145.723 26.3061 144.694 25.3575 143.332 24.6093C141.996 23.8611 140.352 23.487 138.402 23.487C136.344 23.487 134.674 23.8077 133.391 24.449C132.135 25.0635 131.214 25.8518 130.626 26.8138C130.065 27.7757 129.784 28.7911 129.784 29.86C129.784 30.6616 129.918 31.3831 130.185 32.0244C130.479 32.639 130.986 33.2135 131.708 33.7479C132.429 34.2556 133.445 34.7366 134.754 35.1908C136.063 35.6451 137.734 36.0993 139.764 36.5536C143.318 37.3552 146.244 38.3172 148.542 39.4395C150.84 40.5617 152.55 41.9379 153.673 43.5679C154.795 45.1978 155.356 47.1752 155.356 49.4999C155.356 51.3971 154.955 53.134 154.154 54.7105C153.379 56.2871 152.243 57.6498 150.747 58.7988C149.277 59.9211 147.513 60.8029 145.456 61.4442C143.425 62.0588 141.14 62.3661 138.602 62.3661C134.781 62.3661 131.548 61.6847 128.902 60.3219C126.257 58.9592 124.253 57.1956 122.89 55.0312C121.527 52.8668 120.846 50.5821 120.846 48.1772H128.301C128.408 50.208 128.996 51.8246 130.065 53.0271C131.133 54.2028 132.443 55.0445 133.993 55.5522C135.542 56.0332 137.079 56.2737 138.602 56.2737C140.633 56.2737 142.33 56.0065 143.692 55.4721C145.082 54.9376 146.137 54.2028 146.859 53.2676C147.58 52.3323 147.941 51.2635 147.941 50.0611ZM183.253 18.1962V23.8878H159.805V18.1962H183.253ZM167.741 7.65481H175.156V50.8226C175.156 52.2923 175.383 53.4012 175.838 54.1494C176.292 54.8976 176.88 55.3919 177.601 55.6324C178.323 55.8729 179.098 55.9931 179.926 55.9931C180.541 55.9931 181.182 55.9397 181.85 55.8328C182.545 55.6992 183.066 55.5923 183.413 55.5121L183.453 61.5645C182.865 61.7515 182.09 61.9252 181.128 62.0855C180.193 62.2726 179.058 62.3661 177.722 62.3661C175.904 62.3661 174.234 62.0053 172.711 61.2839C171.188 60.5624 169.972 59.36 169.064 57.6765C168.182 55.9664 167.741 53.6684 167.741 50.7825V7.65481ZM199.366 26.5332V78.2384H191.91V18.1962H198.724L199.366 26.5332ZM228.585 39.5196V40.3613C228.585 43.5144 228.211 46.4404 227.463 49.1392C226.714 51.8113 225.619 54.136 224.176 56.1134C222.76 58.0907 221.01 59.6272 218.925 60.7227C216.841 61.8183 214.45 62.3661 211.751 62.3661C208.998 62.3661 206.567 61.9118 204.456 61.0033C202.345 60.0948 200.555 58.7721 199.085 57.0352C197.615 55.2984 196.44 53.2141 195.558 50.7825C194.703 48.3509 194.115 45.612 193.794 42.5658V38.0767C194.115 34.8702 194.716 31.9977 195.598 29.4592C196.48 26.9207 197.642 24.7563 199.085 22.9659C200.555 21.1489 202.332 19.7728 204.416 18.8376C206.5 17.8756 208.905 17.3946 211.63 17.3946C214.356 17.3946 216.774 17.929 218.885 18.9979C220.996 20.04 222.773 21.5364 224.216 23.487C225.659 25.4376 226.741 27.7757 227.463 30.5013C228.211 33.2001 228.585 36.2062 228.585 39.5196ZM221.13 40.3613V39.5196C221.13 37.3552 220.903 35.3244 220.448 33.4272C219.994 31.5033 219.286 29.8199 218.324 28.377C217.389 26.9073 216.186 25.7583 214.717 24.9299C213.247 24.0749 211.497 23.6473 209.466 23.6473C207.596 23.6473 205.966 23.968 204.576 24.6093C203.213 25.2506 202.051 26.119 201.089 27.2146C200.127 28.2834 199.339 29.5126 198.724 30.9021C198.136 32.2649 197.695 33.6811 197.402 35.1507V45.5318C197.936 47.4023 198.684 49.1659 199.646 50.8226C200.608 52.4526 201.891 53.7753 203.494 54.7907C205.097 55.7794 207.115 56.2737 209.546 56.2737C211.55 56.2737 213.274 55.8595 214.717 55.0312C216.186 54.1761 217.389 53.0137 218.324 51.5441C219.286 50.0744 219.994 48.391 220.448 46.4938C220.903 44.5699 221.13 42.5257 221.13 40.3613ZM246.101 18.1962V61.5645H238.645V18.1962H246.101ZM238.084 6.69285C238.084 5.49041 238.445 4.47501 239.166 3.64666C239.915 2.81831 241.01 2.40413 242.453 2.40413C243.869 2.40413 244.952 2.81831 245.7 3.64666C246.475 4.47501 246.862 5.49041 246.862 6.69285C246.862 7.84186 246.475 8.83053 245.7 9.65889C244.952 10.4605 243.869 10.8613 242.453 10.8613C241.01 10.8613 239.915 10.4605 239.166 9.65889C238.445 8.83053 238.084 7.84186 238.084 6.69285ZM266.061 -0.000761032V61.5645H258.606V-0.000761032H266.061ZM276.001 40.3613V39.4395C276.001 36.3131 276.456 33.4139 277.364 30.7418C278.273 28.0429 279.582 25.7049 281.292 23.7275C283.002 21.7234 285.073 20.1736 287.505 19.078C289.936 17.9558 292.662 17.3946 295.681 17.3946C298.728 17.3946 301.467 17.9558 303.898 19.078C306.356 20.1736 308.441 21.7234 310.151 23.7275C311.888 25.7049 313.21 28.0429 314.119 30.7418C315.027 33.4139 315.482 36.3131 315.482 39.4395V40.3613C315.482 43.4877 315.027 46.3869 314.119 49.059C313.21 51.7311 311.888 54.0692 310.151 56.0733C308.441 58.0506 306.37 59.6005 303.938 60.7227C301.533 61.8183 298.808 62.3661 295.762 62.3661C292.715 62.3661 289.976 61.8183 287.545 60.7227C285.113 59.6005 283.029 58.0506 281.292 56.0733C279.582 54.0692 278.273 51.7311 277.364 49.059C276.456 46.3869 276.001 43.4877 276.001 40.3613ZM283.416 39.4395V40.3613C283.416 42.5257 283.67 44.5699 284.178 46.4938C284.686 48.391 285.447 50.0744 286.463 51.5441C287.505 53.0137 288.801 54.1761 290.351 55.0312C291.9 55.8595 293.704 56.2737 295.762 56.2737C297.792 56.2737 299.569 55.8595 301.092 55.0312C302.642 54.1761 303.925 53.0137 304.94 51.5441C305.956 50.0744 306.717 48.391 307.225 46.4938C307.759 44.5699 308.027 42.5257 308.027 40.3613V39.4395C308.027 37.3018 307.759 35.2843 307.225 33.3871C306.717 31.4632 305.942 29.7664 304.9 28.2968C303.885 26.8004 302.602 25.6247 301.052 24.7696C299.529 23.9145 297.739 23.487 295.681 23.487C293.651 23.487 291.86 23.9145 290.311 24.7696C288.787 25.6247 287.505 26.8004 286.463 28.2968C285.447 29.7664 284.686 31.4632 284.178 33.3871C283.67 35.2843 283.416 37.3018 283.416 39.4395ZM342.938 18.1962V23.8878H319.49V18.1962H342.938ZM327.426 7.65481H334.841V50.8226C334.841 52.2923 335.068 53.4012 335.522 54.1494C335.977 54.8976 336.565 55.3919 337.286 55.6324C338.007 55.8729 338.782 55.9931 339.611 55.9931C340.225 55.9931 340.867 55.9397 341.535 55.8328C342.229 55.6992 342.75 55.5923 343.098 55.5121L343.138 61.5645C342.55 61.7515 341.775 61.9252 340.813 62.0855C339.878 62.2726 338.742 62.3661 337.406 62.3661C335.589 62.3661 333.919 62.0053 332.396 61.2839C330.873 60.5624 329.657 59.36 328.749 57.6765C327.867 55.9664 327.426 53.6684 327.426 50.7825V7.65481Z" fill="white"/>
</svg>
