<svg width="235" height="65" viewBox="0 0 235 65" fill="none" xmlns="http://www.w3.org/2000/svg">
<path d="M26.3336 3.20652V61.5652H18.7181V3.20652H26.3336ZM45.0918 3.20652V9.5394H4.76614e-05V3.20652H45.0918ZM56.996 25.0109V61.5652H49.5809V18.197H56.7956L56.996 25.0109ZM70.5435 17.9565L70.5034 24.8505C69.8889 24.7169 69.301 24.6368 68.7399 24.6101C68.2054 24.5566 67.5909 24.5299 66.8961 24.5299C65.186 24.5299 63.6762 24.7971 62.3669 25.3315C61.0576 25.8659 59.9486 26.6141 59.0401 27.5761C58.1316 28.538 57.4101 29.687 56.8757 31.0231C56.368 32.3324 56.034 33.7754 55.8737 35.3519L53.7894 36.5543C53.7894 33.9357 54.0433 31.4774 54.551 29.1793C55.0854 26.8813 55.9004 24.8505 56.996 23.087C58.0915 21.2966 59.481 19.9072 61.1644 18.9185C62.8746 17.9031 64.9054 17.3954 67.2568 17.3954C67.7913 17.3954 68.4058 17.4622 69.1006 17.5958C69.7953 17.7027 70.2763 17.8229 70.5435 17.9565ZM103.931 51.5448V18.197H111.387V61.5652H104.292L103.931 51.5448ZM105.334 42.4062L108.421 42.3261C108.421 45.212 108.113 47.8841 107.499 50.3424C106.911 52.774 105.949 54.885 104.613 56.6753C103.277 58.4656 101.527 59.8684 99.3621 60.8838C97.1977 61.8725 94.5657 62.3668 91.4661 62.3668C89.3551 62.3668 87.4178 62.0596 85.6543 61.445C83.9174 60.8304 82.421 59.8818 81.1651 58.5992C79.9092 57.3166 78.9339 55.6465 78.2392 53.589C77.5712 51.5315 77.2371 49.0598 77.2371 46.1739V18.197H84.6522V46.2541C84.6522 48.2047 84.866 49.8213 85.2935 51.1039C85.7478 52.3598 86.349 53.3619 87.0972 54.1101C87.8721 54.8315 88.7272 55.3392 89.6624 55.6332C90.6244 55.9271 91.613 56.074 92.6284 56.074C95.7815 56.074 98.2799 55.4728 100.124 54.2704C101.967 53.0412 103.29 51.3979 104.092 49.3404C104.92 47.2561 105.334 44.9447 105.334 42.4062ZM147.941 50.0618C147.941 48.993 147.7 48.0043 147.219 47.0958C146.765 46.1606 145.817 45.3188 144.374 44.5707C142.957 43.7957 140.82 43.1277 137.961 42.5666C135.556 42.0589 133.378 41.4577 131.427 40.7629C129.503 40.0682 127.86 39.2264 126.497 38.2378C125.161 37.2491 124.133 36.0867 123.411 34.7507C122.69 33.4146 122.329 31.8514 122.329 30.0611C122.329 28.351 122.703 26.7344 123.451 25.2113C124.226 23.6882 125.308 22.3388 126.698 21.163C128.114 19.9873 129.811 19.0654 131.788 18.3974C133.765 17.7294 135.97 17.3954 138.402 17.3954C141.875 17.3954 144.841 18.01 147.3 19.2391C149.758 20.4683 151.642 22.1116 152.951 24.1692C154.26 26.2 154.915 28.4579 154.915 30.9429H147.5C147.5 29.7405 147.139 28.5781 146.418 27.4558C145.723 26.3068 144.694 25.3582 143.332 24.6101C141.996 23.8619 140.352 23.4878 138.402 23.4878C136.344 23.4878 134.674 23.8084 133.391 24.4497C132.135 25.0643 131.214 25.8526 130.626 26.8145C130.065 27.7765 129.784 28.7919 129.784 29.8607C129.784 30.6624 129.918 31.3838 130.185 32.0251C130.479 32.6397 130.986 33.2142 131.708 33.7486C132.429 34.2563 133.445 34.7373 134.754 35.1916C136.063 35.6458 137.734 36.1001 139.764 36.5543C143.318 37.356 146.244 38.3179 148.542 39.4402C150.84 40.5625 152.55 41.9386 153.673 43.5686C154.795 45.1986 155.356 47.176 155.356 49.5007C155.356 51.3979 154.955 53.1347 154.154 54.7113C153.379 56.2878 152.243 57.6506 150.747 58.7996C149.277 59.9219 147.513 60.8037 145.456 61.445C143.425 62.0596 141.14 62.3668 138.602 62.3668C134.781 62.3668 131.548 61.6855 128.902 60.3227C126.257 58.9599 124.253 57.1963 122.89 55.0319C121.527 52.8675 120.846 50.5829 120.846 48.178H128.301C128.408 50.2088 128.996 51.8254 130.065 53.0279C131.133 54.2036 132.443 55.0453 133.993 55.553C135.542 56.034 137.079 56.2745 138.602 56.2745C140.633 56.2745 142.33 56.0072 143.692 55.4728C145.082 54.9384 146.137 54.2036 146.859 53.2683C147.58 52.3331 147.941 51.2643 147.941 50.0618ZM183.253 18.197V23.8886H159.805V18.197H183.253ZM167.741 7.65557H175.156V50.8234C175.156 52.293 175.383 53.4019 175.838 54.1501C176.292 54.8983 176.88 55.3927 177.601 55.6332C178.323 55.8736 179.098 55.9939 179.926 55.9939C180.541 55.9939 181.182 55.9404 181.85 55.8336C182.545 55.7 183.066 55.5931 183.413 55.5129L183.453 61.5652C182.865 61.7523 182.09 61.9259 181.128 62.0863C180.193 62.2733 179.058 62.3668 177.722 62.3668C175.904 62.3668 174.234 62.0061 172.711 61.2846C171.188 60.5632 169.972 59.3607 169.064 57.6773C168.182 55.9672 167.741 53.6692 167.741 50.7833V7.65557ZM199.366 26.534V78.2391H191.91V18.197H198.724L199.366 26.534ZM228.585 39.5204V40.3621C228.585 43.5152 228.211 46.4411 227.463 49.1399C226.714 51.812 225.619 54.1368 224.176 56.1141C222.76 58.0915 221.01 59.6279 218.925 60.7235C216.841 61.8191 214.45 62.3668 211.751 62.3668C208.998 62.3668 206.567 61.9126 204.456 61.0041C202.345 60.0956 200.555 58.7729 199.085 57.036C197.615 55.2991 196.44 53.2149 195.558 50.7833C194.703 48.3517 194.115 45.6128 193.794 42.5666V38.0774C194.115 34.8709 194.716 31.9984 195.598 29.4599C196.48 26.9214 197.642 24.757 199.085 22.9667C200.555 21.1497 202.332 19.7736 204.416 18.8383C206.5 17.8764 208.905 17.3954 211.63 17.3954C214.356 17.3954 216.774 17.9298 218.885 18.9986C220.996 20.0408 222.773 21.5371 224.216 23.4878C225.659 25.4384 226.741 27.7765 227.463 30.502C228.211 33.2009 228.585 36.207 228.585 39.5204ZM221.13 40.3621V39.5204C221.13 37.356 220.903 35.3252 220.448 33.428C219.994 31.5041 219.286 29.8207 218.324 28.3777C217.389 26.9081 216.186 25.7591 214.717 24.9307C213.247 24.0756 211.497 23.6481 209.466 23.6481C207.596 23.6481 205.966 23.9688 204.576 24.6101C203.213 25.2514 202.051 26.1198 201.089 27.2154C200.127 28.2842 199.339 29.5134 198.724 30.9029C198.136 32.2656 197.695 33.6818 197.402 35.1515V45.5326C197.936 47.4031 198.684 49.1667 199.646 50.8234C200.608 52.4534 201.891 53.776 203.494 54.7914C205.097 55.7801 207.115 56.2745 209.546 56.2745C211.55 56.2745 213.274 55.8603 214.717 55.0319C216.186 54.1769 217.389 53.0145 218.324 51.5448C219.286 50.0752 219.994 48.3918 220.448 46.4946C220.903 44.5707 221.13 42.5265 221.13 40.3621ZM246.101 18.197V61.5652H238.645V18.197H246.101ZM238.084 6.69362C238.084 5.49117 238.445 4.47577 239.166 3.64742C239.915 2.81907 241.01 2.40489 242.453 2.40489C243.869 2.40489 244.952 2.81907 245.7 3.64742C246.475 4.47577 246.862 5.49117 246.862 6.69362C246.862 7.84262 246.475 8.8313 245.7 9.65965C244.952 10.4613 243.869 10.8621 242.453 10.8621C241.01 10.8621 239.915 10.4613 239.166 9.65965C238.445 8.8313 238.084 7.84262 238.084 6.69362ZM266.061 1.90735e-06V61.5652H258.606V1.90735e-06H266.061ZM276.001 40.3621V39.4402C276.001 36.3139 276.456 33.4146 277.364 30.7425C278.273 28.0437 279.582 25.7056 281.292 23.7283C283.002 21.7242 285.073 20.1744 287.505 19.0788C289.936 17.9565 292.662 17.3954 295.681 17.3954C298.728 17.3954 301.467 17.9565 303.898 19.0788C306.356 20.1744 308.441 21.7242 310.151 23.7283C311.888 25.7056 313.21 28.0437 314.119 30.7425C315.027 33.4146 315.482 36.3139 315.482 39.4402V40.3621C315.482 43.4885 315.027 46.3877 314.119 49.0598C313.21 51.7319 311.888 54.07 310.151 56.074C308.441 58.0514 306.37 59.6012 303.938 60.7235C301.533 61.8191 298.808 62.3668 295.762 62.3668C292.715 62.3668 289.976 61.8191 287.545 60.7235C285.113 59.6012 283.029 58.0514 281.292 56.074C279.582 54.07 278.273 51.7319 277.364 49.0598C276.456 46.3877 276.001 43.4885 276.001 40.3621ZM283.416 39.4402V40.3621C283.416 42.5265 283.67 44.5707 284.178 46.4946C284.686 48.3918 285.447 50.0752 286.463 51.5448C287.505 53.0145 288.801 54.1769 290.351 55.0319C291.9 55.8603 293.704 56.2745 295.762 56.2745C297.792 56.2745 299.569 55.8603 301.092 55.0319C302.642 54.1769 303.925 53.0145 304.94 51.5448C305.956 50.0752 306.717 48.3918 307.225 46.4946C307.759 44.5707 308.027 42.5265 308.027 40.3621V39.4402C308.027 37.3025 307.759 35.2851 307.225 33.3879C306.717 31.464 305.942 29.7672 304.9 28.2976C303.885 26.8012 302.602 25.6255 301.052 24.7704C299.529 23.9153 297.739 23.4878 295.681 23.4878C293.651 23.4878 291.86 23.9153 290.311 24.7704C288.787 25.6255 287.505 26.8012 286.463 28.2976C285.447 29.7672 284.686 31.464 284.178 33.3879C283.67 35.2851 283.416 37.3025 283.416 39.4402ZM342.938 18.197V23.8886H319.49V18.197H342.938ZM327.426 7.65557H334.841V50.8234C334.841 52.293 335.068 53.4019 335.522 54.1501C335.977 54.8983 336.565 55.3927 337.286 55.6332C338.007 55.8736 338.782 55.9939 339.611 55.9939C340.225 55.9939 340.867 55.9404 341.535 55.8336C342.229 55.7 342.75 55.5931 343.098 55.5129L343.138 61.5652C342.55 61.7523 341.775 61.9259 340.813 62.0863C339.878 62.2733 338.742 62.3668 337.406 62.3668C335.589 62.3668 333.919 62.0061 332.396 61.2846C330.873 60.5632 329.657 59.3607 328.749 57.6773C327.867 55.9672 327.426 53.6692 327.426 50.7833V7.65557Z" fill="white"/>
</svg>
